Cascade-Medium.ufo
<glyph name="exclam" format="2">
  <advance width="290"/>
  <unicode hex="0021"/>
  <outline>
    <contour>
      <point x="191.667" y="186.667" type="line"/>
      <point x="211.667" y="700" type="line"/>
      <point x="78.3333" y="700" type="line"/>
      <point x="98.3333" y="186.667" type="line"/>
    </contour>
    <contour>
      <point x="145" y="-10" type="curve" smooth="yes"/>
      <point x="181.667" y="-10"/>
      <point x="210" y="18.3333"/>
      <point x="210" y="55" type="curve" smooth="yes"/>
      <point x="210" y="91.6667"/>
      <point x="181.667" y="120"/>
      <point x="145" y="120" type="curve" smooth="yes"/>
      <point x="108.333" y="120"/>
      <point x="80" y="91.6667"/>
      <point x="80" y="55" type="curve" smooth="yes"/>
      <point x="80" y="18.3333"/>
      <point x="108.333" y="-10"/>
    </contour>
  </outline>
</glyph>
<glyph name="quotedbl" format="2">
  <advance width="353"/>
  <unicode hex="0022"/>
  <outline>
    <contour>
      <point x="293.333" y="458.333" type="line"/>
      <point x="315" y="700" type="line"/>
      <point x="200" y="700" type="line"/>
      <point x="221.667" y="458.333" type="line"/>
    </contour>
    <contour>
      <point x="131.667" y="458.333" type="line"/>
      <point x="153.333" y="700" type="line"/>
      <point x="38.3333" y="700" type="line"/>
      <point x="60" y="458.333" type="line"/>
    </contour>
  </outline>
</glyph>
<glyph name="ampersand" format="2">
  <advance width="625"/>
  <unicode hex="0026"/>
  <outline>
    <contour>
      <point x="243.333" y="-10" type="curve" smooth="yes"/>
      <point x="316" y="-10"/>
      <point x="385" y="13.6667"/>
      <point x="440" y="56.6667" type="curve"/>
      <point x="486.667" y="0" type="line"/>
      <point x="620" y="0" type="line"/>
      <point x="513.333" y="128.333" type="line"/>
      <point x="548.333" y="180.667"/>
      <point x="570" y="241"/>
      <point x="570" y="320" type="curve"/>
      <point x="466.667" y="320" type="line"/>
      <point x="466.667" y="275.333"/>
      <point x="462.333" y="235.667"/>
      <point x="451.667" y="201.667" type="curve"/>
      <point x="309.667" y="371.667" type="line"/>
      <point x="373.333" y="411.333"/>
      <point x="445" y="480"/>
      <point x="445" y="560" type="curve" smooth="yes"/>
      <point x="445" y="643.333"/>
      <point x="377.667" y="710"/>
      <point x="268.333" y="710" type="curve" smooth="yes"/>
      <point x="152.667" y="710"/>
      <point x="86.6667" y="644"/>
      <point x="86.6667" y="550" type="curve" smooth="yes"/>
      <point x="86.6667" y="486.667"/>
      <point x="127.333" y="421.667"/>
      <point x="173.333" y="380" type="curve"/>
      <point x="98" y="333.333"/>
      <point x="26.6667" y="271"/>
      <point x="26.6667" y="180" type="curve" smooth="yes"/>
      <point x="26.6667" y="71.6667"/>
      <point x="107.667" y="-10"/>
    </contour>
    <contour>
      <point x="263.333" y="66.6667" type="curve" smooth="yes"/>
      <point x="188.333" y="66.6667"/>
      <point x="140" y="114"/>
      <point x="140" y="180" type="curve" smooth="yes"/>
      <point x="140" y="233"/>
      <point x="177" y="274.333"/>
      <point x="226.667" y="310" type="curve"/>
      <point x="391.667" y="111.667" type="line"/>
      <point x="358.667" y="79.6667"/>
      <point x="313.333" y="66.6667"/>
    </contour>
    <contour>
      <point x="255" y="440" type="curve"/>
      <point x="230" y="468.667"/>
      <point x="200" y="511.333"/>
      <point x="200" y="550" type="curve" smooth="yes"/>
      <point x="200" y="610.333"/>
      <point x="228" y="638.333"/>
      <point x="268.333" y="638.333" type="curve" smooth="yes"/>
      <point x="303.333" y="638.333"/>
      <point x="331.667" y="610.667"/>
      <point x="331.667" y="560" type="curve" smooth="yes"/>
      <point x="331.667" y="513"/>
      <point x="291.333" y="466.333"/>
    </contour>
  </outline>
</glyph>
<glyph name="parenleft" format="2">
  <advance width="297"/>
  <unicode hex="0028"/>
  <outline>
    <contour>
      <point x="296.667" y="-133.333" type="line"/>
      <point x="216.667" y="-21"/>
      <point x="168.333" y="106"/>
      <point x="168.333" y="280" type="curve" smooth="yes"/>
      <point x="168.333" y="454"/>
      <point x="216.667" y="581"/>
      <point x="296.667" y="693.333" type="curve"/>
      <point x="251.667" y="738.333" type="line"/>
      <point x="126.667" y="627"/>
      <point x="55" y="457"/>
      <point x="55" y="280" type="curve" smooth="yes"/>
      <point x="55" y="103"/>
      <point x="126.667" y="-67"/>
      <point x="251.667" y="-178.333" type="curve"/>
    </contour>
  </outline>
</glyph>
<glyph name="asterisk" format="2">
  <advance width="420"/>
  <unicode hex="002A"/>
  <outline>
    <contour>
      <point x="248.333" y="336.667" type="line"/>
      <point x="248.333" y="452.333" type="line"/>
      <point x="351.667" y="393.333" type="line"/>
      <point x="390" y="460" type="line"/>
      <point x="288" y="518.333" type="line"/>
      <point x="390" y="576.667" type="line"/>
      <point x="351.667" y="643.333" type="line"/>
      <point x="248.333" y="584" type="line"/>
      <point x="248.333" y="700" type="line"/>
      <point x="171.667" y="700" type="line"/>
      <point x="171.667" y="584" type="line"/>
      <point x="68.3333" y="643.333" type="line"/>
      <point x="30" y="576.667" type="line"/>
      <point x="132" y="518.333" type="line"/>
      <point x="30" y="460" type="line"/>
      <point x="68.3333" y="393.333" type="line"/>
      <point x="171.667" y="452.333" type="line"/>
      <point x="171.667" y="336.667" type="line"/>
    </contour>
  </outline>
</glyph>
<glyph name="comma" format="2">
  <advance width="207"/>
  <unicode hex="002C"/>
  <outline>
    <contour>
      <point x="71.6667" y="-131.667" type="line"/>
      <point x="89.6667" y="-121"/>
      <point x="105.667" y="-107"/>
      <point x="120" y="-90" type="curve" smooth="yes"/>
      <point x="144.333" y="-61.6667"/>
      <point x="168.333" y="-18.6667"/>
      <point x="168.333" y="45" type="curve" smooth="yes"/>
      <point x="168.333" y="92"/>
      <point x="140" y="120"/>
      <point x="98.3333" y="120" type="curve" smooth="yes"/>
      <point x="66" y="120"/>
      <point x="38.3333" y="91.6667"/>
      <point x="38.3333" y="55" type="curve" smooth="yes"/>
      <point x="38.3333" y="18.3333"/>
      <point x="66" y="-10"/>
      <point x="100" y="-10" type="curve"/>
      <point x="100" y="-33.6667"/>
      <point x="85.6667" y="-54"/>
      <point x="70.3333" y="-69.6667" type="curve"/>
      <point x="62" y="-78.6667"/>
      <point x="52.3333" y="-87.3333"/>
      <point x="41.6667" y="-95" type="curve"/>
    </contour>
  </outline>
</glyph>
<glyph name="hyphen" format="2">
  <advance width="443"/>
  <unicode hex="002D"/>
  <outline>
    <contour>
      <point x="413.333" y="286.667" type="line"/>
      <point x="413.333" y="373.333" type="line"/>
      <point x="30" y="373.333" type="line"/>
      <point x="30" y="286.667" type="line"/>
    </contour>
  </outline>
</glyph>
<glyph name="two" format="2">
  <advance width="505"/>
  <unicode hex="0032"/>
  <outline>
    <contour>
      <point x="463.333" y="0" type="line"/>
      <point x="463.333" y="76.6667" type="line"/>
      <point x="140" y="76.6667" type="line"/>
      <point x="140" y="216.667"/>
      <point x="463.333" y="313.667"/>
      <point x="463.333" y="516.667" type="curve" smooth="yes"/>
      <point x="463.333" y="630"/>
      <point x="382.667" y="710"/>
      <point x="231.667" y="710" type="curve" smooth="yes"/>
      <point x="165.667" y="710"/>
      <point x="116.333" y="697"/>
      <point x="83.3333" y="682" type="curve"/>
      <point x="64" y="674"/>
      <point x="47" y="665"/>
      <point x="33.3333" y="655" type="curve"/>
      <point x="71.6667" y="588.333" type="line"/>
      <point x="81.6667" y="588.333" type="line"/>
      <point x="91.3333" y="596.333"/>
      <point x="103.333" y="603.333"/>
      <point x="117" y="610.333" type="curve"/>
      <point x="140.667" y="621.333"/>
      <point x="175.667" y="633.333"/>
      <point x="221.667" y="633.333" type="curve" smooth="yes"/>
      <point x="303.667" y="633.333"/>
      <point x="350" y="586.667"/>
      <point x="350" y="526.667" type="curve" smooth="yes"/>
      <point x="350" y="360"/>
      <point x="26.6667" y="279.333"/>
      <point x="26.6667" y="70" type="curve" smooth="yes"/>
      <point x="26.6667" y="0" type="line"/>
    </contour>
  </outline>
</glyph>
<glyph name="four" format="2">
  <advance width="547"/>
  <unicode hex="0034"/>
  <outline>
    <contour>
      <point x="450" y="0" type="line"/>
      <point x="450" y="166.667" type="line"/>
      <point x="526.667" y="166.667" type="line"/>
      <point x="526.667" y="243.333" type="line"/>
      <point x="450" y="243.333" type="line"/>
      <point x="450" y="700" type="line"/>
      <point x="340" y="700" type="line"/>
      <point x="10" y="243.333" type="line"/>
      <point x="10" y="166.667" type="line"/>
      <point x="336.667" y="166.667" type="line"/>
      <point x="336.667" y="0" type="line"/>
    </contour>
    <contour>
      <point x="305" y="486.667" type="line" smooth="yes"/>
      <point x="314" y="499"/>
      <point x="322.333" y="515.333"/>
      <point x="329.333" y="529.333" type="curve"/>
      <point x="333.667" y="537"/>
      <point x="337" y="545.333"/>
      <point x="341.333" y="553.333" type="curve"/>
      <point x="345.333" y="553.333" type="line"/>
      <point x="344.238" y="548.549"/>
      <point x="341.812" y="535.113"/>
      <point x="341" y="529.667" type="curve"/>
      <point x="338" y="515.667"/>
      <point x="336.667" y="499.667"/>
      <point x="336.667" y="486.667" type="curve" smooth="yes"/>
      <point x="336.667" y="243.333" type="line"/>
      <point x="130" y="243.333" type="line"/>
    </contour>
  </outline>
</glyph>
<glyph name="colon" format="2">
  <advance width="207"/>
  <unicode hex="003A"/>
  <outline>
    <contour>
      <point x="103.333" y="380" type="curve" smooth="yes"/>
      <point x="140" y="380"/>
      <point x="168.333" y="408.333"/>
      <point x="168.333" y="445" type="curve" smooth="yes"/>
      <point x="168.333" y="481.667"/>
      <point x="140" y="510"/>
      <point x="103.333" y="510" type="curve" smooth="yes"/>
      <point x="66.6667" y="510"/>
      <point x="38.3333" y="481.667"/>
      <point x="38.3333" y="445" type="curve" smooth="yes"/>
      <point x="38.3333" y="408.333"/>
      <point x="66.6667" y="380"/>
    </contour>
    <contour>
      <point x="103.333" y="-10" type="curve" smooth="yes"/>
      <point x="140" y="-10"/>
      <point x="168.333" y="18.3333"/>
      <point x="168.333" y="55" type="curve" smooth="yes"/>
      <point x="168.333" y="91.6667"/>
      <point x="140" y="120"/>
      <point x="103.333" y="120" type="curve" smooth="yes"/>
      <point x="66.6667" y="120"/>
      <point x="38.3333" y="91.6667"/>
      <point x="38.3333" y="55" type="curve" smooth="yes"/>
      <point x="38.3333" y="18.3333"/>
      <point x="66.6667" y="-10"/>
    </contour>
  </outline>
</glyph>
<glyph name="equal" format="2">
  <advance width="483"/>
  <unicode hex="003D"/>
  <outline>
    <contour>
      <point x="448.333" y="378.667" type="line"/>
      <point x="448.333" y="465.333" type="line"/>
      <point x="35" y="465.333" type="line"/>
      <point x="35" y="378.667" type="line"/>
    </contour>
    <contour>
      <point x="448.333" y="195" type="line"/>
      <point x="448.333" y="281.667" type="line"/>
      <point x="35" y="281.667" type="line"/>
      <point x="35" y="195" type="line"/>
    </contour>
  </outline>
</glyph>
<glyph name="greater" format="2">
  <advance width="448"/>
  <unicode hex="003E"/>
  <outline>
    <contour>
      <point x="428.333" y="213.333" type="line"/>
      <point x="428.333" y="286.667" type="line"/>
      <point x="35" y="500" type="line"/>
      <point x="35" y="396.667" type="line"/>
      <point x="305" y="250" type="line"/>
      <point x="35" y="103.333" type="line"/>
      <point x="35" y="0" type="line"/>
    </contour>
  </outline>
</glyph>
<glyph name="at" format="2">
  <advance width="940"/>
  <unicode hex="0040"/>
  <outline>
    <contour>
      <point x="460" y="-120" type="curve" smooth="yes"/>
      <point x="532.667" y="-120"/>
      <point x="586" y="-108"/>
      <point x="623" y="-93" type="curve"/>
      <point x="644.333" y="-85"/>
      <point x="663.333" y="-76"/>
      <point x="678.333" y="-65" type="curve"/>
      <point x="640" y="1.66667" type="line"/>
      <point x="630" y="1.66667" type="line"/>
      <point x="617.667" y="-7.33333"/>
      <point x="604" y="-14.3333"/>
      <point x="588.333" y="-21.3333" type="curve"/>
      <point x="560.667" y="-32.3333"/>
      <point x="522.667" y="-43.3333"/>
      <point x="470" y="-43.3333" type="curve" smooth="yes"/>
      <point x="284" y="-43.3333"/>
      <point x="143.333" y="96.3333"/>
      <point x="143.333" y="300" type="curve" smooth="yes"/>
      <point x="143.333" y="503.667"/>
      <point x="284" y="643.333"/>
      <point x="470" y="643.333" type="curve" smooth="yes"/>
      <point x="656" y="643.333"/>
      <point x="796.667" y="503.667"/>
      <point x="796.667" y="300" type="curve" smooth="yes"/>
      <point x="796.667" y="169.333"/>
      <point x="746" y="126.667"/>
      <point x="701.667" y="126.667" type="curve" smooth="yes"/>
      <point x="689.333" y="126.667"/>
      <point x="678.667" y="130.667"/>
      <point x="670.667" y="135.667" type="curve" smooth="yes"/>
      <point x="666" y="138.667"/>
      <point x="662" y="141.333"/>
      <point x="658.333" y="145" type="curve"/>
      <point x="658.333" y="525" type="line"/>
      <point x="581.667" y="525" type="line"/>
      <point x="571.667" y="473.333" type="line"/>
      <point x="566.667" y="473.333" type="line"/>
      <point x="557.667" y="484.667"/>
      <point x="546.667" y="495"/>
      <point x="534" y="503.667" type="curve" smooth="yes"/>
      <point x="511.667" y="519.333"/>
      <point x="481" y="535"/>
      <point x="440" y="535" type="curve" smooth="yes"/>
      <point x="338.333" y="535"/>
      <point x="261.667" y="457.667"/>
      <point x="261.667" y="295" type="curve" smooth="yes"/>
      <point x="261.667" y="132.333"/>
      <point x="338.333" y="55"/>
      <point x="440" y="55" type="curve" smooth="yes"/>
      <point x="481" y="55"/>
      <point x="512.333" y="67"/>
      <point x="534" y="82" type="curve"/>
      <point x="546.333" y="90"/>
      <point x="557" y="99"/>
      <point x="566.667" y="110" type="curve"/>
      <point x="571.667" y="110" type="line"/>
      <point x="580" y="99"/>
      <point x="590" y="90"/>
      <point x="602" y="82" type="curve"/>
      <point x="623" y="67"/>
      <point x="656" y="55"/>
      <point x="705" y="55" type="curve" smooth="yes"/>
      <point x="813.333" y="55"/>
      <point x="896.667" y="138.333"/>
      <point x="896.667" y="300" type="curve" smooth="yes"/>
      <point x="896.667" y="540"/>
      <point x="716.667" y="720"/>
      <point x="470" y="720" type="curve" smooth="yes"/>
      <point x="223.333" y="720"/>
      <point x="43.3333" y="540"/>
      <point x="43.3333" y="300" type="curve" smooth="yes"/>
      <point x="43.3333" y="60"/>
      <point x="223" y="-120"/>
    </contour>
    <contour>
      <point x="465" y="135" type="curve" smooth="yes"/>
      <point x="415" y="135"/>
      <point x="371.667" y="176.667"/>
      <point x="371.667" y="295" type="curve" smooth="yes"/>
      <point x="371.667" y="413.333"/>
      <point x="413.333" y="455"/>
      <point x="465" y="455" type="curve" smooth="yes"/>
      <point x="488.333" y="455"/>
      <point x="509.333" y="442.333"/>
      <point x="524.333" y="428.667" type="curve" smooth="yes"/>
      <point x="532.667" y="421"/>
      <point x="541" y="412.667"/>
      <point x="548.333" y="403.333" type="curve"/>
      <point x="548.333" y="173.333" type="line"/>
      <point x="541.333" y="165.667"/>
      <point x="533.333" y="159.333"/>
      <point x="525" y="153.667" type="curve" smooth="yes"/>
      <point x="510.333" y="144"/>
      <point x="489.333" y="135"/>
    </contour>
  </outline>
</glyph>
<glyph name="D" format="2">
  <advance width="595"/>
  <unicode hex="0044"/>
  <outline>
    <contour>
      <point x="245" y="0" type="line" smooth="yes"/>
      <point x="438.333" y="0"/>
      <point x="541.667" y="102.667"/>
      <point x="541.667" y="350" type="curve" smooth="yes"/>
      <point x="541.667" y="597.333"/>
      <point x="438.333" y="700"/>
      <point x="245" y="700" type="curve" smooth="yes"/>
      <point x="88.3333" y="700" type="line"/>
      <point x="88.3333" y="0" type="line"/>
    </contour>
    <contour>
      <point x="201.667" y="623.333" type="line"/>
      <point x="245" y="623.333" type="line" smooth="yes"/>
      <point x="361.667" y="623.333"/>
      <point x="428.333" y="557.333"/>
      <point x="428.333" y="350" type="curve" smooth="yes"/>
      <point x="428.333" y="142.667"/>
      <point x="361.667" y="76.6667"/>
      <point x="245" y="76.6667" type="curve" smooth="yes"/>
      <point x="201.667" y="76.6667" type="line"/>
    </contour>
  </outline>
</glyph>
<glyph name="F" format="2">
  <advance width="508"/>
  <unicode hex="0046"/>
  <outline>
    <contour>
      <point x="201.667" y="0" type="line"/>
      <point x="201.667" y="316.667" type="line"/>
      <point x="428.333" y="316.667" type="line"/>
      <point x="428.333" y="393.333" type="line"/>
      <point x="201.667" y="393.333" type="line"/>
      <point x="201.667" y="623.333" type="line"/>
      <point x="488.333" y="623.333" type="line"/>
      <point x="488.333" y="700" type="line"/>
      <point x="88.3333" y="700" type="line"/>
      <point x="88.3333" y="0" type="line"/>
    </contour>
  </outline>
</glyph>
<glyph name="G" format="2">
  <advance width="573"/>
  <unicode hex="0047"/>
  <outline>
    <contour>
      <point x="320" y="-10" type="curve" smooth="yes"/>
      <point x="382.333" y="-10"/>
      <point x="459.333" y="5.33333"/>
      <point x="510" y="45" type="curve"/>
      <point x="510" y="350" type="line"/>
      <point x="476.667" y="383.333" type="line"/>
      <point x="285" y="383.333" type="line"/>
      <point x="285" y="306.667" type="line"/>
      <point x="396.667" y="306.667" type="line"/>
      <point x="396.667" y="83.3333" type="line"/>
      <point x="389.333" y="80"/>
      <point x="362.333" y="66.6667"/>
      <point x="330" y="66.6667" type="curve" smooth="yes"/>
      <point x="233.333" y="66.6667"/>
      <point x="166.667" y="133"/>
      <point x="166.667" y="350" type="curve" smooth="yes"/>
      <point x="166.667" y="567"/>
      <point x="233.333" y="633.333"/>
      <point x="320" y="633.333" type="curve" smooth="yes"/>
      <point x="364" y="633.333"/>
      <point x="405.333" y="615"/>
      <point x="440" y="588.333" type="curve"/>
      <point x="450" y="588.333" type="line"/>
      <point x="488.333" y="655" type="line"/>
      <point x="438" y="692.333"/>
      <point x="371.333" y="710"/>
      <point x="310" y="710" type="curve" smooth="yes"/>
      <point x="161.667" y="710"/>
      <point x="53.3333" y="602.333"/>
      <point x="53.3333" y="350" type="curve" smooth="yes"/>
      <point x="53.3333" y="97.6667"/>
      <point x="161.333" y="-10"/>
    </contour>
  </outline>
</glyph>
<glyph name="K" format="2">
  <advance width="565"/>
  <unicode hex="004B"/>
  <outline>
    <contour>
      <point x="201.667" y="0" type="line"/>
      <point x="201.667" y="343.333" type="line"/>
      <point x="423.333" y="0" type="line"/>
      <point x="553.333" y="0" type="line"/>
      <point x="318.333" y="361.667" type="line"/>
      <point x="541.667" y="700" type="line"/>
      <point x="413.333" y="700" type="line"/>
      <point x="201.667" y="376.667" type="line"/>
      <point x="201.667" y="700" type="line"/>
      <point x="88.3333" y="700" type="line"/>
      <point x="88.3333" y="0" type="line"/>
    </contour>
  </outline>
</glyph>
<glyph name="Q" format="2">
  <advance width="610"/>
  <unicode hex="0051"/>
  <outline>
    <contour>
      <point x="411.667" y="-158.333" type="curve" smooth="yes"/>
      <point x="433.333" y="-158.333"/>
      <point x="451" y="-154.667"/>
      <point x="466" y="-150.333" type="curve"/>
      <point x="474" y="-147.333"/>
      <point x="481.667" y="-145"/>
      <point x="488.333" y="-141.667" type="curve"/>
      <point x="466.333" y="-71.6667" type="line"/>
      <point x="456.333" y="-71.6667" type="line"/>
      <point x="454.07" y="-72.9649"/>
      <point x="449.108" y="-75.7794"/>
      <point x="447" y="-76.6667" type="curve"/>
      <point x="440.667" y="-79.6667"/>
      <point x="432.333" y="-81.6667"/>
      <point x="421.667" y="-81.6667" type="curve" smooth="yes"/>
      <point x="386.667" y="-81.6667"/>
      <point x="361.667" y="-57.6667"/>
      <point x="361.667" y="-3.33333" type="curve"/>
      <point x="478.333" y="19"/>
      <point x="556.667" y="125.667"/>
      <point x="556.667" y="350" type="curve" smooth="yes"/>
      <point x="556.667" y="608.333"/>
      <point x="455" y="710"/>
      <point x="305" y="710" type="curve" smooth="yes"/>
      <point x="155" y="710"/>
      <point x="53.3333" y="608.333"/>
      <point x="53.3333" y="350" type="curve" smooth="yes"/>
      <point x="53.3333" y="125.667"/>
      <point x="131.667" y="19"/>
      <point x="248.333" y="-3.33333" type="curve"/>
      <point x="248.333" y="-95.6667"/>
      <point x="311.667" y="-158.333"/>
    </contour>
    <contour>
      <point x="305" y="66.6667" type="curve" smooth="yes"/>
      <point x="233.333" y="66.6667"/>
      <point x="166.667" y="133"/>
      <point x="166.667" y="350" type="curve" smooth="yes"/>
      <point x="166.667" y="567"/>
      <point x="233.333" y="633.333"/>
      <point x="305" y="633.333" type="curve" smooth="yes"/>
      <point x="376.667" y="633.333"/>
      <point x="443.333" y="567"/>
      <point x="443.333" y="350" type="curve" smooth="yes"/>
      <point x="443.333" y="133"/>
      <point x="376.667" y="66.6667"/>
    </contour>
  </outline>
</glyph>
<glyph name="S" format="2">
  <advance width="515"/>
  <unicode hex="0053"/>
  <outline>
    <contour>
      <point x="243.333" y="-10" type="curve" smooth="yes"/>
      <point x="397.333" y="-10"/>
      <point x="480" y="71.6667"/>
      <point x="480" y="190" type="curve" smooth="yes"/>
      <point x="480" y="411.667"/>
      <point x="156.667" y="377"/>
      <point x="156.667" y="530" type="curve" smooth="yes"/>
      <point x="156.667" y="584.333"/>
      <point x="205.667" y="633.333"/>
      <point x="271.667" y="633.333" type="curve" smooth="yes"/>
      <point x="317.333" y="633.333"/>
      <point x="352.667" y="621.333"/>
      <point x="376.333" y="610.333" type="curve"/>
      <point x="390" y="603.333"/>
      <point x="402" y="596.333"/>
      <point x="411.667" y="588.333" type="curve"/>
      <point x="421.667" y="588.333" type="line"/>
      <point x="460" y="655" type="line"/>
      <point x="445.667" y="665"/>
      <point x="429.333" y="674"/>
      <point x="410" y="682" type="curve"/>
      <point x="376.333" y="697"/>
      <point x="327.667" y="710"/>
      <point x="261.667" y="710" type="curve" smooth="yes"/>
      <point x="124.333" y="710"/>
      <point x="43.3333" y="628.333"/>
      <point x="43.3333" y="520" type="curve" smooth="yes"/>
      <point x="43.3333" y="298.333"/>
      <point x="366.667" y="333"/>
      <point x="366.667" y="180" type="curve" smooth="yes"/>
      <point x="366.667" y="112.667"/>
      <point x="320.667" y="66.6667"/>
      <point x="233.333" y="66.6667" type="curve" smooth="yes"/>
      <point x="185.667" y="66.6667"/>
      <point x="148.667" y="77.6667"/>
      <point x="122.667" y="88.6667" type="curve"/>
      <point x="108" y="95.6667"/>
      <point x="94.6667" y="102.667"/>
      <point x="83.3333" y="111.667" type="curve"/>
      <point x="73.3333" y="111.667" type="line"/>
      <point x="35" y="45" type="line"/>
      <point x="49.6667" y="34"/>
      <point x="67.6667" y="25"/>
      <point x="88.6667" y="17" type="curve"/>
      <point x="124" y="2"/>
      <point x="175.667" y="-10"/>
    </contour>
  </outline>
</glyph>
<glyph name="W" format="2">
  <advance width="840"/>
  <unicode hex="0057"/>
  <outline>
    <contour>
      <point x="293" y="0" type="line"/>
      <point x="404.667" y="471.667" type="line" smooth="yes"/>
      <point x="406.54" y="480.617"/>
      <point x="411.412" y="510.115"/>
      <point x="412.667" y="519.667" type="curve" smooth="yes"/>
      <point x="416" y="546.667" type="line"/>
      <point x="420" y="546.667" type="line"/>
      <point x="423.333" y="519.667" type="line"/>
      <point x="425.667" y="504.667"/>
      <point x="427.667" y="485.667"/>
      <point x="431.333" y="471.667" type="curve" smooth="yes"/>
      <point x="543" y="0" type="line"/>
      <point x="652.333" y="0" type="line"/>
      <point x="819" y="700" type="line"/>
      <point x="717" y="700" type="line"/>
      <point x="607" y="226.667" type="line" smooth="yes"/>
      <point x="603.333" y="212.333"/>
      <point x="602.667" y="194.667"/>
      <point x="599.667" y="179.667" type="curve" smooth="yes"/>
      <point x="598.228" y="172.559"/>
      <point x="597.781" y="161.201"/>
      <point x="597.667" y="153.333" type="curve"/>
      <point x="593.667" y="153.333" type="line"/>
      <point x="591" y="179.667" type="line"/>
      <point x="588.667" y="194.667"/>
      <point x="586.667" y="212.333"/>
      <point x="583.667" y="226.667" type="curve"/>
      <point x="470" y="700" type="line"/>
      <point x="372.667" y="700" type="line"/>
      <point x="259" y="226.667" type="line" smooth="yes"/>
      <point x="255.333" y="212.333"/>
      <point x="254" y="194.667"/>
      <point x="251.667" y="179.667" type="curve"/>
      <point x="249" y="153.333" type="line"/>
      <point x="245" y="153.333" type="line"/>
      <point x="244.885" y="161.203"/>
      <point x="243.77" y="172.577"/>
      <point x="243" y="179.667" type="curve" smooth="yes"/>
      <point x="241.333" y="194.667"/>
      <point x="238.667" y="212.333"/>
      <point x="235.667" y="226.667" type="curve" smooth="yes"/>
      <point x="125.667" y="700" type="line"/>
      <point x="19" y="700" type="line"/>
      <point x="185.667" y="0" type="line"/>
    </contour>
  </outline>
</glyph>
<glyph name="X" format="2">
  <advance width="540"/>
  <unicode hex="0058"/>
  <outline>
    <contour>
      <point x="136.667" y="0" type="line"/>
      <point x="251.667" y="231.667" type="line" smooth="yes"/>
      <point x="255.546" y="239.304"/>
      <point x="260.447" y="252.673"/>
      <point x="263" y="261" type="curve" smooth="yes"/>
      <point x="268" y="276.667" type="line"/>
      <point x="272" y="276.667" type="line"/>
      <point x="277" y="261" type="line" smooth="yes"/>
      <point x="280" y="252"/>
      <point x="283.333" y="240.667"/>
      <point x="288.333" y="231.667" type="curve"/>
      <point x="403.333" y="0" type="line"/>
      <point x="526.667" y="0" type="line"/>
      <point x="345" y="355" type="line"/>
      <point x="521.667" y="700" type="line"/>
      <point x="398.333" y="700" type="line"/>
      <point x="288.333" y="478.333" type="line" smooth="yes"/>
      <point x="283.333" y="468.667"/>
      <point x="280" y="458"/>
      <point x="277" y="449" type="curve" smooth="yes"/>
      <point x="272" y="433.333" type="line"/>
      <point x="268" y="433.333" type="line"/>
      <point x="263" y="449" type="line" smooth="yes"/>
      <point x="260.496" y="456.511"/>
      <point x="254.856" y="470.765"/>
      <point x="251.667" y="478.333" type="curve"/>
      <point x="141.667" y="700" type="line"/>
      <point x="18.3333" y="700" type="line"/>
      <point x="195" y="355" type="line"/>
      <point x="13.3333" y="0" type="line"/>
    </contour>
  </outline>
</glyph>
<glyph name="Z" format="2">
  <advance width="498"/>
  <unicode hex="005A"/>
  <outline>
    <contour>
      <point x="470" y="0" type="line"/>
      <point x="470" y="76.6667" type="line"/>
      <point x="161.667" y="76.6667" type="line"/>
      <point x="465" y="618.333" type="line"/>
      <point x="465" y="700" type="line"/>
      <point x="28.3333" y="700" type="line"/>
      <point x="28.3333" y="623.333" type="line"/>
      <point x="331.667" y="623.333" type="line"/>
      <point x="28.3333" y="81.6667" type="line"/>
      <point x="28.3333" y="0" type="line"/>
    </contour>
  </outline>
</glyph>
<glyph name="bracketright" format="2">
  <advance width="318"/>
  <unicode hex="005D"/>
  <outline>
    <contour>
      <point x="230" y="-170" type="line"/>
      <point x="230" y="730" type="line"/>
      <point x="16.6667" y="730" type="line"/>
      <point x="16.6667" y="653.333" type="line"/>
      <point x="116.667" y="653.333" type="line"/>
      <point x="116.667" y="-93.3333" type="line"/>
      <point x="16.6667" y="-93.3333" type="line"/>
      <point x="16.6667" y="-170" type="line"/>
    </contour>
  </outline>
</glyph>
<glyph name="asciicircum" format="2">
  <advance width="443"/>
  <unicode hex="005E"/>
  <outline>
    <contour>
      <point x="110" y="440" type="line"/>
      <point x="221.667" y="613.333" type="line"/>
      <point x="333.333" y="440" type="line"/>
      <point x="443.333" y="440" type="line"/>
      <point x="261.667" y="720" type="line"/>
      <point x="181.667" y="720" type="line"/>
      <point x="0" y="440" type="line"/>
    </contour>
  </outline>
</glyph>
<glyph name="grave" format="2">
  <advance width="183"/>
  <unicode hex="0060"/>
  <outline>
    <contour>
      <point x="173.333" y="550" type="line"/>
      <point x="128.333" y="700" type="line"/>
      <point x="10" y="700" type="line"/>
      <point x="103.333" y="550" type="line"/>
    </contour>
  </outline>
</glyph>
<glyph name="b" format="2">
  <advance width="543"/>
  <unicode hex="0062"/>
  <outline>
    <contour>
      <point x="310" y="-10" type="curve" smooth="yes"/>
      <point x="411.667" y="-10"/>
      <point x="496.667" y="75"/>
      <point x="496.667" y="250" type="curve" smooth="yes"/>
      <point x="496.667" y="425"/>
      <point x="411.667" y="510"/>
      <point x="293.333" y="510" type="curve" smooth="yes"/>
      <point x="262.333" y="510"/>
      <point x="236" y="502"/>
      <point x="217" y="495" type="curve"/>
      <point x="205.333" y="490"/>
      <point x="195" y="485"/>
      <point x="186.667" y="480" type="curve"/>
      <point x="186.667" y="700" type="line"/>
      <point x="106.667" y="700" type="line"/>
      <point x="73.3333" y="666.667" type="line"/>
      <point x="73.3333" y="0" type="line"/>
      <point x="153.333" y="0" type="line"/>
      <point x="163.333" y="60" type="line"/>
      <point x="168.333" y="60" type="line"/>
      <point x="177.333" y="47"/>
      <point x="189.333" y="35"/>
      <point x="203" y="25" type="curve"/>
      <point x="226.667" y="6"/>
      <point x="261" y="-10"/>
    </contour>
    <contour>
      <point x="285" y="71.6667" type="curve" smooth="yes"/>
      <point x="255" y="71.6667"/>
      <point x="231.667" y="86.6667"/>
      <point x="214" y="101.667" type="curve"/>
      <point x="204" y="110.667"/>
      <point x="195" y="120.667"/>
      <point x="186.667" y="131.667" type="curve"/>
      <point x="186.667" y="410" type="line"/>
      <point x="193.086" y="413.442"/>
      <point x="203.733" y="418.761"/>
      <point x="211.667" y="421.667" type="curve" smooth="yes"/>
      <point x="227.333" y="427.333"/>
      <point x="248.667" y="433.333"/>
      <point x="275" y="433.333" type="curve" smooth="yes"/>
      <point x="336" y="433.333"/>
      <point x="383.333" y="386.667"/>
      <point x="383.333" y="250" type="curve" smooth="yes"/>
      <point x="383.333" y="118.333"/>
      <point x="337.333" y="71.6667"/>
    </contour>
  </outline>
</glyph>
<glyph name="c" format="2">
  <advance width="462"/>
  <unicode hex="0063"/>
  <outline>
    <contour>
      <point x="275" y="-10" type="curve" smooth="yes"/>
      <point x="326" y="-10"/>
      <point x="366" y="2"/>
      <point x="395.667" y="16.3333" type="curve"/>
      <point x="412.667" y="24"/>
      <point x="428" y="33"/>
      <point x="441.667" y="43.3333" type="curve"/>
      <point x="403.333" y="110" type="line"/>
      <point x="393.333" y="110" type="line"/>
      <point x="384" y="101.667"/>
      <point x="373.667" y="94.6667"/>
      <point x="362" y="88" type="curve" smooth="yes"/>
      <point x="342.333" y="77"/>
      <point x="316.333" y="66.6667"/>
      <point x="285" y="66.6667" type="curve" smooth="yes"/>
      <point x="206.667" y="66.6667"/>
      <point x="160" y="113.333"/>
      <point x="160" y="250" type="curve" smooth="yes"/>
      <point x="160" y="386.667"/>
      <point x="207.667" y="433.333"/>
      <point x="275" y="433.333" type="curve" smooth="yes"/>
      <point x="306.333" y="433.333"/>
      <point x="332.333" y="422.333"/>
      <point x="352" y="411.333" type="curve" smooth="yes"/>
      <point x="363.667" y="404.667"/>
      <point x="374" y="397.667"/>
      <point x="383.333" y="390" type="curve"/>
      <point x="393.333" y="390" type="line"/>
      <point x="431.667" y="456.667" type="line"/>
      <point x="418" y="466.333"/>
      <point x="402.667" y="475.333"/>
      <point x="385.667" y="483" type="curve" smooth="yes"/>
      <point x="356" y="497"/>
      <point x="316" y="510"/>
      <point x="265" y="510" type="curve" smooth="yes"/>
      <point x="131.333" y="510"/>
      <point x="46.6667" y="425.333"/>
      <point x="46.6667" y="250" type="curve" smooth="yes"/>
      <point x="46.6667" y="74.6667"/>
      <point x="131.333" y="-10"/>
    </contour>
  </outline>
</glyph>
<glyph name="e" format="2">
  <advance width="510"/>
  <unicode hex="0065"/>
  <outline>
    <contour>
      <point x="276.667" y="-10" type="curve" smooth="yes"/>
      <point x="327.667" y="-10"/>
      <point x="367.667" y="2"/>
      <point x="397.333" y="16.3333" type="curve"/>
      <point x="414.333" y="24"/>
      <point x="429.667" y="33"/>
      <point x="443.333" y="43.3333" type="curve"/>
      <point x="405" y="110" type="line"/>
      <point x="395" y="110" type="line"/>
      <point x="385.667" y="101.667"/>
      <point x="375.333" y="94.6667"/>
      <point x="363.667" y="88" type="curve" smooth="yes"/>
      <point x="344" y="77"/>
      <point x="318" y="66.6667"/>
      <point x="286.667" y="66.6667" type="curve" smooth="yes"/>
      <point x="206.667" y="66.6667"/>
      <point x="160" y="114"/>
      <point x="160" y="211.667" type="curve"/>
      <point x="443.333" y="211.667" type="line"/>
      <point x="466.667" y="235" type="line"/>
      <point x="466.667" y="253.333" type="line" smooth="yes"/>
      <point x="466.667" y="425"/>
      <point x="381.667" y="510"/>
      <point x="256.667" y="510" type="curve" smooth="yes"/>
      <point x="131.667" y="510"/>
      <point x="46.6667" y="425"/>
      <point x="46.6667" y="250" type="curve" smooth="yes"/>
      <point x="46.6667" y="75.6667"/>
      <point x="131" y="-10"/>
    </contour>
    <contour>
      <point x="160" y="288.333" type="line"/>
      <point x="160" y="390.667"/>
      <point x="203.333" y="433.333"/>
      <point x="256.667" y="433.333" type="curve" smooth="yes"/>
      <point x="310" y="433.333"/>
      <point x="353.333" y="390.667"/>
      <point x="353.333" y="288.333" type="curve"/>
    </contour>
  </outline>
</glyph>
<glyph name="f" format="2">
  <advance width="348"/>
  <unicode hex="0066"/>
  <outline>
    <contour>
      <point x="195" y="0" type="line"/>
      <point x="195" y="423.333" type="line"/>
      <point x="326.667" y="423.333" type="line"/>
      <point x="326.667" y="500" type="line"/>
      <point x="195" y="500" type="line"/>
      <point x="195" y="546.667" type="line" smooth="yes"/>
      <point x="195" y="603.667"/>
      <point x="225" y="633.333"/>
      <point x="266.667" y="633.333" type="curve" smooth="yes"/>
      <point x="289.667" y="633.333"/>
      <point x="311" y="622.333"/>
      <point x="327.667" y="611.333" type="curve" smooth="yes"/>
      <point x="337.333" y="604.667"/>
      <point x="346.333" y="597.667"/>
      <point x="355" y="590" type="curve"/>
      <point x="365" y="590" type="line"/>
      <point x="403.333" y="656.667" type="line"/>
      <point x="390.667" y="666.333"/>
      <point x="376.333" y="675.333"/>
      <point x="361" y="683" type="curve" smooth="yes"/>
      <point x="333.667" y="697"/>
      <point x="298.667" y="710"/>
      <point x="256.667" y="710" type="curve" smooth="yes"/>
      <point x="148.333" y="710"/>
      <point x="81.6667" y="644"/>
      <point x="81.6667" y="546.667" type="curve" smooth="yes"/>
      <point x="81.6667" y="500" type="line"/>
      <point x="20" y="500" type="line"/>
      <point x="20" y="423.333" type="line"/>
      <point x="81.6667" y="423.333" type="line"/>
      <point x="81.6667" y="0" type="line"/>
    </contour>
  </outline>
</glyph>
<glyph name="g" format="2">
  <advance width="543"/>
  <unicode hex="0067"/>
  <outline>
    <contour>
      <point x="248.333" y="-210" type="curve" smooth="yes"/>
      <point x="388.333" y="-210"/>
      <point x="470" y="-128.333"/>
      <point x="470" y="-10" type="curve" smooth="yes"/>
      <point x="470" y="500" type="line"/>
      <point x="390" y="500" type="line"/>
      <point x="380" y="440" type="line"/>
      <point x="375" y="440" type="line"/>
      <point x="365.667" y="453"/>
      <point x="354" y="464"/>
      <point x="340.333" y="475" type="curve"/>
      <point x="316.667" y="492"/>
      <point x="282.333" y="510"/>
      <point x="233.333" y="510" type="curve" smooth="yes"/>
      <point x="131.667" y="510"/>
      <point x="46.6667" y="425"/>
      <point x="46.6667" y="250" type="curve" smooth="yes"/>
      <point x="46.6667" y="75"/>
      <point x="131.667" y="-10"/>
      <point x="250" y="-10" type="curve" smooth="yes"/>
      <point x="281" y="-10"/>
      <point x="305.667" y="-3"/>
      <point x="325.333" y="5" type="curve"/>
      <point x="336.667" y="9"/>
      <point x="347" y="14"/>
      <point x="356.667" y="20" type="curve"/>
      <point x="356.667" y="-10" type="line" smooth="yes"/>
      <point x="356.667" y="-94.3333"/>
      <point x="316.667" y="-133.333"/>
      <point x="238.333" y="-133.333" type="curve" smooth="yes"/>
      <point x="206" y="-133.333"/>
      <point x="179" y="-123"/>
      <point x="159.333" y="-112" type="curve" smooth="yes"/>
      <point x="147.667" y="-105.333"/>
      <point x="137" y="-98.3333"/>
      <point x="128.333" y="-90" type="curve"/>
      <point x="118.333" y="-90" type="line"/>
      <point x="80" y="-156.667" type="line"/>
      <point x="93.3333" y="-167"/>
      <point x="108.667" y="-176"/>
      <point x="126" y="-183.667" type="curve"/>
      <point x="155.667" y="-198"/>
      <point x="196.667" y="-210"/>
    </contour>
    <contour>
      <point x="268.333" y="66.6667" type="curve" smooth="yes"/>
      <point x="207.333" y="66.6667"/>
      <point x="160" y="113.333"/>
      <point x="160" y="250" type="curve" smooth="yes"/>
      <point x="160" y="381.667"/>
      <point x="206" y="428.333"/>
      <point x="258.333" y="428.333" type="curve" smooth="yes"/>
      <point x="288" y="428.333"/>
      <point x="311.667" y="413.333"/>
      <point x="329.333" y="398.333" type="curve"/>
      <point x="339.333" y="389.333"/>
      <point x="348.333" y="379.333"/>
      <point x="356.667" y="368.333" type="curve"/>
      <point x="356.667" y="90" type="line"/>
      <point x="349" y="85.3333"/>
      <point x="340.667" y="81.6667"/>
      <point x="331.667" y="78.3333" type="curve" smooth="yes"/>
      <point x="316" y="72.3333"/>
      <point x="294" y="66.6667"/>
    </contour>
  </outline>
</glyph>
<glyph name="h" format="2">
  <advance width="555"/>
  <unicode hex="0068"/>
  <outline>
    <contour>
      <point x="186.667" y="0" type="line"/>
      <point x="186.667" y="368.333" type="line"/>
      <point x="195" y="379.333"/>
      <point x="204" y="389.333"/>
      <point x="214" y="398.333" type="curve"/>
      <point x="231.667" y="413.333"/>
      <point x="255" y="428.333"/>
      <point x="285" y="428.333" type="curve" smooth="yes"/>
      <point x="337.333" y="428.333"/>
      <point x="373.333" y="392.333"/>
      <point x="373.333" y="333.333" type="curve" smooth="yes"/>
      <point x="373.333" y="0" type="line"/>
      <point x="486.667" y="0" type="line"/>
      <point x="486.667" y="333.333" type="line" smooth="yes"/>
      <point x="486.667" y="440.333"/>
      <point x="417" y="510"/>
      <point x="310" y="510" type="curve" smooth="yes"/>
      <point x="269.667" y="510"/>
      <point x="240" y="497.333"/>
      <point x="218.333" y="485.667" type="curve" smooth="yes"/>
      <point x="206" y="478.667"/>
      <point x="195.333" y="470.333"/>
      <point x="186.667" y="461.667" type="curve"/>
      <point x="186.667" y="700" type="line"/>
      <point x="106.667" y="700" type="line"/>
      <point x="73.3333" y="666.667" type="line"/>
      <point x="73.3333" y="0" type="line"/>
    </contour>
  </outline>
</glyph>
<glyph name="i" format="2">
  <advance width="260"/>
  <unicode hex="0069"/>
  <outline>
    <contour>
      <point x="186.667" y="0" type="line"/>
      <point x="186.667" y="500" type="line"/>
      <point x="73.3333" y="500" type="line"/>
      <point x="73.3333" y="0" type="line"/>
    </contour>
    <contour>
      <point x="130" y="575" type="curve" smooth="yes"/>
      <point x="166.667" y="575"/>
      <point x="195" y="603.333"/>
      <point x="195" y="640" type="curve" smooth="yes"/>
      <point x="195" y="676.667"/>
      <point x="166.667" y="705"/>
      <point x="130" y="705" type="curve" smooth="yes"/>
      <point x="93.3333" y="705"/>
      <point x="65" y="676.667"/>
      <point x="65" y="640" type="curve" smooth="yes"/>
      <point x="65" y="603.333"/>
      <point x="93.3333" y="575"/>
    </contour>
  </outline>
</glyph>
<glyph name="j" format="2">
  <advance width="267"/>
  <unicode hex="006A"/>
  <outline>
    <contour>
      <point x="18.3333" y="-200" type="curve" smooth="yes"/>
      <point x="126.667" y="-200"/>
      <point x="193.333" y="-134"/>
      <point x="193.333" y="-36.6667" type="curve" smooth="yes"/>
      <point x="193.333" y="500" type="line"/>
      <point x="80" y="500" type="line"/>
      <point x="80" y="-36.6667" type="line" smooth="yes"/>
      <point x="80" y="-95.3333"/>
      <point x="51.6667" y="-123.333"/>
      <point x="8.33333" y="-123.333" type="curve" smooth="yes"/>
      <point x="-6.66667" y="-123.333"/>
      <point x="-19.6667" y="-118.333"/>
      <point x="-30.6667" y="-111.333" type="curve"/>
      <point x="-36.6667" y="-108.333"/>
      <point x="-41.6667" y="-103.333"/>
      <point x="-46.6667" y="-98.3333" type="curve"/>
      <point x="-56.6667" y="-98.3333" type="line"/>
      <point x="-85" y="-170" type="line"/>
      <point x="-77.3333" y="-176"/>
      <point x="-67.6667" y="-181"/>
      <point x="-56.3333" y="-185" type="curve"/>
      <point x="-38.3333" y="-193"/>
      <point x="-12.6667" y="-200"/>
    </contour>
    <contour>
      <point x="136.667" y="575" type="curve" smooth="yes"/>
      <point x="173.333" y="575"/>
      <point x="201.667" y="603.333"/>
      <point x="201.667" y="640" type="curve" smooth="yes"/>
      <point x="201.667" y="676.667"/>
      <point x="173.333" y="705"/>
      <point x="136.667" y="705" type="curve" smooth="yes"/>
      <point x="100" y="705"/>
      <point x="71.6667" y="676.667"/>
      <point x="71.6667" y="640" type="curve" smooth="yes"/>
      <point x="71.6667" y="603.333"/>
      <point x="100" y="575"/>
    </contour>
  </outline>
</glyph>
<glyph name="k" format="2">
  <advance width="490"/>
  <unicode hex="006B"/>
  <outline>
    <contour>
      <point x="186.667" y="0" type="line"/>
      <point x="186.667" y="245" type="line"/>
      <point x="353.333" y="0" type="line"/>
      <point x="481.667" y="0" type="line"/>
      <point x="298.333" y="260" type="line"/>
      <point x="471.667" y="500" type="line"/>
      <point x="343.333" y="500" type="line"/>
      <point x="186.667" y="275" type="line"/>
      <point x="186.667" y="700" type="line"/>
      <point x="106.667" y="700" type="line"/>
      <point x="73.3333" y="666.667" type="line"/>
      <point x="73.3333" y="0" type="line"/>
    </contour>
  </outline>
</glyph>
<glyph name="p" format="2">
  <advance width="543"/>
  <unicode hex="0070"/>
  <outline>
    <contour>
      <point x="153.333" y="-200" type="line"/>
      <point x="186.667" y="-166.667" type="line"/>
      <point x="186.667" y="20" type="line"/>
      <point x="195" y="14"/>
      <point x="205.333" y="9"/>
      <point x="217" y="5" type="curve"/>
      <point x="236" y="-3"/>
      <point x="262.333" y="-10"/>
      <point x="293.333" y="-10" type="curve" smooth="yes"/>
      <point x="411.667" y="-10"/>
      <point x="496.667" y="75"/>
      <point x="496.667" y="250" type="curve" smooth="yes"/>
      <point x="496.667" y="425"/>
      <point x="411.667" y="510"/>
      <point x="310" y="510" type="curve" smooth="yes"/>
      <point x="261" y="510"/>
      <point x="226.667" y="492"/>
      <point x="203" y="475" type="curve"/>
      <point x="189.333" y="464"/>
      <point x="177.333" y="453"/>
      <point x="168.333" y="440" type="curve"/>
      <point x="163.333" y="440" type="line"/>
      <point x="153.333" y="500" type="line"/>
      <point x="73.3333" y="500" type="line"/>
      <point x="73.3333" y="-200" type="line"/>
    </contour>
    <contour>
      <point x="275" y="66.6667" type="curve" smooth="yes"/>
      <point x="248.667" y="66.6667"/>
      <point x="227.333" y="72.3333"/>
      <point x="211.667" y="78.3333" type="curve" smooth="yes"/>
      <point x="202.667" y="81.6667"/>
      <point x="194.333" y="85.3333"/>
      <point x="186.667" y="90" type="curve"/>
      <point x="186.667" y="368.333" type="line"/>
      <point x="195" y="379.333"/>
      <point x="204" y="389.333"/>
      <point x="214" y="398.333" type="curve"/>
      <point x="231.667" y="413.333"/>
      <point x="255" y="428.333"/>
      <point x="285" y="428.333" type="curve" smooth="yes"/>
      <point x="337.333" y="428.333"/>
      <point x="383.333" y="381.667"/>
      <point x="383.333" y="250" type="curve" smooth="yes"/>
      <point x="383.333" y="113.333"/>
      <point x="336" y="66.6667"/>
    </contour>
  </outline>
</glyph>
<glyph name="r" format="2">
  <advance width="375"/>
  <unicode hex="0072"/>
  <outline>
    <contour>
      <point x="186.667" y="0" type="line"/>
      <point x="186.667" y="363.333" type="line"/>
      <point x="195" y="374.333"/>
      <point x="203.333" y="384.333"/>
      <point x="213.333" y="393.333" type="curve"/>
      <point x="231" y="408.333"/>
      <point x="253.667" y="423.333"/>
      <point x="281.667" y="423.333" type="curve" smooth="yes"/>
      <point x="297.333" y="423.333"/>
      <point x="314" y="421.333"/>
      <point x="327" y="418.333" type="curve"/>
      <point x="334" y="416.333"/>
      <point x="341.333" y="414.333"/>
      <point x="348.333" y="413.333" type="curve"/>
      <point x="358.333" y="413.333" type="line"/>
      <point x="375" y="500" type="line"/>
      <point x="370.252" y="500.881"/>
      <point x="359.129" y="503.773"/>
      <point x="354.333" y="505" type="curve" smooth="yes"/>
      <point x="341.333" y="508"/>
      <point x="323.667" y="510"/>
      <point x="306.667" y="510" type="curve" smooth="yes"/>
      <point x="259.667" y="510"/>
      <point x="225.333" y="492"/>
      <point x="202.333" y="475" type="curve"/>
      <point x="189.333" y="464"/>
      <point x="177.333" y="453"/>
      <point x="168.333" y="440" type="curve"/>
      <point x="163.333" y="440" type="line"/>
      <point x="153.333" y="500" type="line"/>
      <point x="73.3333" y="500" type="line"/>
      <point x="73.3333" y="0" type="line"/>
    </contour>
  </outline>
</glyph>
<glyph name="s" format="2">
  <advance width="468"/>
  <unicode hex="0073"/>
  <outline>
    <contour>
      <point x="225" y="-10" type="curve" smooth="yes"/>
      <point x="373.333" y="-10"/>
      <point x="435" y="51.6667"/>
      <point x="435" y="142" type="curve" smooth="yes"/>
      <point x="435" y="311.333"/>
      <point x="156.667" y="272.667"/>
      <point x="156.667" y="373.333" type="curve" smooth="yes"/>
      <point x="156.667" y="405"/>
      <point x="184" y="433.333"/>
      <point x="250" y="433.333" type="curve" smooth="yes"/>
      <point x="285.667" y="433.333"/>
      <point x="316" y="422.333"/>
      <point x="337.667" y="411.333" type="curve" smooth="yes"/>
      <point x="350" y="404.667"/>
      <point x="361" y="397.667"/>
      <point x="371.667" y="390" type="curve"/>
      <point x="381.667" y="390" type="line"/>
      <point x="420" y="456.667" type="line"/>
      <point x="406" y="466.333"/>
      <point x="389.333" y="475.333"/>
      <point x="371.333" y="483" type="curve" smooth="yes"/>
      <point x="339" y="497"/>
      <point x="296" y="510"/>
      <point x="240" y="510" type="curve" smooth="yes"/>
      <point x="104.333" y="510"/>
      <point x="43.3333" y="448.333"/>
      <point x="43.3333" y="363.333" type="curve" smooth="yes"/>
      <point x="43.3333" y="193.333"/>
      <point x="321.667" y="233.667"/>
      <point x="321.667" y="132" type="curve" smooth="yes"/>
      <point x="321.667" y="95"/>
      <point x="293.667" y="66.6667"/>
      <point x="213.333" y="66.6667" type="curve" smooth="yes"/>
      <point x="172.333" y="66.6667"/>
      <point x="140" y="77"/>
      <point x="117" y="88" type="curve"/>
      <point x="104" y="94.6667"/>
      <point x="92" y="101.667"/>
      <point x="81.6667" y="110" type="curve"/>
      <point x="71.6667" y="110" type="line"/>
      <point x="33.3333" y="43.3333" type="line"/>
      <point x="47.6667" y="33"/>
      <point x="64.6667" y="24"/>
      <point x="83.6667" y="16.3333" type="curve"/>
      <point x="116.333" y="2"/>
      <point x="165" y="-10"/>
    </contour>
  </outline>
</glyph>
<glyph name="t" format="2">
  <advance width="405"/>
  <unicode hex="0074"/>
  <outline>
    <contour>
      <point x="261.667" y="-10" type="curve" smooth="yes"/>
      <point x="301.667" y="-10"/>
      <point x="337.333" y="2"/>
      <point x="363.333" y="15" type="curve"/>
      <point x="378.667" y="22"/>
      <point x="392.333" y="31"/>
      <point x="405" y="40" type="curve"/>
      <point x="366.667" y="106.667" type="line"/>
      <point x="356.667" y="106.667" type="line"/>
      <point x="348.667" y="99.6667"/>
      <point x="339.667" y="92.6667"/>
      <point x="330.667" y="86.6667" type="curve" smooth="yes"/>
      <point x="314.667" y="75.6667"/>
      <point x="294.667" y="66.6667"/>
      <point x="271.667" y="66.6667" type="curve" smooth="yes"/>
      <point x="231.333" y="66.6667"/>
      <point x="203.333" y="94.6667"/>
      <point x="203.333" y="153.333" type="curve" smooth="yes"/>
      <point x="203.333" y="423.333" type="line"/>
      <point x="325" y="423.333" type="line"/>
      <point x="325" y="500" type="line"/>
      <point x="203.333" y="500" type="line"/>
      <point x="203.333" y="620" type="line"/>
      <point x="155" y="620" type="line"/>
      <point x="18.3333" y="483.333" type="line"/>
      <point x="18.3333" y="423.333" type="line"/>
      <point x="90" y="423.333" type="line"/>
      <point x="90" y="153.333" type="line" smooth="yes"/>
      <point x="90" y="56"/>
      <point x="156.333" y="-10"/>
    </contour>
  </outline>
</glyph>
<glyph name="u" format="2">
  <advance width="560"/>
  <unicode hex="0075"/>
  <outline>
    <contour>
      <point x="250" y="-10" type="curve" smooth="yes"/>
      <point x="299" y="-10"/>
      <point x="333.333" y="6"/>
      <point x="357" y="25" type="curve"/>
      <point x="370.667" y="35"/>
      <point x="382.333" y="47"/>
      <point x="391.667" y="60" type="curve"/>
      <point x="396.667" y="60" type="line"/>
      <point x="406.667" y="0" type="line"/>
      <point x="486.667" y="0" type="line"/>
      <point x="486.667" y="500" type="line"/>
      <point x="373.333" y="500" type="line"/>
      <point x="373.333" y="131.667" type="line"/>
      <point x="365" y="120.667"/>
      <point x="356" y="110.667"/>
      <point x="346" y="101.667" type="curve"/>
      <point x="328.333" y="86.6667"/>
      <point x="304.667" y="71.6667"/>
      <point x="275" y="71.6667" type="curve" smooth="yes"/>
      <point x="222.667" y="71.6667"/>
      <point x="186.667" y="107.667"/>
      <point x="186.667" y="166.667" type="curve" smooth="yes"/>
      <point x="186.667" y="500" type="line"/>
      <point x="73.3333" y="500" type="line"/>
      <point x="73.3333" y="166.667" type="line" smooth="yes"/>
      <point x="73.3333" y="59.6667"/>
      <point x="143" y="-10"/>
    </contour>
  </outline>
</glyph>
<glyph name="v" format="2">
  <advance width="477"/>
  <unicode hex="0076"/>
  <outline>
    <contour>
      <point x="289" y="0" type="line"/>
      <point x="450.667" y="500" type="line"/>
      <point x="352.333" y="500" type="line"/>
      <point x="252.333" y="176.667" type="line" smooth="yes"/>
      <point x="248" y="163"/>
      <point x="246" y="148"/>
      <point x="243.667" y="134.333" type="curve"/>
      <point x="241" y="111.667" type="line"/>
      <point x="237" y="111.667" type="line"/>
      <point x="234.333" y="134.333" type="line"/>
      <point x="232" y="148"/>
      <point x="230" y="163"/>
      <point x="225.667" y="176.667" type="curve" smooth="yes"/>
      <point x="125.667" y="500" type="line"/>
      <point x="21.6667" y="500" type="line"/>
      <point x="183.333" y="0" type="line"/>
    </contour>
  </outline>
</glyph>
<glyph name="x" format="2">
  <advance width="470"/>
  <unicode hex="0078"/>
  <outline>
    <contour>
      <point x="135" y="0" type="line"/>
      <point x="216.667" y="141.667" type="line"/>
      <point x="221.667" y="151.333"/>
      <point x="226.333" y="159.667"/>
      <point x="229" y="168" type="curve"/>
      <point x="230.667" y="172.667"/>
      <point x="232.333" y="176.667"/>
      <point x="233" y="181.667" type="curve"/>
      <point x="237" y="181.667" type="line"/>
      <point x="237.667" y="176.667"/>
      <point x="239.333" y="172.667"/>
      <point x="241" y="168" type="curve" smooth="yes"/>
      <point x="244" y="159.333"/>
      <point x="247.667" y="151.333"/>
      <point x="253.333" y="141.667" type="curve" smooth="yes"/>
      <point x="335" y="0" type="line"/>
      <point x="456.667" y="0" type="line"/>
      <point x="303.333" y="255" type="line"/>
      <point x="451.667" y="500" type="line"/>
      <point x="330" y="500" type="line"/>
      <point x="253.333" y="363.333" type="line"/>
      <point x="247.667" y="354.333"/>
      <point x="244.667" y="344.333"/>
      <point x="241.667" y="336.667" type="curve"/>
      <point x="240.497" y="333.049"/>
      <point x="237.492" y="325.481"/>
      <point x="237" y="323.333" type="curve"/>
      <point x="233" y="323.333" type="line"/>
      <point x="232.508" y="325.481"/>
      <point x="229.503" y="333.049"/>
      <point x="228.333" y="336.667" type="curve"/>
      <point x="225.333" y="344.333"/>
      <point x="221" y="354.333"/>
      <point x="216.667" y="363.333" type="curve"/>
      <point x="140" y="500" type="line"/>
      <point x="18.3333" y="500" type="line"/>
      <point x="166.667" y="255" type="line"/>
      <point x="13.3333" y="0" type="line"/>
    </contour>
  </outline>
</glyph>
<glyph name="asciitilde" format="2">
  <advance width="493"/>
  <unicode hex="007E"/>
  <outline>
    <contour>
      <point x="334.667" y="238.333" type="curve" smooth="yes"/>
      <point x="401.333" y="238.333"/>
      <point x="451.667" y="291.333"/>
      <point x="469.333" y="340" type="curve"/>
      <point x="407.333" y="395" type="line"/>
      <point x="398.333" y="395" type="line"/>
      <point x="398.333" y="395"/>
      <point x="372.333" y="338.333"/>
      <point x="328" y="338.333" type="curve" smooth="yes"/>
      <point x="268.667" y="338.333"/>
      <point x="242.333" y="405"/>
      <point x="158" y="405" type="curve" smooth="yes"/>
      <point x="91.6667" y="405"/>
      <point x="40.3333" y="352"/>
      <point x="23.3333" y="303.333" type="curve"/>
      <point x="85.3333" y="248.333" type="line"/>
      <point x="94.3333" y="248.333" type="line"/>
      <point x="94.3333" y="248.333"/>
      <point x="120.333" y="305"/>
      <point x="164.667" y="305" type="curve" smooth="yes"/>
      <point x="223.333" y="305"/>
      <point x="251" y="238.333"/>
    </contour>
  </outline>
</glyph>
<glyph name="exclamdown" format="2">
  <advance width="290"/>
  <unicode hex="00A1"/>
  <outline>
    <contour>
      <point x="211.667" y="-200" type="line"/>
      <point x="191.667" y="313.333" type="line"/>
      <point x="98.3333" y="313.333" type="line"/>
      <point x="78.3333" y="-200" type="line"/>
    </contour>
    <contour>
      <point x="145" y="380" type="curve" smooth="yes"/>
      <point x="181.667" y="380"/>
      <point x="210" y="408.333"/>
      <point x="210" y="445" type="curve" smooth="yes"/>
      <point x="210" y="481.667"/>
      <point x="181.667" y="510"/>
      <point x="145" y="510" type="curve" smooth="yes"/>
      <point x="108.333" y="510"/>
      <point x="80" y="481.667"/>
      <point x="80" y="445" type="curve" smooth="yes"/>
      <point x="80" y="408.333"/>
      <point x="108.333" y="380"/>
    </contour>
  </outline>
</glyph>
<glyph name="sterling" format="2">
  <advance width="485"/>
  <unicode hex="00A3"/>
  <outline>
    <contour>
      <point x="475" y="0" type="line"/>
      <point x="475" y="76.6667" type="line"/>
      <point x="145" y="76.6667" type="line"/>
      <point x="158" y="84.3333"/>
      <point x="169.667" y="96"/>
      <point x="180.667" y="110.667" type="curve"/>
      <point x="198.333" y="136.667"/>
      <point x="216.667" y="177.333"/>
      <point x="216.667" y="246.667" type="curve" smooth="yes"/>
      <point x="216.667" y="326.667" type="line"/>
      <point x="348.333" y="326.667" type="line"/>
      <point x="348.333" y="403.333" type="line"/>
      <point x="216.667" y="403.333" type="line"/>
      <point x="216.667" y="540" type="line" smooth="yes"/>
      <point x="216.667" y="597"/>
      <point x="251.667" y="633.333"/>
      <point x="295" y="633.333" type="curve" smooth="yes"/>
      <point x="329" y="633.333"/>
      <point x="356.333" y="621.333"/>
      <point x="375.333" y="610.333" type="curve"/>
      <point x="386.333" y="603.333"/>
      <point x="396.667" y="596.333"/>
      <point x="405" y="588.333" type="curve"/>
      <point x="415" y="588.333" type="line"/>
      <point x="453.333" y="655" type="line"/>
      <point x="441.333" y="665"/>
      <point x="426.667" y="674"/>
      <point x="410" y="682" type="curve"/>
      <point x="381" y="697"/>
      <point x="339.667" y="710"/>
      <point x="285" y="710" type="curve" smooth="yes"/>
      <point x="178.333" y="710"/>
      <point x="103.333" y="636"/>
      <point x="103.333" y="540" type="curve" smooth="yes"/>
      <point x="103.333" y="403.333" type="line"/>
      <point x="41.6667" y="403.333" type="line"/>
      <point x="41.6667" y="326.667" type="line"/>
      <point x="103.333" y="326.667" type="line"/>
      <point x="103.333" y="246.667" type="line" smooth="yes"/>
      <point x="103.333" y="174.667"/>
      <point x="84.3333" y="132.667"/>
      <point x="65.3333" y="108" type="curve" smooth="yes"/>
      <point x="54.3333" y="93.3333"/>
      <point x="41.3333" y="83"/>
      <point x="28.3333" y="76.6667" type="curve"/>
      <point x="28.3333" y="0" type="line"/>
    </contour>
  </outline>
</glyph>
<glyph name="currency" format="2">
  <advance width="583"/>
  <unicode hex="00A4"/>
  <outline>
    <contour>
      <point x="210" y="0" type="line"/>
      <point x="210" y="165" type="line"/>
      <point x="456.667" y="165" type="line"/>
      <point x="456.667" y="230" type="line"/>
      <point x="210" y="230" type="line"/>
      <point x="210" y="271.667" type="line"/>
      <point x="283.333" y="271.667" type="line" smooth="yes"/>
      <point x="460.333" y="271.667"/>
      <point x="540" y="351"/>
      <point x="540" y="480" type="curve" smooth="yes"/>
      <point x="540" y="617.667"/>
      <point x="457.333" y="700"/>
      <point x="283.333" y="700" type="curve" smooth="yes"/>
      <point x="96.6667" y="700" type="line"/>
      <point x="96.6667" y="336.667" type="line"/>
      <point x="20" y="336.667" type="line"/>
      <point x="20" y="271.667" type="line"/>
      <point x="96.6667" y="271.667" type="line"/>
      <point x="96.6667" y="230" type="line"/>
      <point x="20" y="230" type="line"/>
      <point x="20" y="165" type="line"/>
      <point x="96.6667" y="165" type="line"/>
      <point x="96.6667" y="0" type="line"/>
    </contour>
    <contour>
      <point x="210" y="623.333" type="line"/>
      <point x="283.333" y="623.333" type="line" smooth="yes"/>
      <point x="379" y="623.333"/>
      <point x="426.667" y="575.667"/>
      <point x="426.667" y="480" type="curve" smooth="yes"/>
      <point x="426.667" y="384.333"/>
      <point x="379" y="336.667"/>
      <point x="283.333" y="336.667" type="curve" smooth="yes"/>
      <point x="210" y="336.667" type="line"/>
    </contour>
  </outline>
</glyph>
<glyph name="yen" format="2">
  <advance width="543"/>
  <unicode hex="00A5"/>
  <outline>
    <contour>
      <point x="328.333" y="0" type="line"/>
      <point x="328.333" y="176.667" type="line"/>
      <point x="475" y="176.667" type="line"/>
      <point x="475" y="251.667" type="line"/>
      <point x="339.333" y="251.667" type="line"/>
      <point x="362.667" y="303.333" type="line"/>
      <point x="475" y="303.333" type="line"/>
      <point x="475" y="378.333" type="line"/>
      <point x="395.667" y="378.333" type="line"/>
      <point x="543.333" y="700" type="line"/>
      <point x="425" y="700" type="line"/>
      <point x="290" y="398.333" type="line"/>
      <point x="283.667" y="386"/>
      <point x="281" y="373.333"/>
      <point x="278" y="362.333" type="curve" smooth="yes"/>
      <point x="276.498" y="356.824"/>
      <point x="274.497" y="348.818"/>
      <point x="273.667" y="343.333" type="curve"/>
      <point x="269.667" y="343.333" type="line"/>
      <point x="268.836" y="348.818"/>
      <point x="266.835" y="356.824"/>
      <point x="265.333" y="362.333" type="curve" smooth="yes"/>
      <point x="262.832" y="371.837"/>
      <point x="257.231" y="387.974"/>
      <point x="253.333" y="398.333" type="curve"/>
      <point x="118.333" y="700" type="line"/>
      <point x="0" y="700" type="line"/>
      <point x="147.667" y="378.333" type="line"/>
      <point x="68.3333" y="378.333" type="line"/>
      <point x="68.3333" y="303.333" type="line"/>
      <point x="180.667" y="303.333" type="line"/>
      <point x="204" y="251.667" type="line"/>
      <point x="68.3333" y="251.667" type="line"/>
      <point x="68.3333" y="176.667" type="line"/>
      <point x="215" y="176.667" type="line"/>
      <point x="215" y="0" type="line"/>
    </contour>
  </outline>
</glyph>
<glyph name="brokenbar" format="2">
  <advance width="290"/>
  <unicode hex="00A6"/>
  <outline>
    <contour>
      <point x="201.667" y="316.667" type="line"/>
      <point x="201.667" y="700" type="line"/>
      <point x="88.3333" y="700" type="line"/>
      <point x="88.3333" y="316.667" type="line"/>
    </contour>
    <contour>
      <point x="201.667" y="-200" type="line"/>
      <point x="201.667" y="183.333" type="line"/>
      <point x="88.3333" y="183.333" type="line"/>
      <point x="88.3333" y="-200" type="line"/>
    </contour>
  </outline>
</glyph>
<glyph name="dieresis" format="2">
  <advance width="322"/>
  <unicode hex="00A8"/>
  <outline>
    <contour>
      <point x="251.667" y="566.667" type="curve" smooth="yes"/>
      <point x="285.333" y="566.667"/>
      <point x="311.667" y="593"/>
      <point x="311.667" y="626.667" type="curve" smooth="yes"/>
      <point x="311.667" y="660.333"/>
      <point x="285.333" y="686.667"/>
      <point x="251.667" y="686.667" type="curve" smooth="yes"/>
      <point x="218" y="686.667"/>
      <point x="191.667" y="660.333"/>
      <point x="191.667" y="626.667" type="curve" smooth="yes"/>
      <point x="191.667" y="593"/>
      <point x="218" y="566.667"/>
    </contour>
    <contour>
      <point x="70" y="566.667" type="curve" smooth="yes"/>
      <point x="103.667" y="566.667"/>
      <point x="130" y="593"/>
      <point x="130" y="626.667" type="curve" smooth="yes"/>
      <point x="130" y="660.333"/>
      <point x="103.667" y="686.667"/>
      <point x="70" y="686.667" type="curve" smooth="yes"/>
      <point x="36.3333" y="686.667"/>
      <point x="10" y="660.333"/>
      <point x="10" y="626.667" type="curve" smooth="yes"/>
      <point x="10" y="593"/>
      <point x="36.3333" y="566.667"/>
    </contour>
  </outline>
</glyph>
<glyph name="copyright" format="2">
  <advance width="877"/>
  <unicode hex="00A9"/>
  <outline>
    <contour>
      <point x="438.333" y="-33.3333" type="curve" smooth="yes"/>
      <point x="671.667" y="-33.3333"/>
      <point x="836.667" y="131.333"/>
      <point x="836.667" y="350" type="curve" smooth="yes"/>
      <point x="836.667" y="568.667"/>
      <point x="671.667" y="733.333"/>
      <point x="438.333" y="733.333" type="curve" smooth="yes"/>
      <point x="205" y="733.333"/>
      <point x="40" y="568.667"/>
      <point x="40" y="350" type="curve" smooth="yes"/>
      <point x="40" y="131.333"/>
      <point x="205" y="-33.3333"/>
    </contour>
    <contour>
      <point x="455" y="125" type="curve" smooth="yes"/>
      <point x="498" y="125"/>
      <point x="535.333" y="137"/>
      <point x="561" y="150" type="curve"/>
      <point x="576.333" y="157"/>
      <point x="589.667" y="166"/>
      <point x="601.667" y="175" type="curve"/>
      <point x="568.333" y="230" type="line"/>
      <point x="559.333" y="230" type="line"/>
      <point x="550.333" y="223"/>
      <point x="541.333" y="217"/>
      <point x="531" y="212" type="curve" smooth="yes"/>
      <point x="512.667" y="203"/>
      <point x="490" y="195"/>
      <point x="465" y="195" type="curve" smooth="yes"/>
      <point x="399" y="195"/>
      <point x="355" y="240"/>
      <point x="355" y="350" type="curve" smooth="yes"/>
      <point x="355" y="460"/>
      <point x="400" y="505"/>
      <point x="455" y="505" type="curve" smooth="yes"/>
      <point x="480" y="505"/>
      <point x="502.667" y="496"/>
      <point x="521" y="487" type="curve" smooth="yes"/>
      <point x="531.333" y="482"/>
      <point x="540.333" y="476"/>
      <point x="549.333" y="470" type="curve"/>
      <point x="558.333" y="470" type="line"/>
      <point x="591.667" y="525" type="line"/>
      <point x="579.667" y="534"/>
      <point x="566.333" y="543"/>
      <point x="551" y="550" type="curve" smooth="yes"/>
      <point x="525.333" y="562"/>
      <point x="488" y="575"/>
      <point x="445" y="575" type="curve" smooth="yes"/>
      <point x="334" y="575"/>
      <point x="255" y="496.667"/>
      <point x="255" y="350" type="curve" smooth="yes"/>
      <point x="255" y="202.667"/>
      <point x="332.667" y="125"/>
    </contour>
    <contour>
      <point x="438.333" y="43.3333" type="curve" smooth="yes"/>
      <point x="268" y="43.3333"/>
      <point x="140" y="171.667"/>
      <point x="140" y="350" type="curve" smooth="yes"/>
      <point x="140" y="528.333"/>
      <point x="268" y="656.667"/>
      <point x="438.333" y="656.667" type="curve" smooth="yes"/>
      <point x="608.667" y="656.667"/>
      <point x="736.667" y="528.333"/>
      <point x="736.667" y="350" type="curve" smooth="yes"/>
      <point x="736.667" y="171.667"/>
      <point x="608.667" y="43.3333"/>
    </contour>
  </outline>
</glyph>
<glyph name="ordfeminine" format="2">
  <advance width="367"/>
  <unicode hex="00AA"/>
  <outline>
    <contour>
      <point x="152.333" y="350" type="curve" smooth="yes"/>
      <point x="182.333" y="350"/>
      <point x="205.667" y="361.667"/>
      <point x="221" y="374" type="curve" smooth="yes"/>
      <point x="230" y="381"/>
      <point x="237.333" y="389.333"/>
      <point x="243.333" y="398.333" type="curve"/>
      <point x="248.333" y="398.333" type="line"/>
      <point x="254.333" y="360" type="line"/>
      <point x="331.667" y="360" type="line"/>
      <point x="331.667" y="586.667" type="line" smooth="yes"/>
      <point x="331.667" y="660.667"/>
      <point x="282.667" y="710"/>
      <point x="185" y="710" type="curve" smooth="yes"/>
      <point x="145" y="710"/>
      <point x="112" y="698"/>
      <point x="90" y="687" type="curve" smooth="yes"/>
      <point x="76.6667" y="680"/>
      <point x="65" y="673"/>
      <point x="55.3333" y="665" type="curve"/>
      <point x="84.6667" y="615" type="line"/>
      <point x="94.6667" y="615" type="line"/>
      <point x="99.0695" y="619.063"/>
      <point x="108.699" y="625.78"/>
      <point x="114.667" y="630" type="curve"/>
      <point x="127" y="637"/>
      <point x="145.333" y="645"/>
      <point x="168.333" y="645" type="curve" smooth="yes"/>
      <point x="208.333" y="645"/>
      <point x="231.667" y="622.333"/>
      <point x="231.667" y="586.667" type="curve" smooth="yes"/>
      <point x="231.667" y="565" type="line"/>
      <point x="188.333" y="565" type="line" smooth="yes"/>
      <point x="76" y="565"/>
      <point x="31.6667" y="520"/>
      <point x="31.6667" y="455" type="curve" smooth="yes"/>
      <point x="31.6667" y="395"/>
      <point x="76.3333" y="350"/>
    </contour>
    <contour>
      <point x="176.667" y="416.667" type="curve" smooth="yes"/>
      <point x="147" y="416.667"/>
      <point x="130" y="433.333"/>
      <point x="130" y="456.667" type="curve" smooth="yes"/>
      <point x="130" y="484"/>
      <point x="148.333" y="500"/>
      <point x="188.333" y="500" type="curve" smooth="yes"/>
      <point x="231.667" y="500" type="line"/>
      <point x="231.667" y="445" type="line"/>
      <point x="227" y="439.333"/>
      <point x="222.333" y="434.333"/>
      <point x="216" y="430.667" type="curve"/>
      <point x="206" y="423"/>
      <point x="192" y="416.667"/>
    </contour>
  </outline>
</glyph>
<glyph name="logicalnot" format="2">
  <advance width="473"/>
  <unicode hex="00AC"/>
  <outline>
    <contour>
      <point x="441.667" y="236.667" type="line"/>
      <point x="441.667" y="413.333" type="line"/>
      <point x="31.6667" y="413.333" type="line"/>
      <point x="31.6667" y="326.667" type="line"/>
      <point x="345" y="326.667" type="line"/>
      <point x="345" y="236.667" type="line"/>
    </contour>
  </outline>
</glyph>
<glyph name="softhyphen" format="2">
  <advance width="447"/>
  <unicode hex="00AD"/>
  <outline>
    <contour>
      <point x="415" y="286.667" type="line"/>
      <point x="415" y="373.333" type="line"/>
      <point x="31.6667" y="373.333" type="line"/>
      <point x="31.6667" y="286.667" type="line"/>
    </contour>
  </outline>
</glyph>
<glyph name="registered" format="2">
  <advance width="877"/>
  <unicode hex="00AE"/>
  <outline>
    <contour>
      <point x="438.333" y="-33.3333" type="curve" smooth="yes"/>
      <point x="671.667" y="-33.3333"/>
      <point x="836.667" y="131.333"/>
      <point x="836.667" y="350" type="curve" smooth="yes"/>
      <point x="836.667" y="568.667"/>
      <point x="671.667" y="733.333"/>
      <point x="438.333" y="733.333" type="curve" smooth="yes"/>
      <point x="205" y="733.333"/>
      <point x="40" y="568.667"/>
      <point x="40" y="350" type="curve" smooth="yes"/>
      <point x="40" y="131.333"/>
      <point x="205" y="-33.3333"/>
    </contour>
    <contour>
      <point x="438.333" y="43.3333" type="curve" smooth="yes"/>
      <point x="268" y="43.3333"/>
      <point x="140" y="171.667"/>
      <point x="140" y="350" type="curve" smooth="yes"/>
      <point x="140" y="528.333"/>
      <point x="268" y="656.667"/>
      <point x="438.333" y="656.667" type="curve" smooth="yes"/>
      <point x="608.667" y="656.667"/>
      <point x="736.667" y="528.333"/>
      <point x="736.667" y="350" type="curve" smooth="yes"/>
      <point x="736.667" y="171.667"/>
      <point x="608.667" y="43.3333"/>
    </contour>
    <contour>
      <point x="383.333" y="135" type="line"/>
      <point x="383.333" y="281.667" type="line"/>
      <point x="437" y="281.667" type="line"/>
      <point x="522.333" y="135" type="line"/>
      <point x="629" y="135" type="line"/>
      <point x="530.667" y="298.333" type="line"/>
      <point x="578" y="313.333"/>
      <point x="617.333" y="356.333"/>
      <point x="617.333" y="423.333" type="curve" smooth="yes"/>
      <point x="617.333" y="508.333"/>
      <point x="561" y="565"/>
      <point x="434" y="565" type="curve" smooth="yes"/>
      <point x="283.333" y="565" type="line"/>
      <point x="283.333" y="135" type="line"/>
    </contour>
    <contour>
      <point x="383.333" y="495" type="line"/>
      <point x="434" y="495" type="line" smooth="yes"/>
      <point x="494.333" y="495"/>
      <point x="518" y="470.667"/>
      <point x="518" y="423.333" type="curve" smooth="yes"/>
      <point x="518" y="376"/>
      <point x="494.333" y="351.667"/>
      <point x="434" y="351.667" type="curve" smooth="yes"/>
      <point x="383.333" y="351.667" type="line"/>
    </contour>
  </outline>
</glyph>
<glyph name="plusminus" format="2">
  <advance width="493"/>
  <unicode hex="00B1"/>
  <outline>
    <contour>
      <point x="455" y="88.3333" type="line"/>
      <point x="455" y="175" type="line"/>
      <point x="290" y="175" type="line"/>
      <point x="290" y="306.667" type="line"/>
      <point x="455" y="306.667" type="line"/>
      <point x="455" y="393.333" type="line"/>
      <point x="290" y="393.333" type="line"/>
      <point x="290" y="558.333" type="line"/>
      <point x="203.333" y="558.333" type="line"/>
      <point x="203.333" y="393.333" type="line"/>
      <point x="38.3333" y="393.333" type="line"/>
      <point x="38.3333" y="306.667" type="line"/>
      <point x="203.333" y="306.667" type="line"/>
      <point x="203.333" y="175" type="line"/>
      <point x="38.3333" y="175" type="line"/>
      <point x="38.3333" y="88.3333" type="line"/>
    </contour>
  </outline>
</glyph>
<glyph name="twosuperior" format="2">
  <advance width="338"/>
  <unicode hex="00B2"/>
  <outline>
    <contour>
      <point x="303.333" y="360" type="line"/>
      <point x="303.333" y="426.667" type="line"/>
      <point x="135" y="426.667" type="line"/>
      <point x="135" y="484.333"/>
      <point x="303.333" y="482.667"/>
      <point x="303.333" y="595" type="curve" smooth="yes"/>
      <point x="303.333" y="660"/>
      <point x="253.667" y="710"/>
      <point x="168.333" y="710" type="curve" smooth="yes"/>
      <point x="128.333" y="710"/>
      <point x="95.3333" y="698"/>
      <point x="73.3333" y="687" type="curve" smooth="yes"/>
      <point x="60" y="680"/>
      <point x="48.3333" y="673"/>
      <point x="38.6667" y="665" type="curve"/>
      <point x="68" y="613.333" type="line"/>
      <point x="78" y="613.333" type="line"/>
      <point x="82.4386" y="617.42"/>
      <point x="91.322" y="624.083"/>
      <point x="97.3333" y="628.333" type="curve"/>
      <point x="109.667" y="635.333"/>
      <point x="128" y="643.333"/>
      <point x="150.333" y="643.333" type="curve" smooth="yes"/>
      <point x="186" y="643.333"/>
      <point x="203.333" y="626.333"/>
      <point x="203.333" y="595" type="curve" smooth="yes"/>
      <point x="203.333" y="530.667"/>
      <point x="35" y="535.333"/>
      <point x="35" y="406.667" type="curve" smooth="yes"/>
      <point x="35" y="360" type="line"/>
    </contour>
  </outline>
</glyph>
<glyph name="threesuperior" format="2">
  <advance width="334"/>
  <unicode hex="00B3"/>
  <outline>
    <contour>
      <point x="154.667" y="350" type="curve" smooth="yes"/>
      <point x="248.667" y="350"/>
      <point x="299.333" y="401.667"/>
      <point x="299.333" y="460" type="curve" smooth="yes"/>
      <point x="299.333" y="522"/>
      <point x="254" y="566.667"/>
      <point x="175.333" y="568.333" type="curve"/>
      <point x="280.333" y="628.333" type="line"/>
      <point x="280.333" y="700" type="line"/>
      <point x="41" y="700" type="line"/>
      <point x="41" y="633.333" type="line"/>
      <point x="182" y="633.333" type="line"/>
      <point x="67" y="560" type="line"/>
      <point x="67" y="506.667" type="line"/>
      <point x="133" y="506.667" type="line" smooth="yes"/>
      <point x="178.667" y="506.667"/>
      <point x="196" y="489"/>
      <point x="196" y="461.667" type="curve" smooth="yes"/>
      <point x="196" y="434.333"/>
      <point x="177.667" y="416.667"/>
      <point x="138" y="416.667" type="curve" smooth="yes"/>
      <point x="115" y="416.667"/>
      <point x="96.6667" y="423.667"/>
      <point x="84.3333" y="431.667" type="curve"/>
      <point x="77.3333" y="435.667"/>
      <point x="70" y="440.667"/>
      <point x="64.3333" y="446.667" type="curve"/>
      <point x="54.3333" y="446.667" type="line"/>
      <point x="25" y="395" type="line"/>
      <point x="34.6667" y="386"/>
      <point x="46.3333" y="379"/>
      <point x="59.6667" y="372" type="curve" smooth="yes"/>
      <point x="81.6667" y="361"/>
      <point x="114.667" y="350"/>
    </contour>
  </outline>
</glyph>
<glyph name="micro" format="2">
  <advance width="560"/>
  <unicode hex="00B5"/>
  <outline>
    <contour>
      <point x="153.333" y="-200" type="line"/>
      <point x="186.667" y="-166.667" type="line"/>
      <point x="186.667" y="20" type="line"/>
      <point x="193.333" y="14"/>
      <point x="201" y="9"/>
      <point x="209.333" y="5" type="curve"/>
      <point x="223.333" y="-3"/>
      <point x="243.333" y="-10"/>
      <point x="266.667" y="-10" type="curve" smooth="yes"/>
      <point x="304.667" y="-10"/>
      <point x="336" y="5.33333"/>
      <point x="357.667" y="21.6667" type="curve" smooth="yes"/>
      <point x="370" y="31"/>
      <point x="382" y="41.6667"/>
      <point x="391.667" y="53.3333" type="curve"/>
      <point x="396.667" y="53.3333" type="line"/>
      <point x="406.667" y="0" type="line"/>
      <point x="486.667" y="0" type="line"/>
      <point x="486.667" y="500" type="line"/>
      <point x="373.333" y="500" type="line"/>
      <point x="373.333" y="125" type="line"/>
      <point x="365" y="115.333"/>
      <point x="356" y="106"/>
      <point x="346" y="98.3333" type="curve" smooth="yes"/>
      <point x="328.333" y="84.6667"/>
      <point x="304.667" y="71.6667"/>
      <point x="275" y="71.6667" type="curve" smooth="yes"/>
      <point x="222.667" y="71.6667"/>
      <point x="186.667" y="107.667"/>
      <point x="186.667" y="166.667" type="curve" smooth="yes"/>
      <point x="186.667" y="500" type="line"/>
      <point x="73.3333" y="500" type="line"/>
      <point x="73.3333" y="-200" type="line"/>
    </contour>
  </outline>
</glyph>
<glyph name="periodcentered" format="2">
  <advance width="293"/>
  <unicode hex="00B7"/>
  <outline>
    <contour>
      <point x="146.667" y="285" type="curve" smooth="yes"/>
      <point x="183.333" y="285"/>
      <point x="211.667" y="313.333"/>
      <point x="211.667" y="350" type="curve" smooth="yes"/>
      <point x="211.667" y="386.667"/>
      <point x="183.333" y="415"/>
      <point x="146.667" y="415" type="curve" smooth="yes"/>
      <point x="110" y="415"/>
      <point x="81.6667" y="386.667"/>
      <point x="81.6667" y="350" type="curve" smooth="yes"/>
      <point x="81.6667" y="313.333"/>
      <point x="110" y="285"/>
    </contour>
  </outline>
</glyph>
<glyph name="onehalf" format="2">
  <advance width="768"/>
  <unicode hex="00BD"/>
  <outline>
    <contour>
      <point x="228.333" y="0" type="line"/>
      <point x="698.333" y="700" type="line"/>
      <point x="575" y="700" type="line"/>
      <point x="105" y="0" type="line"/>
    </contour>
    <contour>
      <point x="293.333" y="360" type="line"/>
      <point x="293.333" y="426.667" type="line"/>
      <point x="220" y="426.667" type="line"/>
      <point x="220" y="700" type="line"/>
      <point x="130" y="700" type="line"/>
      <point x="31.6667" y="620" type="line"/>
      <point x="63.3333" y="573.333" type="line"/>
      <point x="120" y="605" type="line"/>
      <point x="120" y="426.667" type="line"/>
      <point x="46.6667" y="426.667" type="line"/>
      <point x="46.6667" y="360" type="line"/>
    </contour>
    <contour>
      <point x="730" y="0" type="line"/>
      <point x="730" y="66.6667" type="line"/>
      <point x="561.667" y="66.6667" type="line"/>
      <point x="561.667" y="124.333"/>
      <point x="730" y="122.667"/>
      <point x="730" y="235" type="curve" smooth="yes"/>
      <point x="730" y="300"/>
      <point x="680.333" y="350"/>
      <point x="595" y="350" type="curve" smooth="yes"/>
      <point x="555" y="350"/>
      <point x="522" y="338"/>
      <point x="500" y="327" type="curve" smooth="yes"/>
      <point x="486.667" y="320"/>
      <point x="475" y="313"/>
      <point x="465.333" y="305" type="curve"/>
      <point x="494.667" y="253.333" type="line"/>
      <point x="504.667" y="253.333" type="line"/>
      <point x="509.105" y="257.42"/>
      <point x="517.989" y="264.083"/>
      <point x="524" y="268.333" type="curve"/>
      <point x="536.333" y="275.333"/>
      <point x="554.667" y="283.333"/>
      <point x="577" y="283.333" type="curve" smooth="yes"/>
      <point x="612.667" y="283.333"/>
      <point x="630" y="266.333"/>
      <point x="630" y="235" type="curve" smooth="yes"/>
      <point x="630" y="170.667"/>
      <point x="461.667" y="175.333"/>
      <point x="461.667" y="46.6667" type="curve" smooth="yes"/>
      <point x="461.667" y="0" type="line"/>
    </contour>
  </outline>
</glyph>
<glyph name="AE" format="2">
  <advance width="825"/>
  <unicode hex="00C6"/>
  <outline>
    <contour>
      <point x="91.6667" y="0" type="line"/>
      <point x="175" y="196.667" type="line"/>
      <point x="396.667" y="196.667" type="line"/>
      <point x="396.667" y="0" type="line"/>
      <point x="796.667" y="0" type="line"/>
      <point x="796.667" y="76.6667" type="line"/>
      <point x="510" y="76.6667" type="line"/>
      <point x="510" y="326.667" type="line"/>
      <point x="736.667" y="326.667" type="line"/>
      <point x="736.667" y="403.333" type="line"/>
      <point x="510" y="403.333" type="line"/>
      <point x="510" y="623.333" type="line"/>
      <point x="796.667" y="623.333" type="line"/>
      <point x="796.667" y="700" type="line"/>
      <point x="273.333" y="700" type="line"/>
      <point x="-21.6667" y="0" type="line"/>
    </contour>
    <contour>
      <point x="353.333" y="623.333" type="line"/>
      <point x="396.667" y="623.333" type="line"/>
      <point x="396.667" y="273.333" type="line"/>
      <point x="208.333" y="273.333" type="line"/>
    </contour>
  </outline>
</glyph>
<glyph name="multiply" format="2">
  <advance width="438"/>
  <unicode hex="00D7"/>
  <outline>
    <contour>
      <point x="219.333" y="268.667" type="line"/>
      <point x="335" y="153" type="line"/>
      <point x="396.333" y="213.667" type="line"/>
      <point x="280" y="330" type="line"/>
      <point x="396.333" y="446.333" type="line"/>
      <point x="335" y="507" type="line"/>
      <point x="219.333" y="391.333" type="line"/>
      <point x="103" y="507" type="line"/>
      <point x="41.6667" y="446.333" type="line"/>
      <point x="158" y="330" type="line"/>
      <point x="41.6667" y="213.667" type="line"/>
      <point x="103" y="153" type="line"/>
    </contour>
  </outline>
</glyph>
<glyph name="Thorn" format="2">
  <advance width="625"/>
  <unicode hex="00DE"/>
  <outline>
    <contour>
      <point x="201.667" y="-20" type="line"/>
      <point x="201.667" y="56.6667" type="line"/>
      <point x="285" y="56.6667" type="line" smooth="yes"/>
      <point x="474.667" y="56.6667"/>
      <point x="581.667" y="164"/>
      <point x="581.667" y="350" type="curve" smooth="yes"/>
      <point x="581.667" y="536"/>
      <point x="474.667" y="643.333"/>
      <point x="285" y="643.333" type="curve" smooth="yes"/>
      <point x="201.667" y="643.333" type="line"/>
      <point x="201.667" y="720" type="line"/>
      <point x="88.3333" y="720" type="line"/>
      <point x="88.3333" y="-20" type="line"/>
    </contour>
    <contour>
      <point x="201.667" y="566.667" type="line"/>
      <point x="285" y="566.667" type="line" smooth="yes"/>
      <point x="395.667" y="566.667"/>
      <point x="468.333" y="493.333"/>
      <point x="468.333" y="350" type="curve" smooth="yes"/>
      <point x="468.333" y="206.667"/>
      <point x="395.667" y="133.333"/>
      <point x="285" y="133.333" type="curve" smooth="yes"/>
      <point x="201.667" y="133.333" type="line"/>
    </contour>
  </outline>
</glyph>
<glyph name="ae" format="2">
  <advance width="795"/>
  <unicode hex="00E6"/>
  <outline>
    <contour>
      <point x="215" y="-10" type="curve" smooth="yes"/>
      <point x="290.333" y="-10"/>
      <point x="350.667" y="23.6667"/>
      <point x="391.333" y="67.3333" type="curve"/>
      <point x="427.333" y="19.6667"/>
      <point x="486.333" y="-10"/>
      <point x="561.667" y="-10" type="curve" smooth="yes"/>
      <point x="620.667" y="-10"/>
      <point x="681.333" y="7.33333"/>
      <point x="728.333" y="43.3333" type="curve"/>
      <point x="690" y="110" type="line"/>
      <point x="680" y="110" type="line"/>
      <point x="651.333" y="84"/>
      <point x="610.333" y="66.6667"/>
      <point x="571.667" y="66.6667" type="curve" smooth="yes"/>
      <point x="497.667" y="66.6667"/>
      <point x="451.667" y="114"/>
      <point x="451.667" y="211.667" type="curve"/>
      <point x="728.333" y="211.667" type="line"/>
      <point x="751.667" y="235" type="line"/>
      <point x="751.667" y="253.333" type="line" smooth="yes"/>
      <point x="751.667" y="425"/>
      <point x="666.667" y="510"/>
      <point x="545" y="510" type="curve" smooth="yes"/>
      <point x="481.333" y="510"/>
      <point x="433.667" y="480.333"/>
      <point x="400" y="440" type="curve"/>
      <point x="373" y="480.333"/>
      <point x="325.667" y="510"/>
      <point x="246.667" y="510" type="curve" smooth="yes"/>
      <point x="188" y="510"/>
      <point x="127.333" y="491.333"/>
      <point x="80" y="456.667" type="curve"/>
      <point x="118.333" y="390" type="line"/>
      <point x="128.333" y="390" type="line"/>
      <point x="157" y="415.333"/>
      <point x="198.667" y="433.333"/>
      <point x="236.667" y="433.333" type="curve" smooth="yes"/>
      <point x="301.667" y="433.333"/>
      <point x="338.333" y="397"/>
      <point x="338.333" y="320" type="curve" smooth="yes"/>
      <point x="338.333" y="298.333" type="line"/>
      <point x="261.667" y="298.333" type="line" smooth="yes"/>
      <point x="105" y="298.333"/>
      <point x="43.3333" y="237"/>
      <point x="43.3333" y="145" type="curve" smooth="yes"/>
      <point x="43.3333" y="50.6667"/>
      <point x="105" y="-10"/>
    </contour>
    <contour>
      <point x="240" y="71.6667" type="curve" smooth="yes"/>
      <point x="185" y="71.6667"/>
      <point x="156.667" y="99.3333"/>
      <point x="156.667" y="145" type="curve" smooth="yes"/>
      <point x="156.667" y="190"/>
      <point x="188.333" y="221.667"/>
      <point x="261.667" y="221.667" type="curve" smooth="yes"/>
      <point x="338.333" y="221.667" type="line"/>
      <point x="338.333" y="131.667" type="line"/>
      <point x="315.667" y="101.667"/>
      <point x="280" y="71.6667"/>
    </contour>
    <contour>
      <point x="451.667" y="288.333" type="line"/>
      <point x="451.667" y="389.333"/>
      <point x="495" y="433.333"/>
      <point x="545" y="433.333" type="curve" smooth="yes"/>
      <point x="595" y="433.333"/>
      <point x="638.333" y="389.333"/>
      <point x="638.333" y="288.333" type="curve"/>
    </contour>
  </outline>
</glyph>
<glyph name="igrave" format="2">
  <advance width="266"/>
  <unicode hex="00EC"/>
  <outline>
    <contour>
      <point x="193" y="0" type="line"/>
      <point x="193" y="500" type="line"/>
      <point x="79.6667" y="500" type="line"/>
      <point x="79.6667" y="0" type="line"/>
    </contour>
    <contour>
      <point x="178.333" y="550" type="line"/>
      <point x="133.333" y="700" type="line"/>
      <point x="15" y="700" type="line"/>
      <point x="108.333" y="550" type="line"/>
    </contour>
  </outline>
</glyph>
<glyph name="icircumflex" format="2">
  <advance width="270"/>
  <unicode hex="00EE"/>
  <outline>
    <contour>
      <point x="191.667" y="0" type="line"/>
      <point x="191.667" y="500" type="line"/>
      <point x="78.3333" y="500" type="line"/>
      <point x="78.3333" y="0" type="line"/>
    </contour>
    <contour>
      <point x="63.3333" y="560" type="line"/>
      <point x="135" y="626.667" type="line"/>
      <point x="206.667" y="560" type="line"/>
      <point x="281.667" y="560" type="line"/>
      <point x="175" y="691.333" type="line"/>
      <point x="95" y="691.333" type="line"/>
      <point x="-11.6667" y="560" type="line"/>
    </contour>
  </outline>
</glyph>
<glyph name="dcroat" format="2">
  <advance width="550"/>
  <unicode hex="0111"/>
  <outline>
    <contour>
      <point x="233.333" y="-10" type="curve" smooth="yes"/>
      <point x="282.333" y="-10"/>
      <point x="316.667" y="6"/>
      <point x="340.333" y="25" type="curve"/>
      <point x="354" y="35"/>
      <point x="365.667" y="47"/>
      <point x="375" y="60" type="curve"/>
      <point x="380" y="60" type="line"/>
      <point x="390" y="0" type="line"/>
      <point x="470" y="0" type="line"/>
      <point x="470" y="526.667" type="line"/>
      <point x="531.667" y="526.667" type="line"/>
      <point x="531.667" y="603.333" type="line"/>
      <point x="470" y="603.333" type="line"/>
      <point x="470" y="700" type="line"/>
      <point x="390" y="700" type="line"/>
      <point x="356.667" y="666.667" type="line"/>
      <point x="356.667" y="603.333" type="line"/>
      <point x="255" y="603.333" type="line"/>
      <point x="255" y="526.667" type="line"/>
      <point x="356.667" y="526.667" type="line"/>
      <point x="356.667" y="443.333" type="line"/>
      <point x="325.333" y="458.333" type="line"/>
      <point x="305.667" y="465.333"/>
      <point x="281" y="473.333"/>
      <point x="250" y="473.333" type="curve" smooth="yes"/>
      <point x="131.667" y="473.333"/>
      <point x="46.6667" y="389"/>
      <point x="46.6667" y="231.667" type="curve" smooth="yes"/>
      <point x="46.6667" y="74.3333"/>
      <point x="131.667" y="-10"/>
    </contour>
    <contour>
      <point x="258.333" y="71.6667" type="curve" smooth="yes"/>
      <point x="206" y="71.6667"/>
      <point x="160" y="118.667"/>
      <point x="160" y="231.667" type="curve" smooth="yes"/>
      <point x="160" y="350"/>
      <point x="206.667" y="396.667"/>
      <point x="268.333" y="396.667" type="curve" smooth="yes"/>
      <point x="294" y="396.667"/>
      <point x="316" y="390.667"/>
      <point x="331.667" y="385" type="curve" smooth="yes"/>
      <point x="339.601" y="382.095"/>
      <point x="350.248" y="376.776"/>
      <point x="356.667" y="373.333" type="curve"/>
      <point x="356.667" y="131.667" type="line"/>
      <point x="348.333" y="120.667"/>
      <point x="339.333" y="110.667"/>
      <point x="329.333" y="101.667" type="curve"/>
      <point x="311.667" y="86.6667"/>
      <point x="288" y="71.6667"/>
    </contour>
  </outline>
</glyph>
<glyph name="hbar" format="2">
  <advance width="565"/>
  <unicode hex="0127"/>
  <outline>
    <contour>
      <point x="198.333" y="0" type="line"/>
      <point x="198.333" y="308.333" type="line"/>
      <point x="206.667" y="319.333"/>
      <point x="215.667" y="329.333"/>
      <point x="225.667" y="338.333" type="curve"/>
      <point x="243.333" y="353.333"/>
      <point x="266.667" y="368.333"/>
      <point x="296.667" y="368.333" type="curve" smooth="yes"/>
      <point x="349" y="368.333"/>
      <point x="385" y="332.333"/>
      <point x="385" y="273.333" type="curve" smooth="yes"/>
      <point x="385" y="0" type="line"/>
      <point x="498.333" y="0" type="line"/>
      <point x="498.333" y="273.333" type="line" smooth="yes"/>
      <point x="498.333" y="380.333"/>
      <point x="428.667" y="450"/>
      <point x="321.667" y="450" type="curve" smooth="yes"/>
      <point x="281.333" y="450"/>
      <point x="251.667" y="437.333"/>
      <point x="230" y="425.667" type="curve" smooth="yes"/>
      <point x="217.667" y="418.667"/>
      <point x="207" y="410.333"/>
      <point x="198.333" y="401.667" type="curve"/>
      <point x="198.333" y="513.333" type="line"/>
      <point x="330" y="513.333" type="line"/>
      <point x="330" y="590" type="line"/>
      <point x="198.333" y="590" type="line"/>
      <point x="198.333" y="700" type="line"/>
      <point x="118.333" y="700" type="line"/>
      <point x="85" y="666.667" type="line"/>
      <point x="85" y="590" type="line"/>
      <point x="23.3333" y="590" type="line"/>
      <point x="23.3333" y="513.333" type="line"/>
      <point x="85" y="513.333" type="line"/>
      <point x="85" y="0" type="line"/>
    </contour>
  </outline>
</glyph>
<glyph name="imacron" format="2">
  <advance width="263"/>
  <unicode hex="012B"/>
  <outline>
    <contour>
      <point x="188.333" y="0" type="line"/>
      <point x="188.333" y="500" type="line"/>
      <point x="75" y="500" type="line"/>
      <point x="75" y="0" type="line"/>
    </contour>
    <contour>
      <point x="270" y="573.333" type="line"/>
      <point x="270" y="650" type="line"/>
      <point x="-6.66667" y="650" type="line"/>
      <point x="-6.66667" y="573.333" type="line"/>
    </contour>
  </outline>
</glyph>
<glyph name="jcircumflex" format="2">
  <advance width="278"/>
  <unicode hex="0135"/>
  <outline>
    <contour>
      <point x="31.6667" y="-200" type="curve" smooth="yes"/>
      <point x="140" y="-200"/>
      <point x="206.667" y="-134"/>
      <point x="206.667" y="-36.6667" type="curve" smooth="yes"/>
      <point x="206.667" y="500" type="line"/>
      <point x="93.3333" y="500" type="line"/>
      <point x="93.3333" y="-36.6667" type="line" smooth="yes"/>
      <point x="93.3333" y="-95.3333"/>
      <point x="65" y="-123.333"/>
      <point x="21.6667" y="-123.333" type="curve" smooth="yes"/>
      <point x="6.66667" y="-123.333"/>
      <point x="-6.33333" y="-118.333"/>
      <point x="-17.3333" y="-111.333" type="curve"/>
      <point x="-23.3333" y="-108.333"/>
      <point x="-28.3333" y="-103.333"/>
      <point x="-33.3333" y="-98.3333" type="curve"/>
      <point x="-43.3333" y="-98.3333" type="line"/>
      <point x="-71.6667" y="-170" type="line"/>
      <point x="-64" y="-176"/>
      <point x="-54.3333" y="-181"/>
      <point x="-43" y="-185" type="curve"/>
      <point x="-25" y="-193"/>
      <point x="0.666667" y="-200"/>
    </contour>
    <contour>
      <point x="71.3333" y="550" type="line"/>
      <point x="143" y="616.667" type="line"/>
      <point x="214.667" y="550" type="line"/>
      <point x="289.667" y="550" type="line"/>
      <point x="183" y="681.333" type="line"/>
      <point x="103" y="681.333" type="line"/>
      <point x="-3.66667" y="550" type="line"/>
    </contour>
  </outline>
</glyph>
<glyph name="Lcaron" format="2">
  <advance width="495"/>
  <unicode hex="013D"/>
  <outline>
    <contour>
      <point x="485" y="0" type="line"/>
      <point x="485" y="76.6667" type="line"/>
      <point x="201.667" y="76.6667" type="line"/>
      <point x="201.667" y="700" type="line"/>
      <point x="88.3333" y="700" type="line"/>
      <point x="88.3333" y="0" type="line"/>
    </contour>
    <contour>
      <point x="305" y="476" type="line"/>
      <point x="320.333" y="485.333"/>
      <point x="333.667" y="497.667"/>
      <point x="345.667" y="513" type="curve" smooth="yes"/>
      <point x="366" y="538.667"/>
      <point x="386.667" y="577.333"/>
      <point x="386.667" y="632.333" type="curve" smooth="yes"/>
      <point x="386.667" y="674"/>
      <point x="361" y="700"/>
      <point x="323.333" y="700" type="curve" smooth="yes"/>
      <point x="296" y="700"/>
      <point x="270" y="674.667"/>
      <point x="270" y="641.667" type="curve" smooth="yes"/>
      <point x="270" y="610.333"/>
      <point x="295.667" y="585"/>
      <point x="326.667" y="585" type="curve"/>
      <point x="326.667" y="564"/>
      <point x="313.667" y="545.667"/>
      <point x="300.667" y="530.667" type="curve" smooth="yes"/>
      <point x="293.333" y="522.333"/>
      <point x="284.333" y="515"/>
      <point x="275" y="508" type="curve"/>
    </contour>
  </outline>
</glyph>
<glyph name="Lslash" format="2">
  <advance width="485"/>
  <unicode hex="0141"/>
  <outline>
    <contour>
      <point x="474.667" y="0" type="line"/>
      <point x="474.667" y="76.6667" type="line"/>
      <point x="198" y="76.6667" type="line"/>
      <point x="198" y="347.667" type="line"/>
      <point x="303.333" y="426.667" type="line"/>
      <point x="303.333" y="543.333" type="line"/>
      <point x="198" y="464.333" type="line"/>
      <point x="198" y="700" type="line"/>
      <point x="84.6667" y="700" type="line"/>
      <point x="84.6667" y="380" type="line"/>
      <point x="21.6667" y="333.333" type="line"/>
      <point x="21.6667" y="216.667" type="line"/>
      <point x="84.6667" y="263.333" type="line"/>
      <point x="84.6667" y="0" type="line"/>
    </contour>
  </outline>
</glyph>
<glyph name="oe" format="2">
  <advance width="828"/>
  <unicode hex="0153"/>
  <outline>
    <contour>
      <point x="263.333" y="-10" type="curve" smooth="yes"/>
      <point x="337.667" y="-10"/>
      <point x="386.667" y="15"/>
      <point x="424" y="66.6667" type="curve"/>
      <point x="463.333" y="15"/>
      <point x="525" y="-10"/>
      <point x="595" y="-10" type="curve" smooth="yes"/>
      <point x="654" y="-10"/>
      <point x="714.667" y="7.33333"/>
      <point x="761.667" y="43.3333" type="curve"/>
      <point x="723.333" y="110" type="line"/>
      <point x="713.333" y="110" type="line"/>
      <point x="684.667" y="84"/>
      <point x="643.667" y="66.6667"/>
      <point x="605" y="66.6667" type="curve" smooth="yes"/>
      <point x="531" y="66.6667"/>
      <point x="485" y="114"/>
      <point x="485" y="211.667" type="curve"/>
      <point x="761.667" y="211.667" type="line"/>
      <point x="785" y="235" type="line"/>
      <point x="785" y="253.333" type="line" smooth="yes"/>
      <point x="785" y="425"/>
      <point x="700" y="510"/>
      <point x="578.333" y="510" type="curve" smooth="yes"/>
      <point x="512.333" y="510"/>
      <point x="460" y="478.333"/>
      <point x="423.333" y="433.333" type="curve"/>
      <point x="386.667" y="478.333"/>
      <point x="334" y="510"/>
      <point x="263.333" y="510" type="curve" smooth="yes"/>
      <point x="131.667" y="510"/>
      <point x="46.6667" y="425.333"/>
      <point x="46.6667" y="250" type="curve" smooth="yes"/>
      <point x="46.6667" y="74.6667"/>
      <point x="131.667" y="-10"/>
    </contour>
    <contour>
      <point x="263.333" y="66.6667" type="curve" smooth="yes"/>
      <point x="205.667" y="66.6667"/>
      <point x="160" y="113.333"/>
      <point x="160" y="250" type="curve" smooth="yes"/>
      <point x="160" y="386.667"/>
      <point x="205.667" y="433.333"/>
      <point x="263.333" y="433.333" type="curve" smooth="yes"/>
      <point x="319.667" y="433.333"/>
      <point x="366.667" y="381.333"/>
      <point x="366.667" y="250" type="curve" smooth="yes"/>
      <point x="366.667" y="118.667"/>
      <point x="319.667" y="66.6667"/>
    </contour>
    <contour>
      <point x="485" y="288.333" type="line"/>
      <point x="485" y="389.333"/>
      <point x="528.333" y="433.333"/>
      <point x="578.333" y="433.333" type="curve" smooth="yes"/>
      <point x="628.333" y="433.333"/>
      <point x="671.667" y="389.333"/>
      <point x="671.667" y="288.333" type="curve"/>
    </contour>
  </outline>
</glyph>
<glyph name="tcaron" format="2">
  <advance width="490"/>
  <unicode hex="0165"/>
  <outline>
    <contour>
      <point x="261.667" y="-10" type="curve" smooth="yes"/>
      <point x="301.667" y="-10"/>
      <point x="337.333" y="2"/>
      <point x="363.333" y="15" type="curve"/>
      <point x="378.667" y="22"/>
      <point x="392.333" y="31"/>
      <point x="405" y="40" type="curve"/>
      <point x="366.667" y="106.667" type="line"/>
      <point x="356.667" y="106.667" type="line"/>
      <point x="348.667" y="99.6667"/>
      <point x="339.667" y="92.6667"/>
      <point x="330.667" y="86.6667" type="curve" smooth="yes"/>
      <point x="314.667" y="75.6667"/>
      <point x="294.667" y="66.6667"/>
      <point x="271.667" y="66.6667" type="curve" smooth="yes"/>
      <point x="231.333" y="66.6667"/>
      <point x="203.333" y="94.6667"/>
      <point x="203.333" y="153.333" type="curve" smooth="yes"/>
      <point x="203.333" y="423.333" type="line"/>
      <point x="325" y="423.333" type="line"/>
      <point x="325" y="500" type="line"/>
      <point x="203.333" y="500" type="line"/>
      <point x="203.333" y="620" type="line"/>
      <point x="155" y="620" type="line"/>
      <point x="18.3333" y="483.333" type="line"/>
      <point x="18.3333" y="423.333" type="line"/>
      <point x="90" y="423.333" type="line"/>
      <point x="90" y="153.333" type="line" smooth="yes"/>
      <point x="90" y="56"/>
      <point x="156.333" y="-10"/>
    </contour>
    <contour>
      <point x="398.333" y="396" type="line"/>
      <point x="413.667" y="405.333"/>
      <point x="427" y="417.667"/>
      <point x="439" y="433" type="curve" smooth="yes"/>
      <point x="459.333" y="458.667"/>
      <point x="480" y="497.333"/>
      <point x="480" y="552.333" type="curve" smooth="yes"/>
      <point x="480" y="594"/>
      <point x="454.333" y="620"/>
      <point x="416.667" y="620" type="curve" smooth="yes"/>
      <point x="389.333" y="620"/>
      <point x="363.333" y="594.667"/>
      <point x="363.333" y="561.667" type="curve" smooth="yes"/>
      <point x="363.333" y="530.333"/>
      <point x="389" y="505"/>
      <point x="420" y="505" type="curve"/>
      <point x="420" y="484"/>
      <point x="407" y="465.667"/>
      <point x="394" y="450.667" type="curve" smooth="yes"/>
      <point x="386.667" y="442.333"/>
      <point x="377.667" y="435"/>
      <point x="368.333" y="428" type="curve"/>
    </contour>
  </outline>
</glyph>
<glyph name="florin" format="2">
  <advance width="403"/>
  <unicode hex="0192"/>
  <outline>
    <contour>
      <point x="6.33333" y="-200" type="curve" smooth="yes"/>
      <point x="117.333" y="-200"/>
      <point x="186" y="-134"/>
      <point x="195" y="-36.6667" type="curve" smooth="yes"/>
      <point x="236.333" y="423.333" type="line"/>
      <point x="368" y="423.333" type="line"/>
      <point x="374.667" y="500" type="line"/>
      <point x="243" y="500" type="line"/>
      <point x="247" y="546.667" type="line" smooth="yes"/>
      <point x="251" y="603.667"/>
      <point x="284.667" y="633.333"/>
      <point x="326.333" y="633.333" type="curve" smooth="yes"/>
      <point x="349.333" y="633.333"/>
      <point x="369" y="622.333"/>
      <point x="384.667" y="611.333" type="curve" smooth="yes"/>
      <point x="393.667" y="604.667"/>
      <point x="402.333" y="597.667"/>
      <point x="410" y="590" type="curve"/>
      <point x="420" y="590" type="line"/>
      <point x="464.667" y="656.667" type="line"/>
      <point x="453" y="666.333"/>
      <point x="439.333" y="675.333"/>
      <point x="425" y="683" type="curve" smooth="yes"/>
      <point x="400" y="697"/>
      <point x="365" y="710"/>
      <point x="323" y="710" type="curve" smooth="yes"/>
      <point x="209.333" y="710"/>
      <point x="142.667" y="644"/>
      <point x="133.667" y="546.667" type="curve" smooth="yes"/>
      <point x="129.667" y="500" type="line"/>
      <point x="68" y="500" type="line"/>
      <point x="61.3333" y="423.333" type="line"/>
      <point x="123" y="423.333" type="line"/>
      <point x="81.6667" y="-36.6667" type="line" smooth="yes"/>
      <point x="76.6667" y="-95.3333"/>
      <point x="47.6667" y="-123.333"/>
      <point x="3" y="-123.333" type="curve" smooth="yes"/>
      <point x="-12" y="-123.333"/>
      <point x="-24.6667" y="-118.333"/>
      <point x="-33.6667" y="-111.333" type="curve"/>
      <point x="-39" y="-108.333"/>
      <point x="-44" y="-103.333"/>
      <point x="-48.6667" y="-98.3333" type="curve"/>
      <point x="-58.6667" y="-98.3333" type="line"/>
      <point x="-93.3333" y="-170" type="line"/>
      <point x="-85.6667" y="-176"/>
      <point x="-76" y="-181"/>
      <point x="-65.6667" y="-185" type="curve"/>
      <point x="-48" y="-193"/>
      <point x="-24.6667" y="-200"/>
    </contour>
  </outline>
</glyph>
<glyph name="circumflex" format="2">
  <advance width="327"/>
  <unicode hex="02C6"/>
  <outline>
    <contour>
      <point x="91.6667" y="560" type="line"/>
      <point x="163.333" y="626.667" type="line"/>
      <point x="235" y="560" type="line"/>
      <point x="310" y="560" type="line"/>
      <point x="203.333" y="691.333" type="line"/>
      <point x="123.333" y="691.333" type="line"/>
      <point x="16.6667" y="560" type="line"/>
    </contour>
  </outline>
</glyph>
<glyph name="tilde" format="2">
  <advance width="307"/>
  <unicode hex="02DC"/>
  <outline>
    <contour>
      <point x="205" y="581.667" type="curve" smooth="yes"/>
      <point x="254.667" y="581.667"/>
      <point x="285" y="624.667"/>
      <point x="296.667" y="671.667" type="curve"/>
      <point x="251.333" y="698.333" type="line"/>
      <point x="242.333" y="698.333" type="line"/>
      <point x="243.333" y="697.333"/>
      <point x="226.333" y="657.333"/>
      <point x="198.333" y="658.333" type="curve"/>
      <point x="166.667" y="658.333"/>
      <point x="153.333" y="703.333"/>
      <point x="101.667" y="703.333" type="curve" smooth="yes"/>
      <point x="50.6667" y="703.333"/>
      <point x="22.3333" y="660.333"/>
      <point x="10" y="613.333" type="curve"/>
      <point x="55.3333" y="586.667" type="line"/>
      <point x="64.3333" y="586.667" type="line"/>
      <point x="63.3333" y="585.667"/>
      <point x="79.6667" y="625.667"/>
      <point x="108.333" y="626.667" type="curve"/>
      <point x="140" y="626.667"/>
      <point x="153.333" y="581.667"/>
    </contour>
  </outline>
</glyph>
<glyph name="hungarumlaut" format="2">
  <advance width="307"/>
  <unicode hex="02DD"/>
  <outline>
    <contour>
      <point x="210" y="550" type="line"/>
      <point x="296.667" y="700" type="line"/>
      <point x="196.667" y="700" type="line"/>
      <point x="151.667" y="550" type="line"/>
    </contour>
    <contour>
      <point x="68.3333" y="550" type="line"/>
      <point x="155" y="700" type="line"/>
      <point x="55" y="700" type="line"/>
      <point x="10" y="550" type="line"/>
    </contour>
  </outline>
</glyph>
<glyph name="gravecomb" format="2">
  <advance width="183"/>
  <unicode hex="0300"/>
  <anchor x="142" y="500" name="_top"/>
  <anchor x="92" y="700" name="top"/>
  <outline>
    <contour>
      <point x="173.333" y="550" type="line"/>
      <point x="128.333" y="700" type="line"/>
      <point x="10" y="700" type="line"/>
      <point x="103.333" y="550" type="line"/>
    </contour>
  </outline>
</glyph>
<glyph name="macroncomb" format="2">
  <advance width="310"/>
  <unicode hex="0304"/>
  <anchor x="155" y="500" name="_top"/>
  <anchor x="155" y="660" name="top"/>
  <outline>
    <contour>
      <point x="293.333" y="583.333" type="line"/>
      <point x="293.333" y="660" type="line"/>
      <point x="16.6667" y="660" type="line"/>
      <point x="16.6667" y="583.333" type="line"/>
    </contour>
  </outline>
</glyph>
<glyph name="Dzhe-cy" format="2">
  <advance width="640"/>
  <unicode hex="040F"/>
  <outline>
    <contour>
      <point x="363.333" y="-150" type="line"/>
      <point x="375" y="0" type="line"/>
      <point x="551.667" y="0" type="line"/>
      <point x="551.667" y="700" type="line"/>
      <point x="438.333" y="700" type="line"/>
      <point x="438.333" y="76.6667" type="line"/>
      <point x="201.667" y="76.6667" type="line"/>
      <point x="201.667" y="700" type="line"/>
      <point x="88.3333" y="700" type="line"/>
      <point x="88.3333" y="0" type="line"/>
      <point x="265" y="0" type="line"/>
      <point x="276.667" y="-150" type="line"/>
    </contour>
  </outline>
</glyph>
<glyph name="De-cy" format="2">
  <advance width="632"/>
  <unicode hex="0414"/>
  <outline>
    <contour>
      <point x="101.667" y="-150" type="line"/>
      <point x="118.333" y="0" type="line"/>
      <point x="486.667" y="0" type="line"/>
      <point x="503.333" y="-150" type="line"/>
      <point x="591.667" y="-150" type="line"/>
      <point x="591.667" y="76.6667" type="line"/>
      <point x="526.667" y="76.6667" type="line"/>
      <point x="526.667" y="700" type="line"/>
      <point x="138.333" y="700" type="line"/>
      <point x="113.333" y="246.667" type="line" smooth="yes"/>
      <point x="109.667" y="185.333"/>
      <point x="96.3333" y="144"/>
      <point x="83.3333" y="116.667" type="curve"/>
      <point x="76.3333" y="100.667"/>
      <point x="67.3333" y="87"/>
      <point x="58.3333" y="76.6667" type="curve"/>
      <point x="8.33333" y="76.6667" type="line"/>
      <point x="8.33333" y="-150" type="line"/>
    </contour>
    <contour>
      <point x="170" y="76.6667" type="line"/>
      <point x="179" y="87"/>
      <point x="188" y="100.667"/>
      <point x="195" y="116.667" type="curve"/>
      <point x="208" y="144"/>
      <point x="221.333" y="185.333"/>
      <point x="225" y="246.667" type="curve" smooth="yes"/>
      <point x="245" y="623.333" type="line"/>
      <point x="413.333" y="623.333" type="line"/>
      <point x="413.333" y="76.6667" type="line"/>
    </contour>
  </outline>
</glyph>
<glyph name="Ii-cy" format="2">
  <advance width="640"/>
  <unicode hex="0418"/>
  <anchor x="438.333" y="0" name="bottomright"/>
  <anchor x="320" y="700" name="top"/>
  <outline>
    <contour>
      <point x="200" y="0" type="line"/>
      <point x="410" y="428.333" type="line" smooth="yes"/>
      <point x="417" y="443.333"/>
      <point x="424" y="462"/>
      <point x="430.333" y="479" type="curve" smooth="yes"/>
      <point x="432.322" y="484.738"/>
      <point x="437.055" y="501.412"/>
      <point x="438.667" y="507" type="curve"/>
      <point x="442.667" y="507" type="line"/>
      <point x="440.333" y="479" type="line" smooth="yes"/>
      <point x="439.333" y="462"/>
      <point x="438.333" y="443.333"/>
      <point x="438.333" y="428.333" type="curve" smooth="yes"/>
      <point x="438.333" y="0" type="line"/>
      <point x="551.667" y="0" type="line"/>
      <point x="551.667" y="700" type="line"/>
      <point x="440" y="700" type="line"/>
      <point x="230" y="271.667" type="line"/>
      <point x="222" y="256.667"/>
      <point x="216" y="236.667"/>
      <point x="209.667" y="221" type="curve"/>
      <point x="207.678" y="215.262"/>
      <point x="202.945" y="198.588"/>
      <point x="201.333" y="193" type="curve"/>
      <point x="197.333" y="193" type="line"/>
      <point x="199.333" y="221" type="line" smooth="yes"/>
      <point x="200.333" y="236.667"/>
      <point x="201.667" y="256.667"/>
      <point x="201.667" y="271.667" type="curve" smooth="yes"/>
      <point x="201.667" y="700" type="line"/>
      <point x="88.3333" y="700" type="line"/>
      <point x="88.3333" y="0" type="line"/>
    </contour>
  </outline>
</glyph>
<glyph name="Pe-cy" format="2">
  <advance width="640"/>
  <unicode hex="041F"/>
  <anchor x="438.333" y="0" name="bottomright"/>
  <outline>
    <contour>
      <point x="201.667" y="0" type="line"/>
      <point x="201.667" y="623.333" type="line"/>
      <point x="438.333" y="623.333" type="line"/>
      <point x="438.333" y="0" type="line"/>
      <point x="551.667" y="0" type="line"/>
      <point x="551.667" y="700" type="line"/>
      <point x="88.3333" y="700" type="line"/>
      <point x="88.3333" y="0" type="line"/>
    </contour>
  </outline>
</glyph>
<glyph name="Es-cy" format="2">
  <advance width="522"/>
  <unicode hex="0421"/>
  <anchor x="195" y="0" name="bottomright"/>
  <outline>
    <contour>
      <point x="320" y="-10" type="curve" smooth="yes"/>
      <point x="376.333" y="-10"/>
      <point x="420" y="2"/>
      <point x="451.333" y="17" type="curve" smooth="yes"/>
      <point x="469" y="25"/>
      <point x="485" y="34"/>
      <point x="498.333" y="45" type="curve"/>
      <point x="460" y="111.667" type="line"/>
      <point x="450" y="111.667" type="line"/>
      <point x="439.667" y="102.667"/>
      <point x="428.667" y="95.6667"/>
      <point x="416.667" y="88.6667" type="curve"/>
      <point x="395.667" y="77.6667"/>
      <point x="365.667" y="66.6667"/>
      <point x="330" y="66.6667" type="curve" smooth="yes"/>
      <point x="233.333" y="66.6667"/>
      <point x="166.667" y="133"/>
      <point x="166.667" y="350" type="curve" smooth="yes"/>
      <point x="166.667" y="567"/>
      <point x="233.333" y="633.333"/>
      <point x="320" y="633.333" type="curve" smooth="yes"/>
      <point x="355.667" y="633.333"/>
      <point x="385.667" y="621.333"/>
      <point x="406.667" y="610.333" type="curve"/>
      <point x="418.667" y="603.333"/>
      <point x="429.667" y="596.333"/>
      <point x="440" y="588.333" type="curve"/>
      <point x="450" y="588.333" type="line"/>
      <point x="488.333" y="655" type="line"/>
      <point x="475" y="665"/>
      <point x="459" y="674"/>
      <point x="441.333" y="682" type="curve" smooth="yes"/>
      <point x="410" y="697"/>
      <point x="366.333" y="710"/>
      <point x="310" y="710" type="curve" smooth="yes"/>
      <point x="155.667" y="710"/>
      <point x="53.3333" y="608.333"/>
      <point x="53.3333" y="350" type="curve" smooth="yes"/>
      <point x="53.3333" y="91.6667"/>
      <point x="154.667" y="-10"/>
    </contour>
  </outline>
</glyph>
<glyph name="Tse-cy" format="2">
  <advance width="647"/>
  <unicode hex="0426"/>
  <outline>
    <contour>
      <point x="606.667" y="-150" type="line"/>
      <point x="606.667" y="76.6667" type="line"/>
      <point x="541.667" y="76.6667" type="line"/>
      <point x="541.667" y="700" type="line"/>
      <point x="428.333" y="700" type="line"/>
      <point x="428.333" y="76.6667" type="line"/>
      <point x="201.667" y="76.6667" type="line"/>
      <point x="201.667" y="700" type="line"/>
      <point x="88.3333" y="700" type="line"/>
      <point x="88.3333" y="0" type="line"/>
      <point x="501.667" y="0" type="line"/>
      <point x="518.333" y="-150" type="line"/>
    </contour>
  </outline>
</glyph>
<glyph name="Sha-cy" format="2">
  <advance width="930"/>
  <unicode hex="0428"/>
  <outline>
    <contour>
      <point x="841.667" y="0" type="line"/>
      <point x="841.667" y="700" type="line"/>
      <point x="728.333" y="700" type="line"/>
      <point x="728.333" y="76.6667" type="line"/>
      <point x="521.667" y="76.6667" type="line"/>
      <point x="521.667" y="700" type="line"/>
      <point x="408.333" y="700" type="line"/>
      <point x="408.333" y="76.6667" type="line"/>
      <point x="201.667" y="76.6667" type="line"/>
      <point x="201.667" y="700" type="line"/>
      <point x="88.3333" y="700" type="line"/>
      <point x="88.3333" y="0" type="line"/>
    </contour>
  </outline>
</glyph>
<glyph name="Shcha-cy" format="2">
  <advance width="947"/>
  <unicode hex="0429"/>
  <outline>
    <contour>
      <point x="906.667" y="-150" type="line"/>
      <point x="906.667" y="76.6667" type="line"/>
      <point x="841.667" y="76.6667" type="line"/>
      <point x="841.667" y="700" type="line"/>
      <point x="728.333" y="700" type="line"/>
      <point x="728.333" y="76.6667" type="line"/>
      <point x="521.667" y="76.6667" type="line"/>
      <point x="521.667" y="700" type="line"/>
      <point x="408.333" y="700" type="line"/>
      <point x="408.333" y="76.6667" type="line"/>
      <point x="201.667" y="76.6667" type="line"/>
      <point x="201.667" y="700" type="line"/>
      <point x="88.3333" y="700" type="line"/>
      <point x="88.3333" y="0" type="line"/>
      <point x="801.667" y="0" type="line"/>
      <point x="818.333" y="-150" type="line"/>
    </contour>
  </outline>
</glyph>
<glyph name="Hardsign-cy" format="2">
  <advance width="630"/>
  <unicode hex="042A"/>
  <outline>
    <contour>
      <point x="346.333" y="0" type="line" smooth="yes"/>
      <point x="507.667" y="0"/>
      <point x="595" y="73.6667"/>
      <point x="595" y="221.667" type="curve" smooth="yes"/>
      <point x="595" y="364"/>
      <point x="516" y="443.333"/>
      <point x="341.667" y="443.333" type="curve" smooth="yes"/>
      <point x="260" y="443.333" type="line"/>
      <point x="260" y="700" type="line"/>
      <point x="10" y="700" type="line"/>
      <point x="10" y="623.333" type="line"/>
      <point x="146.667" y="623.333" type="line"/>
      <point x="146.667" y="0" type="line"/>
    </contour>
    <contour>
      <point x="260" y="366.667" type="line"/>
      <point x="341.667" y="366.667" type="line" smooth="yes"/>
      <point x="436.667" y="366.667"/>
      <point x="481.667" y="320.333"/>
      <point x="481.667" y="221.667" type="curve" smooth="yes"/>
      <point x="481.667" y="123"/>
      <point x="436.667" y="76.6667"/>
      <point x="341.667" y="76.6667" type="curve" smooth="yes"/>
      <point x="260" y="76.6667" type="line"/>
    </contour>
  </outline>
</glyph>
<glyph name="Yeru-cy" format="2">
  <advance width="818"/>
  <unicode hex="042B"/>
  <anchor x="409.333" y="700" name="top"/>
  <outline>
    <contour>
      <point x="273.333" y="0" type="line" smooth="yes"/>
      <point x="447.667" y="0"/>
      <point x="526.667" y="79.3333"/>
      <point x="526.667" y="221.667" type="curve" smooth="yes"/>
      <point x="526.667" y="364"/>
      <point x="447.667" y="443.333"/>
      <point x="273.333" y="443.333" type="curve" smooth="yes"/>
      <point x="201.667" y="443.333" type="line"/>
      <point x="201.667" y="700" type="line"/>
      <point x="88.3333" y="700" type="line"/>
      <point x="88.3333" y="0" type="line"/>
    </contour>
    <contour>
      <point x="201.667" y="366.667" type="line"/>
      <point x="273.333" y="366.667" type="line" smooth="yes"/>
      <point x="368.333" y="366.667"/>
      <point x="413.333" y="320.333"/>
      <point x="413.333" y="221.667" type="curve" smooth="yes"/>
      <point x="413.333" y="123"/>
      <point x="368.333" y="76.6667"/>
      <point x="273.333" y="76.6667" type="curve" smooth="yes"/>
      <point x="201.667" y="76.6667" type="line"/>
    </contour>
    <contour>
      <point x="730" y="0" type="line"/>
      <point x="730" y="700" type="line"/>
      <point x="616.667" y="700" type="line"/>
      <point x="616.667" y="0" type="line"/>
    </contour>
  </outline>
</glyph>
<glyph name="Ia-cy" format="2">
  <advance width="583"/>
  <unicode hex="042F"/>
  <outline>
    <contour>
      <point x="91.6667" y="-10" type="curve" smooth="yes"/>
      <point x="151.667" y="-10"/>
      <point x="191" y="28"/>
      <point x="208.667" y="90" type="curve" smooth="yes"/>
      <point x="238.333" y="195" type="line" smooth="yes"/>
      <point x="251" y="240"/>
      <point x="278.667" y="266.667"/>
      <point x="323.333" y="266.667" type="curve" smooth="yes"/>
      <point x="381.667" y="266.667" type="line"/>
      <point x="381.667" y="0" type="line"/>
      <point x="495" y="0" type="line"/>
      <point x="495" y="700" type="line"/>
      <point x="313" y="700" type="line" smooth="yes"/>
      <point x="136" y="700"/>
      <point x="56.3333" y="620.667"/>
      <point x="56.3333" y="483" type="curve" smooth="yes"/>
      <point x="56.3333" y="379.667"/>
      <point x="124.667" y="308"/>
      <point x="206.667" y="295" type="curve"/>
      <point x="164.667" y="283.667"/>
      <point x="135" y="247.333"/>
      <point x="123.333" y="206.667" type="curve" smooth="yes"/>
      <point x="95" y="108.333" type="line" smooth="yes"/>
      <point x="86.6667" y="79.3333"/>
      <point x="73.3333" y="66.6667"/>
      <point x="56.3333" y="66.6667" type="curve" smooth="yes"/>
      <point x="49.3333" y="66.6667"/>
      <point x="43.6667" y="68.6667"/>
      <point x="36.6667" y="71.6667" type="curve"/>
      <point x="31.6667" y="71.6667" type="line"/>
      <point x="21.6667" y="1.66667" type="line"/>
      <point x="41" y="-8"/>
      <point x="70.6667" y="-10"/>
    </contour>
    <contour>
      <point x="313" y="343.333" type="line" smooth="yes"/>
      <point x="216" y="343.333"/>
      <point x="169.667" y="388.333"/>
      <point x="169.667" y="483.333" type="curve" smooth="yes"/>
      <point x="169.667" y="578.333"/>
      <point x="216" y="623.333"/>
      <point x="313" y="623.333" type="curve" smooth="yes"/>
      <point x="381.667" y="623.333" type="line"/>
      <point x="381.667" y="343.333" type="line"/>
    </contour>
  </outline>
</glyph>
<glyph name="a-cy" format="2">
  <advance width="520"/>
  <unicode hex="0430"/>
  <anchor x="260" y="500" name="top"/>
  <outline>
    <contour>
      <point x="215" y="-10" type="curve" smooth="yes"/>
      <point x="264" y="-10"/>
      <point x="298.333" y="6"/>
      <point x="322" y="25" type="curve"/>
      <point x="335.667" y="35"/>
      <point x="347.333" y="47"/>
      <point x="356.667" y="60" type="curve"/>
      <point x="361.667" y="60" type="line"/>
      <point x="371.667" y="0" type="line"/>
      <point x="451.667" y="0" type="line"/>
      <point x="451.667" y="320" type="line" smooth="yes"/>
      <point x="451.667" y="430"/>
      <point x="371.333" y="510"/>
      <point x="246.667" y="510" type="curve" smooth="yes"/>
      <point x="195.667" y="510"/>
      <point x="155.333" y="497"/>
      <point x="125.667" y="483" type="curve" smooth="yes"/>
      <point x="108.667" y="475.333"/>
      <point x="93.3333" y="466.333"/>
      <point x="80" y="456.667" type="curve"/>
      <point x="118.333" y="390" type="line"/>
      <point x="128.333" y="390" type="line"/>
      <point x="137" y="397.667"/>
      <point x="147.333" y="404.667"/>
      <point x="159" y="411.333" type="curve" smooth="yes"/>
      <point x="178.667" y="422.333"/>
      <point x="205" y="433.333"/>
      <point x="236.667" y="433.333" type="curve" smooth="yes"/>
      <point x="301.667" y="433.333"/>
      <point x="338.333" y="397"/>
      <point x="338.333" y="320" type="curve" smooth="yes"/>
      <point x="338.333" y="298.333" type="line"/>
      <point x="261.667" y="298.333" type="line" smooth="yes"/>
      <point x="105" y="298.333"/>
      <point x="43.3333" y="237"/>
      <point x="43.3333" y="145" type="curve" smooth="yes"/>
      <point x="43.3333" y="50.6667"/>
      <point x="105" y="-10"/>
    </contour>
    <contour>
      <point x="240" y="71.6667" type="curve" smooth="yes"/>
      <point x="185" y="71.6667"/>
      <point x="156.667" y="99.3333"/>
      <point x="156.667" y="145" type="curve" smooth="yes"/>
      <point x="156.667" y="190"/>
      <point x="188.333" y="221.667"/>
      <point x="261.667" y="221.667" type="curve" smooth="yes"/>
      <point x="338.333" y="221.667" type="line"/>
      <point x="338.333" y="131.667" type="line"/>
      <point x="330" y="120.667"/>
      <point x="320.667" y="110.667"/>
      <point x="310.333" y="101.667" type="curve" smooth="yes"/>
      <point x="292.667" y="86.6667"/>
      <point x="269" y="71.6667"/>
    </contour>
  </outline>
</glyph>
<glyph name="ve-cy" format="2">
  <advance width="517"/>
  <unicode hex="0432"/>
  <outline>
    <contour>
      <point x="266.667" y="0" type="line" smooth="yes"/>
      <point x="415" y="0"/>
      <point x="475" y="60"/>
      <point x="475" y="135" type="curve" smooth="yes"/>
      <point x="475" y="207"/>
      <point x="422" y="248.333"/>
      <point x="356.667" y="260" type="curve"/>
      <point x="410" y="275.333"/>
      <point x="455" y="308"/>
      <point x="455" y="370" type="curve" smooth="yes"/>
      <point x="455" y="439"/>
      <point x="394.333" y="500"/>
      <point x="266.667" y="500" type="curve" smooth="yes"/>
      <point x="73.3333" y="500" type="line"/>
      <point x="73.3333" y="0" type="line"/>
    </contour>
    <contour>
      <point x="186.667" y="216.667" type="line"/>
      <point x="266.667" y="216.667" type="line" smooth="yes"/>
      <point x="334" y="216.667"/>
      <point x="361.667" y="188.333"/>
      <point x="361.667" y="146.667" type="curve" smooth="yes"/>
      <point x="361.667" y="105"/>
      <point x="334" y="76.6667"/>
      <point x="266.667" y="76.6667" type="curve" smooth="yes"/>
      <point x="186.667" y="76.6667" type="line"/>
    </contour>
    <contour>
      <point x="186.667" y="423.333" type="line"/>
      <point x="266.667" y="423.333" type="line" smooth="yes"/>
      <point x="314" y="423.333"/>
      <point x="341.667" y="395.333"/>
      <point x="341.667" y="358.333" type="curve" smooth="yes"/>
      <point x="341.667" y="321.333"/>
      <point x="314" y="293.333"/>
      <point x="266.667" y="293.333" type="curve" smooth="yes"/>
      <point x="186.667" y="293.333" type="line"/>
    </contour>
  </outline>
</glyph>
<glyph name="zhe-cy" format="2">
  <advance width="750"/>
  <unicode hex="0436"/>
  <anchor x="554.333" y="0" name="bottomright"/>
  <anchor x="375" y="500" name="top"/>
  <outline>
    <contour>
      <point x="90" y="-10" type="curve" smooth="yes"/>
      <point x="151" y="-10"/>
      <point x="181.333" y="21.6667"/>
      <point x="195" y="73.3333" type="curve" smooth="yes"/>
      <point x="220" y="170" type="line" smooth="yes"/>
      <point x="227.333" y="199"/>
      <point x="246.333" y="216.667"/>
      <point x="280" y="216.667" type="curve" smooth="yes"/>
      <point x="318.333" y="216.667" type="line"/>
      <point x="318.333" y="0" type="line"/>
      <point x="431.667" y="0" type="line"/>
      <point x="431.667" y="216.667" type="line"/>
      <point x="470" y="216.667" type="line" smooth="yes"/>
      <point x="503.667" y="216.667"/>
      <point x="522.667" y="199"/>
      <point x="530" y="170" type="curve" smooth="yes"/>
      <point x="555" y="73.3333" type="line" smooth="yes"/>
      <point x="568.667" y="21.6667"/>
      <point x="599" y="-10"/>
      <point x="660" y="-10" type="curve" smooth="yes"/>
      <point x="681.667" y="-10"/>
      <point x="706.333" y="-6.66667"/>
      <point x="726.667" y="1.66667" type="curve"/>
      <point x="715" y="71.6667" type="line"/>
      <point x="710" y="71.6667" type="line"/>
      <point x="704" y="68.6667" type="line" smooth="yes"/>
      <point x="702" y="67.6667"/>
      <point x="694" y="66.6667"/>
      <point x="690" y="66.6667" type="curve" smooth="yes"/>
      <point x="676.333" y="66.6667"/>
      <point x="666.333" y="76.6667"/>
      <point x="661.667" y="95" type="curve" smooth="yes"/>
      <point x="638.333" y="185" type="line" smooth="yes"/>
      <point x="624" y="239.667"/>
      <point x="562.333" y="258.333"/>
      <point x="545" y="260" type="curve"/>
      <point x="562.667" y="262.667"/>
      <point x="615.667" y="275"/>
      <point x="628.333" y="325" type="curve" smooth="yes"/>
      <point x="648.333" y="405" type="line" smooth="yes"/>
      <point x="653" y="423.333"/>
      <point x="663" y="433.333"/>
      <point x="676.667" y="433.333" type="curve" smooth="yes"/>
      <point x="681.333" y="433.333"/>
      <point x="685.333" y="432.333"/>
      <point x="690.667" y="430.333" type="curve"/>
      <point x="696.667" y="428.333" type="line"/>
      <point x="701.667" y="428.333" type="line"/>
      <point x="713.333" y="498.333" type="line"/>
      <point x="694.333" y="504" type="line" smooth="yes"/>
      <point x="682" y="507.667"/>
      <point x="665.667" y="510"/>
      <point x="646.667" y="510" type="curve" smooth="yes"/>
      <point x="585" y="510"/>
      <point x="554.333" y="479"/>
      <point x="541.667" y="426.667" type="curve" smooth="yes"/>
      <point x="520" y="340" type="line" smooth="yes"/>
      <point x="513" y="311"/>
      <point x="496.333" y="293.333"/>
      <point x="460" y="293.333" type="curve" smooth="yes"/>
      <point x="431.667" y="293.333" type="line"/>
      <point x="431.667" y="500" type="line"/>
      <point x="318.333" y="500" type="line"/>
      <point x="318.333" y="293.333" type="line"/>
      <point x="290" y="293.333" type="line" smooth="yes"/>
      <point x="253.667" y="293.333"/>
      <point x="237" y="311"/>
      <point x="230" y="340" type="curve" smooth="yes"/>
      <point x="208.333" y="426.667" type="line" smooth="yes"/>
      <point x="195.667" y="479"/>
      <point x="165" y="510"/>
      <point x="103.333" y="510" type="curve" smooth="yes"/>
      <point x="83" y="510"/>
      <point x="68" y="507.667"/>
      <point x="55.6667" y="504" type="curve" smooth="yes"/>
      <point x="36.6667" y="498.333" type="line"/>
      <point x="48.3333" y="428.333" type="line"/>
      <point x="53.3333" y="428.333" type="line"/>
      <point x="59.3333" y="430.333" type="line" smooth="yes"/>
      <point x="65.6667" y="432.333"/>
      <point x="69" y="433.333"/>
      <point x="73.3333" y="433.333" type="curve" smooth="yes"/>
      <point x="87" y="433.333"/>
      <point x="97" y="423.333"/>
      <point x="101.667" y="405" type="curve" smooth="yes"/>
      <point x="121.667" y="325" type="line" smooth="yes"/>
      <point x="135" y="273.333"/>
      <point x="188.333" y="262.667"/>
      <point x="205" y="260" type="curve"/>
      <point x="184.333" y="257"/>
      <point x="126" y="239.667"/>
      <point x="111.667" y="185" type="curve" smooth="yes"/>
      <point x="88.3333" y="95" type="line" smooth="yes"/>
      <point x="83.6667" y="76.6667"/>
      <point x="73.6667" y="66.6667"/>
      <point x="60" y="66.6667" type="curve" smooth="yes"/>
      <point x="56" y="66.6667"/>
      <point x="48" y="67.6667"/>
      <point x="46" y="68.6667" type="curve" smooth="yes"/>
      <point x="40" y="71.6667" type="line"/>
      <point x="35" y="71.6667" type="line"/>
      <point x="23.3333" y="1.66667" type="line"/>
      <point x="43.6667" y="-6.66667"/>
      <point x="68.3333" y="-10"/>
    </contour>
  </outline>
</glyph>
<glyph name="ze-cy" format="2">
  <advance width="455"/>
  <unicode hex="0437"/>
  <anchor x="204.333" y="0" name="bottom"/>
  <anchor x="197.667" y="500" name="top"/>
  <outline>
    <contour>
      <point x="203.333" y="-10" type="curve" smooth="yes"/>
      <point x="353.333" y="-10"/>
      <point x="413.333" y="50"/>
      <point x="413.333" y="130" type="curve" smooth="yes"/>
      <point x="413.333" y="187"/>
      <point x="383.333" y="219"/>
      <point x="353.667" y="238" type="curve" smooth="yes"/>
      <point x="336.333" y="249"/>
      <point x="316.667" y="256"/>
      <point x="295" y="260" type="curve"/>
      <point x="314.667" y="264.667"/>
      <point x="333" y="272.333"/>
      <point x="348.667" y="282.667" type="curve"/>
      <point x="376.333" y="299.333"/>
      <point x="403.333" y="328"/>
      <point x="403.333" y="375" type="curve" smooth="yes"/>
      <point x="403.333" y="450"/>
      <point x="343.333" y="510"/>
      <point x="201.667" y="510" type="curve" smooth="yes"/>
      <point x="145.667" y="510"/>
      <point x="103.667" y="497"/>
      <point x="74" y="483" type="curve" smooth="yes"/>
      <point x="56.6667" y="475.333"/>
      <point x="41.3333" y="466.333"/>
      <point x="28.3333" y="456.667" type="curve"/>
      <point x="66.6667" y="390" type="line"/>
      <point x="76.6667" y="390" type="line"/>
      <point x="85.3333" y="397.667"/>
      <point x="95.3333" y="404.667"/>
      <point x="107" y="411.333" type="curve" smooth="yes"/>
      <point x="126.667" y="422.333"/>
      <point x="155.333" y="433.333"/>
      <point x="191.667" y="433.333" type="curve" smooth="yes"/>
      <point x="262.333" y="433.333"/>
      <point x="290" y="405.333"/>
      <point x="290" y="365" type="curve" smooth="yes"/>
      <point x="290" y="321.667"/>
      <point x="262" y="293.333"/>
      <point x="205" y="293.333" type="curve" smooth="yes"/>
      <point x="120" y="293.333" type="line"/>
      <point x="120" y="216.667" type="line"/>
      <point x="205" y="216.667" type="line" smooth="yes"/>
      <point x="272.333" y="216.667"/>
      <point x="300" y="189"/>
      <point x="300" y="141.667" type="curve" smooth="yes"/>
      <point x="300" y="94.3333"/>
      <point x="271.667" y="66.6667"/>
      <point x="193.333" y="66.6667" type="curve" smooth="yes"/>
      <point x="151.667" y="66.6667"/>
      <point x="119.333" y="77"/>
      <point x="97" y="88" type="curve"/>
      <point x="84.3333" y="94.6667"/>
      <point x="73" y="101.667"/>
      <point x="63.3333" y="110" type="curve"/>
      <point x="53.3333" y="110" type="line"/>
      <point x="15" y="43.3333" type="line"/>
      <point x="28.6667" y="33"/>
      <point x="45" y="24"/>
      <point x="63.3333" y="16.3333" type="curve"/>
      <point x="95" y="2"/>
      <point x="142" y="-10"/>
    </contour>
  </outline>
</glyph>
<glyph name="ii-cy" format="2">
  <advance width="560"/>
  <unicode hex="0438"/>
  <anchor x="373.333" y="0" name="bottomright"/>
  <anchor x="280" y="500" name="top"/>
  <outline>
    <contour>
      <point x="185" y="0" type="line"/>
      <point x="345" y="271.667" type="line" smooth="yes"/>
      <point x="353.667" y="286.667"/>
      <point x="361.333" y="302.333"/>
      <point x="366" y="316" type="curve"/>
      <point x="368.017" y="321.384"/>
      <point x="372.188" y="333.897"/>
      <point x="373.333" y="338.333" type="curve"/>
      <point x="377.333" y="338.333" type="line"/>
      <point x="375.333" y="316" type="line" smooth="yes"/>
      <point x="374.333" y="302.333"/>
      <point x="373.333" y="286.667"/>
      <point x="373.333" y="271.667" type="curve" smooth="yes"/>
      <point x="373.333" y="0" type="line"/>
      <point x="486.667" y="0" type="line"/>
      <point x="486.667" y="500" type="line"/>
      <point x="375" y="500" type="line"/>
      <point x="215" y="228.333" type="line" smooth="yes"/>
      <point x="206" y="213.333"/>
      <point x="198.667" y="197.667"/>
      <point x="194" y="184" type="curve"/>
      <point x="191.983" y="178.616"/>
      <point x="187.812" y="166.103"/>
      <point x="186.667" y="161.667" type="curve"/>
      <point x="182.667" y="161.667" type="line"/>
      <point x="184.667" y="184" type="line" smooth="yes"/>
      <point x="185.667" y="197.667"/>
      <point x="186.667" y="213.333"/>
      <point x="186.667" y="228.333" type="curve" smooth="yes"/>
      <point x="186.667" y="500" type="line"/>
      <point x="73.3333" y="500" type="line"/>
      <point x="73.3333" y="0" type="line"/>
    </contour>
  </outline>
</glyph>
<glyph name="el-cy" format="2">
  <advance width="548"/>
  <unicode hex="043B"/>
  <outline>
    <contour>
      <point x="68.3333" y="-10" type="curve" smooth="yes"/>
      <point x="148.667" y="-10"/>
      <point x="198" y="41.3333"/>
      <point x="205" y="160" type="curve" smooth="yes"/>
      <point x="220" y="423.333" type="line"/>
      <point x="361.667" y="423.333" type="line"/>
      <point x="361.667" y="0" type="line"/>
      <point x="475" y="0" type="line"/>
      <point x="475" y="500" type="line"/>
      <point x="113.333" y="500" type="line"/>
      <point x="93.3333" y="160" type="line" smooth="yes"/>
      <point x="88.6667" y="86.6667"/>
      <point x="68.3333" y="66.6667"/>
      <point x="45" y="66.6667" type="curve" smooth="yes"/>
      <point x="41" y="66.6667"/>
      <point x="36" y="67.6667"/>
      <point x="31" y="68.6667" type="curve"/>
      <point x="25" y="71.6667" type="line"/>
      <point x="15" y="71.6667" type="line"/>
      <point x="8.33333" y="1.66667" type="line"/>
      <point x="12.8414" y="-0.0938554"/>
      <point x="21.0064" y="-3.18414"/>
      <point x="26.3333" y="-4.33333" type="curve"/>
      <point x="38" y="-7.66667"/>
      <point x="52" y="-10"/>
    </contour>
  </outline>
</glyph>
<glyph name="em-cy" format="2">
  <advance width="710"/>
  <unicode hex="043C"/>
  <outline>
    <contour>
      <point x="186.667" y="0" type="line"/>
      <point x="186.667" y="250" type="line" smooth="yes"/>
      <point x="186.667" y="265"/>
      <point x="185.667" y="280.667"/>
      <point x="184.667" y="294.333" type="curve" smooth="yes"/>
      <point x="182.667" y="316.667" type="line"/>
      <point x="186.667" y="316.667" type="line"/>
      <point x="187.914" y="312.332"/>
      <point x="192.523" y="300.257"/>
      <point x="194.667" y="295" type="curve"/>
      <point x="199.333" y="281.333"/>
      <point x="206" y="266"/>
      <point x="215" y="250" type="curve" smooth="yes"/>
      <point x="303.333" y="83.3333" type="line"/>
      <point x="406.667" y="83.3333" type="line"/>
      <point x="495" y="250" type="line" smooth="yes"/>
      <point x="503" y="265"/>
      <point x="509" y="281.333"/>
      <point x="515" y="295" type="curve"/>
      <point x="523.333" y="316.667" type="line"/>
      <point x="527.333" y="316.667" type="line"/>
      <point x="525.333" y="294.333" type="line" smooth="yes"/>
      <point x="524.333" y="280.667"/>
      <point x="523.333" y="265"/>
      <point x="523.333" y="250" type="curve" smooth="yes"/>
      <point x="523.333" y="0" type="line"/>
      <point x="636.667" y="0" type="line"/>
      <point x="636.667" y="500" type="line"/>
      <point x="520" y="500" type="line"/>
      <point x="375" y="230" type="line"/>
      <point x="369.333" y="220.333"/>
      <point x="365" y="211.333"/>
      <point x="362" y="201.667" type="curve"/>
      <point x="360.366" y="197.31"/>
      <point x="357.952" y="190.969"/>
      <point x="357" y="186.667" type="curve"/>
      <point x="353" y="186.667" type="line"/>
      <point x="352.048" y="190.969"/>
      <point x="349.634" y="197.31"/>
      <point x="348" y="201.667" type="curve"/>
      <point x="345" y="211.333"/>
      <point x="340" y="220.333"/>
      <point x="335" y="230" type="curve" smooth="yes"/>
      <point x="190" y="500" type="line"/>
      <point x="73.3333" y="500" type="line"/>
      <point x="73.3333" y="0" type="line"/>
    </contour>
  </outline>
</glyph>
<glyph name="en-cy" format="2">
  <advance width="560"/>
  <unicode hex="043D"/>
  <anchor x="373.333" y="0" name="bottomright"/>
  <outline>
    <contour>
      <point x="186.667" y="0" type="line"/>
      <point x="186.667" y="216.667" type="line"/>
      <point x="373.333" y="216.667" type="line"/>
      <point x="373.333" y="0" type="line"/>
      <point x="486.667" y="0" type="line"/>
      <point x="486.667" y="500" type="line"/>
      <point x="373.333" y="500" type="line"/>
      <point x="373.333" y="293.333" type="line"/>
      <point x="186.667" y="293.333" type="line"/>
      <point x="186.667" y="500" type="line"/>
      <point x="73.3333" y="500" type="line"/>
      <point x="73.3333" y="0" type="line"/>
    </contour>
  </outline>
</glyph>
<glyph name="o-cy" format="2">
  <advance width="533"/>
  <unicode hex="043E"/>
  <anchor x="266.667" y="250" name="center"/>
  <anchor x="266.667" y="500" name="top"/>
  <outline>
    <contour>
      <point x="266.667" y="-10" type="curve" smooth="yes"/>
      <point x="401.667" y="-10"/>
      <point x="486.667" y="74.6667"/>
      <point x="486.667" y="250" type="curve" smooth="yes"/>
      <point x="486.667" y="425.333"/>
      <point x="401.667" y="510"/>
      <point x="266.667" y="510" type="curve" smooth="yes"/>
      <point x="131" y="510"/>
      <point x="46.6667" y="425.333"/>
      <point x="46.6667" y="250" type="curve" smooth="yes"/>
      <point x="46.6667" y="74.6667"/>
      <point x="131" y="-10"/>
    </contour>
    <contour>
      <point x="266.667" y="66.6667" type="curve" smooth="yes"/>
      <point x="207" y="66.6667"/>
      <point x="160" y="113.333"/>
      <point x="160" y="250" type="curve" smooth="yes"/>
      <point x="160" y="386.667"/>
      <point x="207" y="433.333"/>
      <point x="266.667" y="433.333" type="curve" smooth="yes"/>
      <point x="326.333" y="433.333"/>
      <point x="373.333" y="386.667"/>
      <point x="373.333" y="250" type="curve" smooth="yes"/>
      <point x="373.333" y="113.333"/>
      <point x="326.333" y="66.6667"/>
    </contour>
  </outline>
</glyph>
<glyph name="te-cy" format="2">
  <advance width="430"/>
  <unicode hex="0442"/>
  <outline>
    <contour>
      <point x="271.667" y="0" type="line"/>
      <point x="271.667" y="423.333" type="line"/>
      <point x="420" y="423.333" type="line"/>
      <point x="420" y="500" type="line"/>
      <point x="10" y="500" type="line"/>
      <point x="10" y="423.333" type="line"/>
      <point x="158.333" y="423.333" type="line"/>
      <point x="158.333" y="0" type="line"/>
    </contour>
  </outline>
</glyph>
<glyph name="u-cy" format="2">
  <advance width="485"/>
  <unicode hex="0443"/>
  <anchor x="243" y="500" name="top"/>
  <outline>
    <contour>
      <point x="138.333" y="-210" type="curve" smooth="yes"/>
      <point x="227" y="-210"/>
      <point x="284.333" y="-150"/>
      <point x="310" y="-63.3333" type="curve"/>
      <point x="471.667" y="500" type="line"/>
      <point x="358.333" y="500" type="line"/>
      <point x="269.333" y="171.667" type="line" smooth="yes"/>
      <point x="266.944" y="162.548"/>
      <point x="260.346" y="134.948"/>
      <point x="258.667" y="126" type="curve"/>
      <point x="256.56" y="118.934"/>
      <point x="254.78" y="107.796"/>
      <point x="254" y="100" type="curve"/>
      <point x="250" y="100" type="line"/>
      <point x="248.553" y="107.805"/>
      <point x="246.773" y="118.941"/>
      <point x="244.667" y="126" type="curve"/>
      <point x="241.667" y="140.333"/>
      <point x="237.667" y="158"/>
      <point x="233.333" y="171.667" type="curve" smooth="yes"/>
      <point x="126.667" y="500" type="line"/>
      <point x="19" y="500" type="line"/>
      <point x="188" y="0" type="line"/>
      <point x="220.667" y="0" type="line"/>
      <point x="202.667" y="-63.3333" type="line" smooth="yes"/>
      <point x="191" y="-105.667"/>
      <point x="162" y="-133.333"/>
      <point x="128.333" y="-133.333" type="curve" smooth="yes"/>
      <point x="113.333" y="-133.333"/>
      <point x="100.333" y="-128.333"/>
      <point x="89.3333" y="-121.333" type="curve"/>
      <point x="83.3333" y="-118.333"/>
      <point x="78.3333" y="-113.333"/>
      <point x="73.3333" y="-108.333" type="curve"/>
      <point x="63.3333" y="-108.333" type="line"/>
      <point x="35" y="-180" type="line"/>
      <point x="42.6667" y="-186"/>
      <point x="52.3333" y="-191"/>
      <point x="63.6667" y="-195" type="curve"/>
      <point x="81.6667" y="-203"/>
      <point x="107.333" y="-210"/>
    </contour>
  </outline>
</glyph>
<glyph name="tse-cy" format="2">
  <advance width="577"/>
  <unicode hex="0446"/>
  <outline>
    <contour>
      <point x="541.667" y="-140" type="line"/>
      <point x="541.667" y="76.6667" type="line"/>
      <point x="476.667" y="76.6667" type="line"/>
      <point x="476.667" y="500" type="line"/>
      <point x="363.333" y="500" type="line"/>
      <point x="363.333" y="76.6667" type="line"/>
      <point x="186.667" y="76.6667" type="line"/>
      <point x="186.667" y="500" type="line"/>
      <point x="73.3333" y="500" type="line"/>
      <point x="73.3333" y="0" type="line"/>
      <point x="436.667" y="0" type="line"/>
      <point x="453.333" y="-140" type="line"/>
    </contour>
  </outline>
</glyph>
<glyph name="che-cy" format="2">
  <advance width="530"/>
  <unicode hex="0447"/>
  <anchor x="343.333" y="0" name="bottomright"/>
  <anchor x="263.333" y="211" name="center"/>
  <anchor x="265" y="500" name="top"/>
  <outline>
    <contour>
      <point x="456.667" y="0" type="line"/>
      <point x="456.667" y="500" type="line"/>
      <point x="343.333" y="500" type="line"/>
      <point x="343.333" y="258.333" type="line"/>
      <point x="336.333" y="255.333"/>
      <point x="328.333" y="253.333"/>
      <point x="320" y="250.333" type="curve"/>
      <point x="305.333" y="246.333"/>
      <point x="284.333" y="243.333"/>
      <point x="260" y="243.333" type="curve" smooth="yes"/>
      <point x="203" y="243.333"/>
      <point x="166.667" y="279"/>
      <point x="166.667" y="335" type="curve" smooth="yes"/>
      <point x="166.667" y="500" type="line"/>
      <point x="53.3333" y="500" type="line"/>
      <point x="53.3333" y="335" type="line" smooth="yes"/>
      <point x="53.3333" y="234.667"/>
      <point x="121.333" y="166.667"/>
      <point x="235" y="166.667" type="curve" smooth="yes"/>
      <point x="267" y="166.667"/>
      <point x="294.333" y="169.667"/>
      <point x="313.667" y="173.667" type="curve"/>
      <point x="324.667" y="176.667"/>
      <point x="334.667" y="178.667"/>
      <point x="343.333" y="181.667" type="curve"/>
      <point x="343.333" y="0" type="line"/>
    </contour>
  </outline>
</glyph>
<glyph name="sha-cy" format="2">
  <advance width="800"/>
  <unicode hex="0448"/>
  <outline>
    <contour>
      <point x="726.667" y="0" type="line"/>
      <point x="726.667" y="500" type="line"/>
      <point x="613.333" y="500" type="line"/>
      <point x="613.333" y="76.6667" type="line"/>
      <point x="456.667" y="76.6667" type="line"/>
      <point x="456.667" y="500" type="line"/>
      <point x="343.333" y="500" type="line"/>
      <point x="343.333" y="76.6667" type="line"/>
      <point x="186.667" y="76.6667" type="line"/>
      <point x="186.667" y="500" type="line"/>
      <point x="73.3333" y="500" type="line"/>
      <point x="73.3333" y="0" type="line"/>
    </contour>
  </outline>
</glyph>
<glyph name="yeru-cy" format="2">
  <advance width="732"/>
  <unicode hex="044B"/>
  <anchor x="366" y="500" name="top"/>
  <outline>
    <contour>
      <point x="258.333" y="0" type="line" smooth="yes"/>
      <point x="406.667" y="0"/>
      <point x="466.667" y="60"/>
      <point x="466.667" y="166.667" type="curve" smooth="yes"/>
      <point x="466.667" y="273.333"/>
      <point x="406.667" y="333.333"/>
      <point x="258.333" y="333.333" type="curve" smooth="yes"/>
      <point x="186.667" y="333.333" type="line"/>
      <point x="186.667" y="500" type="line"/>
      <point x="73.3333" y="500" type="line"/>
      <point x="73.3333" y="0" type="line"/>
    </contour>
    <contour>
      <point x="186.667" y="256.667" type="line"/>
      <point x="258.333" y="256.667" type="line" smooth="yes"/>
      <point x="324.333" y="256.667"/>
      <point x="353.333" y="227"/>
      <point x="353.333" y="166.667" type="curve" smooth="yes"/>
      <point x="353.333" y="106.333"/>
      <point x="324.333" y="76.6667"/>
      <point x="258.333" y="76.6667" type="curve" smooth="yes"/>
      <point x="186.667" y="76.6667" type="line"/>
    </contour>
    <contour>
      <point x="658.333" y="0" type="line"/>
      <point x="658.333" y="500" type="line"/>
      <point x="545" y="500" type="line"/>
      <point x="545" y="0" type="line"/>
    </contour>
  </outline>
</glyph>
<glyph name="ia-cy" format="2">
  <advance width="522"/>
  <unicode hex="044F"/>
  <outline>
    <contour>
      <point x="91.6667" y="-10" type="curve" smooth="yes"/>
      <point x="152.667" y="-10"/>
      <point x="181" y="21"/>
      <point x="196.667" y="73.3333" type="curve" smooth="yes"/>
      <point x="216.667" y="140" type="line" smooth="yes"/>
      <point x="225" y="169.667"/>
      <point x="244" y="186.667"/>
      <point x="273.333" y="186.667" type="curve" smooth="yes"/>
      <point x="335" y="186.667" type="line"/>
      <point x="335" y="0" type="line"/>
      <point x="448.333" y="0" type="line"/>
      <point x="448.333" y="500" type="line"/>
      <point x="258.333" y="500" type="line" smooth="yes"/>
      <point x="113.333" y="500"/>
      <point x="51.6667" y="438.667"/>
      <point x="51.6667" y="345" type="curve" smooth="yes"/>
      <point x="51.6667" y="286"/>
      <point x="81.6667" y="256"/>
      <point x="113.333" y="237" type="curve" smooth="yes"/>
      <point x="131" y="226"/>
      <point x="151.333" y="219"/>
      <point x="175" y="215" type="curve"/>
      <point x="164.667" y="212.333"/>
      <point x="155" y="208"/>
      <point x="146.667" y="203.333" type="curve" smooth="yes"/>
      <point x="131.667" y="194.667"/>
      <point x="115.333" y="180.333"/>
      <point x="108.333" y="156.667" type="curve" smooth="yes"/>
      <point x="90" y="95" type="line" smooth="yes"/>
      <point x="84.6667" y="76.6667"/>
      <point x="74.6667" y="66.6667"/>
      <point x="61.6667" y="66.6667" type="curve" smooth="yes"/>
      <point x="57.6667" y="66.6667"/>
      <point x="52.6667" y="67.6667"/>
      <point x="47.6667" y="68.6667" type="curve"/>
      <point x="41.6667" y="71.6667" type="line"/>
      <point x="36.6667" y="71.6667" type="line"/>
      <point x="25" y="1.66667" type="line"/>
      <point x="30.6667" y="-0.666667"/>
      <point x="36.6667" y="-2.66667"/>
      <point x="44" y="-4.33333" type="curve"/>
      <point x="57" y="-7.66667"/>
      <point x="72.6667" y="-10"/>
    </contour>
    <contour>
      <point x="258.333" y="263.333" type="line" smooth="yes"/>
      <point x="193.333" y="263.333"/>
      <point x="165" y="290.333"/>
      <point x="165" y="343.333" type="curve" smooth="yes"/>
      <point x="165" y="396.333"/>
      <point x="193.333" y="423.333"/>
      <point x="258.333" y="423.333" type="curve" smooth="yes"/>
      <point x="335" y="423.333" type="line"/>
      <point x="335" y="263.333" type="line"/>
    </contour>
  </outline>
</glyph>
<glyph name="lje-cy" format="2">
  <advance width="773"/>
  <unicode hex="0459"/>
  <outline>
    <contour>
      <point x="68.3333" y="-10" type="curve" smooth="yes"/>
      <point x="148.667" y="-10"/>
      <point x="198" y="41.3333"/>
      <point x="205" y="160" type="curve" smooth="yes"/>
      <point x="220" y="423.333" type="line"/>
      <point x="346.667" y="423.333" type="line"/>
      <point x="346.667" y="0" type="line"/>
      <point x="541.667" y="0" type="line" smooth="yes"/>
      <point x="690" y="0"/>
      <point x="750" y="60"/>
      <point x="750" y="166.667" type="curve" smooth="yes"/>
      <point x="750" y="273.333"/>
      <point x="690" y="333.333"/>
      <point x="541.667" y="333.333" type="curve" smooth="yes"/>
      <point x="460" y="333.333" type="line"/>
      <point x="460" y="500" type="line"/>
      <point x="113.333" y="500" type="line"/>
      <point x="93.3333" y="160" type="line" smooth="yes"/>
      <point x="88.6667" y="86.6667"/>
      <point x="68.3333" y="66.6667"/>
      <point x="45" y="66.6667" type="curve" smooth="yes"/>
      <point x="41" y="66.6667"/>
      <point x="36" y="67.6667"/>
      <point x="31" y="68.6667" type="curve"/>
      <point x="25" y="71.6667" type="line"/>
      <point x="15" y="71.6667" type="line"/>
      <point x="8.33333" y="1.66667" type="line"/>
      <point x="12.8414" y="-0.0938554"/>
      <point x="21.0064" y="-3.18414"/>
      <point x="26.3333" y="-4.33333" type="curve"/>
      <point x="38" y="-7.66667"/>
      <point x="52" y="-10"/>
    </contour>
    <contour>
      <point x="460" y="256.667" type="line"/>
      <point x="541.667" y="256.667" type="line" smooth="yes"/>
      <point x="607.667" y="256.667"/>
      <point x="636.667" y="227"/>
      <point x="636.667" y="166.667" type="curve" smooth="yes"/>
      <point x="636.667" y="106.333"/>
      <point x="607.667" y="76.6667"/>
      <point x="541.667" y="76.6667" type="curve" smooth="yes"/>
      <point x="460" y="76.6667" type="line"/>
    </contour>
  </outline>
</glyph>
<glyph name="yat-cy" format="2">
  <advance width="523"/>
  <unicode hex="0463"/>
  <outline>
    <contour>
      <point x="291.667" y="0" type="line" smooth="yes"/>
      <point x="440" y="0"/>
      <point x="500" y="60"/>
      <point x="500" y="166.667" type="curve" smooth="yes"/>
      <point x="500" y="273.333"/>
      <point x="440" y="333.333"/>
      <point x="291.667" y="333.333" type="curve" smooth="yes"/>
      <point x="210" y="333.333" type="line"/>
      <point x="210" y="700" type="line"/>
      <point x="96.6667" y="700" type="line"/>
      <point x="96.6667" y="0" type="line"/>
    </contour>
    <contour>
      <point x="210" y="256.667" type="line"/>
      <point x="291.667" y="256.667" type="line" smooth="yes"/>
      <point x="357.667" y="256.667"/>
      <point x="386.667" y="227"/>
      <point x="386.667" y="166.667" type="curve" smooth="yes"/>
      <point x="386.667" y="106.333"/>
      <point x="357.667" y="76.6667"/>
      <point x="291.667" y="76.6667" type="curve" smooth="yes"/>
      <point x="210" y="76.6667" type="line"/>
    </contour>
    <contour>
      <point x="358.333" y="423.333" type="line"/>
      <point x="358.333" y="500" type="line"/>
      <point x="15" y="500" type="line"/>
      <point x="15" y="423.333" type="line"/>
    </contour>
  </outline>
</glyph>
<glyph name="Yusbig-cy" format="2">
  <advance width="873"/>
  <unicode hex="046A"/>
  <outline>
    <contour>
      <point x="93.3333" y="-10" type="curve" smooth="yes"/>
      <point x="160.333" y="-10"/>
      <point x="199" y="31.3333"/>
      <point x="211.667" y="90" type="curve" smooth="yes"/>
      <point x="246.667" y="250" type="line"/>
      <point x="257.667" y="295"/>
      <point x="282.667" y="321.667"/>
      <point x="331.667" y="321.667" type="curve" smooth="yes"/>
      <point x="380" y="321.667" type="line"/>
      <point x="380" y="0" type="line"/>
      <point x="493.333" y="0" type="line"/>
      <point x="493.333" y="321.667" type="line"/>
      <point x="541.667" y="321.667" type="line" smooth="yes"/>
      <point x="590.667" y="321.667"/>
      <point x="615.667" y="295"/>
      <point x="626.667" y="250" type="curve"/>
      <point x="661.667" y="90" type="line" smooth="yes"/>
      <point x="674.333" y="31.3333"/>
      <point x="713" y="-10"/>
      <point x="780" y="-10" type="curve" smooth="yes"/>
      <point x="806" y="-10"/>
      <point x="827.333" y="-6.66667"/>
      <point x="848.333" y="1.66667" type="curve"/>
      <point x="838.333" y="71.6667" type="line"/>
      <point x="833.333" y="71.6667" type="line"/>
      <point x="826" y="67.6667"/>
      <point x="822" y="66.6667"/>
      <point x="813.667" y="66.6667" type="curve" smooth="yes"/>
      <point x="794" y="66.6667"/>
      <point x="781.333" y="80.6667"/>
      <point x="775" y="108.333" type="curve" smooth="yes"/>
      <point x="741.667" y="261.667" type="line"/>
      <point x="720.667" y="346.333"/>
      <point x="679.667" y="380"/>
      <point x="548.667" y="387.333" type="curve"/>
      <point x="749.667" y="700" type="line"/>
      <point x="120.333" y="700" type="line"/>
      <point x="321.333" y="386.333" type="line"/>
      <point x="186" y="377.667"/>
      <point x="148.333" y="335"/>
      <point x="131.667" y="261.667" type="curve" smooth="yes"/>
      <point x="98.3333" y="108.333" type="line" smooth="yes"/>
      <point x="92" y="80.6667"/>
      <point x="78.6667" y="66.6667"/>
      <point x="59.6667" y="66.6667" type="curve" smooth="yes"/>
      <point x="51.6667" y="66.6667"/>
      <point x="46.3333" y="68"/>
      <point x="40" y="71.6667" type="curve"/>
      <point x="35" y="71.6667" type="line"/>
      <point x="25" y="1.66667" type="line"/>
      <point x="42.3333" y="-5.66667"/>
      <point x="62" y="-10"/>
    </contour>
    <contour>
      <point x="278" y="623.333" type="line"/>
      <point x="593.667" y="623.333" type="line"/>
      <point x="438.333" y="371.667" type="line"/>
      <point x="434.333" y="371.667" type="line"/>
    </contour>
  </outline>
  <guideline angle="90" x="380" y="0"/>
  <guideline angle="90" x="480" y="0"/>
</glyph>
<glyph name="yusbig-cy" format="2">
  <advance width="750"/>
  <unicode hex="046B"/>
  <outline>
    <contour>
      <point x="90" y="-10" type="curve" smooth="yes"/>
      <point x="151" y="-10"/>
      <point x="181.333" y="21.6667"/>
      <point x="195" y="73.3333" type="curve" smooth="yes"/>
      <point x="220" y="170" type="line" smooth="yes"/>
      <point x="227.333" y="199"/>
      <point x="246.333" y="216.667"/>
      <point x="280" y="216.667" type="curve" smooth="yes"/>
      <point x="318.333" y="216.667" type="line"/>
      <point x="318.333" y="0" type="line"/>
      <point x="431.667" y="0" type="line"/>
      <point x="431.667" y="216.667" type="line"/>
      <point x="470" y="216.667" type="line" smooth="yes"/>
      <point x="503.667" y="216.667"/>
      <point x="522.667" y="199"/>
      <point x="530" y="170" type="curve" smooth="yes"/>
      <point x="555" y="73.3333" type="line" smooth="yes"/>
      <point x="568.667" y="21.6667"/>
      <point x="599" y="-10"/>
      <point x="660" y="-10" type="curve" smooth="yes"/>
      <point x="683.333" y="-10"/>
      <point x="708.667" y="-5.66667"/>
      <point x="726.667" y="1.66667" type="curve"/>
      <point x="715" y="71.6667" type="line"/>
      <point x="710" y="71.6667" type="line"/>
      <point x="703.333" y="68.3333"/>
      <point x="697.333" y="66.6667"/>
      <point x="691" y="66.6667" type="curve" smooth="yes"/>
      <point x="676.667" y="66.6667"/>
      <point x="666.333" y="76.3333"/>
      <point x="661.667" y="95" type="curve" smooth="yes"/>
      <point x="638.333" y="185" type="line" smooth="yes"/>
      <point x="623" y="244.667"/>
      <point x="582" y="267.667"/>
      <point x="469" y="269.333" type="curve"/>
      <point x="630" y="500" type="line"/>
      <point x="114" y="500" type="line"/>
      <point x="275" y="269" type="line"/>
      <point x="165.333" y="267"/>
      <point x="127" y="245"/>
      <point x="111.667" y="185" type="curve" smooth="yes"/>
      <point x="88.3333" y="95" type="line" smooth="yes"/>
      <point x="83.6667" y="76.6667"/>
      <point x="73.6667" y="66.6667"/>
      <point x="60" y="66.6667" type="curve" smooth="yes"/>
      <point x="52.3333" y="66.6667"/>
      <point x="46.6667" y="68.3333"/>
      <point x="40" y="71.6667" type="curve"/>
      <point x="35" y="71.6667" type="line"/>
      <point x="23.3333" y="1.66667" type="line"/>
      <point x="40.3333" y="-5"/>
      <point x="65.6667" y="-10"/>
    </contour>
    <contour>
      <point x="267" y="423.333" type="line"/>
      <point x="481.667" y="423.333" type="line"/>
      <point x="377" y="256.667" type="line"/>
      <point x="371.667" y="256.667" type="line"/>
    </contour>
  </outline>
</glyph>
<glyph name="Izhitsa-cy" format="2">
  <advance width="564"/>
  <unicode hex="0474"/>
  <outline>
    <contour>
      <point x="345" y="0" type="line"/>
      <point x="489" y="540" type="line" smooth="yes"/>
      <point x="508.333" y="612.333"/>
      <point x="529.667" y="633.667"/>
      <point x="553.667" y="633.667" type="curve" smooth="yes"/>
      <point x="562" y="633.667"/>
      <point x="568.333" y="631.667"/>
      <point x="574.667" y="628.333" type="curve"/>
      <point x="579" y="628.333" type="line"/>
      <point x="585.667" y="698.333" type="line"/>
      <point x="565.333" y="706"/>
      <point x="550.667" y="710"/>
      <point x="525.667" y="710" type="curve" smooth="yes"/>
      <point x="441.667" y="710"/>
      <point x="411" y="655"/>
      <point x="382.333" y="540" type="curve" smooth="yes"/>
      <point x="296.667" y="196.667" type="line"/>
      <point x="292.333" y="181.333"/>
      <point x="289.667" y="164.333"/>
      <point x="286.667" y="149.333" type="curve"/>
      <point x="283.667" y="125" type="line"/>
      <point x="279.667" y="125" type="line"/>
      <point x="275.667" y="149.667" type="line"/>
      <point x="272.667" y="164.667"/>
      <point x="270.667" y="181.333"/>
      <point x="266.667" y="196.667" type="curve" smooth="yes"/>
      <point x="128.333" y="700" type="line"/>
      <point x="15" y="700" type="line"/>
      <point x="211.667" y="0" type="line"/>
    </contour>
  </outline>
</glyph>
<glyph name="izhitsa-cy" format="2">
  <advance width="483"/>
  <unicode hex="0475"/>
  <outline>
    <contour>
      <point x="305" y="0" type="line"/>
      <point x="405.333" y="340.333" type="line" smooth="yes"/>
      <point x="426" y="410.667"/>
      <point x="444.667" y="433.667"/>
      <point x="461.333" y="433.667" type="curve" smooth="yes"/>
      <point x="468.667" y="433.667"/>
      <point x="474.333" y="432.667"/>
      <point x="480.667" y="428.667" type="curve"/>
      <point x="487.333" y="428.667" type="line"/>
      <point x="497.667" y="498.667" type="line"/>
      <point x="480.333" y="506"/>
      <point x="463.667" y="510.333"/>
      <point x="438" y="510.333" type="curve" smooth="yes"/>
      <point x="357.667" y="510.333"/>
      <point x="326.667" y="464"/>
      <point x="295" y="340.333" type="curve" smooth="yes"/>
      <point x="252.667" y="176" type="line" smooth="yes"/>
      <point x="248" y="158.667"/>
      <point x="245" y="147"/>
      <point x="242" y="111.667" type="curve"/>
      <point x="238" y="111.667" type="line"/>
      <point x="235" y="147"/>
      <point x="232.333" y="158.667"/>
      <point x="226.667" y="176.667" type="curve" smooth="yes"/>
      <point x="126.667" y="500" type="line"/>
      <point x="13.3333" y="500" type="line"/>
      <point x="175" y="0" type="line"/>
    </contour>
  </outline>
</glyph>
<glyph name="gheupturn-cy" format="2">
  <advance width="420"/>
  <unicode hex="0491"/>
  <outline>
    <contour>
      <point x="186.667" y="0" type="line"/>
      <point x="186.667" y="423.333" type="line"/>
      <point x="410" y="423.333" type="line"/>
      <point x="410" y="593.333" type="line"/>
      <point x="325" y="593.333" type="line"/>
      <point x="313.333" y="500" type="line"/>
      <point x="73.3333" y="500" type="line"/>
      <point x="73.3333" y="0" type="line"/>
    </contour>
  </outline>
</glyph>
<glyph name="Ghemiddlehook-cy" format="2">
  <advance width="590"/>
  <unicode hex="0494"/>
  <outline>
    <component base="Ge-cy"/>
    <contour>
      <point x="386.667" y="-100" type="curve" smooth="yes"/>
      <point x="486" y="-100"/>
      <point x="551.667" y="-34"/>
      <point x="551.667" y="63.3333" type="curve" smooth="yes"/>
      <point x="551.667" y="211.667" type="line" smooth="yes"/>
      <point x="551.667" y="330"/>
      <point x="472.667" y="410"/>
      <point x="335" y="410" type="curve" smooth="yes"/>
      <point x="296.667" y="410"/>
      <point x="263.333" y="406"/>
      <point x="239.667" y="402" type="curve" smooth="yes"/>
      <point x="201.667" y="395" type="line"/>
      <point x="201.667" y="318.333" type="line"/>
      <point x="232.667" y="325.333" type="line" smooth="yes"/>
      <point x="252.333" y="329.333"/>
      <point x="278.667" y="333.333"/>
      <point x="310" y="333.333" type="curve" smooth="yes"/>
      <point x="392.333" y="333.333"/>
      <point x="438.333" y="288"/>
      <point x="438.333" y="211.667" type="curve" smooth="yes"/>
      <point x="438.333" y="63.3333" type="line" smooth="yes"/>
      <point x="438.333" y="4.66667"/>
      <point x="410.333" y="-23.3333"/>
      <point x="370" y="-23.3333" type="curve" smooth="yes"/>
      <point x="356" y="-23.3333"/>
      <point x="338" y="-19.6667"/>
      <point x="323.333" y="-13.3333" type="curve"/>
      <point x="313.333" y="-13.3333" type="line"/>
      <point x="301.667" y="-83.3333" type="line"/>
      <point x="326.333" y="-94"/>
      <point x="355.333" y="-100"/>
    </contour>
  </outline>
</glyph>
<glyph name="zhedescender-cy" format="2">
  <advance width="750"/>
  <unicode hex="0497"/>
  <outline>
    <component base="zhe-cy"/>
    <contour>
      <point x="726.667" y="-140" type="line"/>
      <point x="726.667" y="1.66667" type="line"/>
      <point x="621.667" y="0" type="line"/>
      <point x="638.333" y="-140" type="line"/>
    </contour>
  </outline>
</glyph>
<glyph name="Kadescender-cy" format="2">
  <advance width="595"/>
  <unicode hex="049A"/>
  <outline>
    <component base="Ka-cy"/>
    <contour>
      <point x="570" y="-150" type="line"/>
      <point x="570" y="1.66667" type="line"/>
      <point x="465" y="0" type="line"/>
      <point x="481.667" y="-150" type="line"/>
    </contour>
  </outline>
</glyph>
<glyph name="kadescender-cy" format="2">
  <advance width="520"/>
  <unicode hex="049B"/>
  <outline>
    <component base="ka-cy"/>
    <contour>
      <point x="496.667" y="-140" type="line"/>
      <point x="496.667" y="1.66667" type="line"/>
      <point x="391.667" y="0" type="line"/>
      <point x="408.333" y="-140" type="line"/>
    </contour>
  </outline>
</glyph>
<glyph name="Kaverticalstroke-cy" format="2">
  <advance width="625"/>
  <unicode hex="049C"/>
  <outline>
    <component base="verticalbar-cy.case" xScale="1" xOffset="216.333" yOffset="-17"/>
    <contour>
      <point x="531.667" y="-10" type="curve" smooth="yes"/>
      <point x="553.333" y="-10"/>
      <point x="570.333" y="-8.33333"/>
      <point x="582.667" y="-4.33333" type="curve" smooth="yes"/>
      <point x="588.129" y="-2.46809"/>
      <point x="596.299" y="-0.0427874"/>
      <point x="600" y="1.66667" type="curve"/>
      <point x="590" y="71.6667" type="line"/>
      <point x="585" y="71.6667" type="line"/>
      <point x="579" y="68.6667" type="line"/>
      <point x="574" y="67.6667"/>
      <point x="569" y="66.6667"/>
      <point x="565.333" y="66.6667" type="curve" smooth="yes"/>
      <point x="545.667" y="66.6667"/>
      <point x="533" y="80.6667"/>
      <point x="526.667" y="108.333" type="curve" smooth="yes"/>
      <point x="493.333" y="261.667" type="line"/>
      <point x="482.333" y="306"/>
      <point x="456.667" y="331.333"/>
      <point x="431.667" y="346.667" type="curve" smooth="yes"/>
      <point x="417.333" y="355.667"/>
      <point x="401.667" y="361.333"/>
      <point x="385" y="365" type="curve"/>
      <point x="401.667" y="368"/>
      <point x="416.667" y="373.333"/>
      <point x="430" y="381" type="curve" smooth="yes"/>
      <point x="453.333" y="394"/>
      <point x="478.667" y="417.667"/>
      <point x="486.667" y="460" type="curve" smooth="yes"/>
      <point x="511.667" y="591.667" type="line" smooth="yes"/>
      <point x="517.333" y="620"/>
      <point x="530.333" y="633.333"/>
      <point x="550" y="633.333" type="curve" smooth="yes"/>
      <point x="555" y="633.333"/>
      <point x="560" y="631.333"/>
      <point x="564" y="630.333" type="curve"/>
      <point x="567" y="629.333"/>
      <point x="569" y="629.333"/>
      <point x="570" y="628.333" type="curve"/>
      <point x="575" y="628.333" type="line"/>
      <point x="585" y="698.333" type="line"/>
      <point x="567" y="704" type="line" smooth="yes"/>
      <point x="554.667" y="708"/>
      <point x="538.333" y="710"/>
      <point x="516.667" y="710" type="curve" smooth="yes"/>
      <point x="449.667" y="710"/>
      <point x="409.667" y="668.667"/>
      <point x="398.333" y="610" type="curve" smooth="yes"/>
      <point x="371.667" y="471.667" type="line" smooth="yes"/>
      <point x="362.667" y="424.667"/>
      <point x="336" y="398.333"/>
      <point x="271.667" y="398.333" type="curve" smooth="yes"/>
      <point x="201.667" y="398.333" type="line"/>
      <point x="201.667" y="700" type="line"/>
      <point x="88.3333" y="700" type="line"/>
      <point x="88.3333" y="0" type="line"/>
      <point x="201.667" y="0" type="line"/>
      <point x="201.667" y="321.667" type="line"/>
      <point x="283.333" y="321.667" type="line" smooth="yes"/>
      <point x="342.333" y="321.667"/>
      <point x="367.333" y="295"/>
      <point x="378.333" y="250" type="curve"/>
      <point x="413.333" y="90" type="line" smooth="yes"/>
      <point x="426" y="31.3333"/>
      <point x="464.667" y="-10"/>
    </contour>
  </outline>
</glyph>
<glyph name="kaverticalstroke-cy" format="2">
  <advance width="549"/>
  <unicode hex="049D"/>
  <outline>
    <component base="verticalbar-cy" xyScale="1.40036e-19" xOffset="184" yOffset="-3.66667"/>
    <contour>
      <point x="459.333" y="-10" type="curve" smooth="yes"/>
      <point x="478.333" y="-10"/>
      <point x="494" y="-7.66667"/>
      <point x="507" y="-4.33333" type="curve" smooth="yes"/>
      <point x="514.333" y="-2.33333"/>
      <point x="520.333" y="-0.666667"/>
      <point x="526" y="1.66667" type="curve"/>
      <point x="514.333" y="71.6667" type="line"/>
      <point x="509.333" y="71.6667" type="line"/>
      <point x="503.333" y="68.6667" type="line"/>
      <point x="498.333" y="67.6667"/>
      <point x="493.333" y="66.6667"/>
      <point x="489.333" y="66.6667" type="curve" smooth="yes"/>
      <point x="475.667" y="66.6667"/>
      <point x="465.667" y="76.6667"/>
      <point x="461" y="95" type="curve" smooth="yes"/>
      <point x="437.667" y="185" type="line" smooth="yes"/>
      <point x="429.667" y="217"/>
      <point x="406" y="235.333"/>
      <point x="385" y="247" type="curve" smooth="yes"/>
      <point x="372.667" y="253.667"/>
      <point x="359" y="258"/>
      <point x="344.333" y="260" type="curve"/>
      <point x="357.667" y="261.667"/>
      <point x="369.333" y="265.667"/>
      <point x="380.667" y="270.667" type="curve" smooth="yes"/>
      <point x="400" y="279.333"/>
      <point x="420.333" y="295"/>
      <point x="427.667" y="325" type="curve" smooth="yes"/>
      <point x="447.667" y="405" type="line" smooth="yes"/>
      <point x="452.333" y="423.333"/>
      <point x="462.333" y="433.333"/>
      <point x="476" y="433.333" type="curve" smooth="yes"/>
      <point x="481" y="433.333"/>
      <point x="486" y="431.333"/>
      <point x="490" y="430.333" type="curve"/>
      <point x="493" y="429.333"/>
      <point x="495" y="429.333"/>
      <point x="496" y="428.333" type="curve"/>
      <point x="501" y="428.333" type="line"/>
      <point x="512.667" y="498.333" type="line"/>
      <point x="508.618" y="499.504"/>
      <point x="498.346" y="502.408"/>
      <point x="493.667" y="504" type="curve" smooth="yes"/>
      <point x="481.333" y="508"/>
      <point x="465" y="510"/>
      <point x="446" y="510" type="curve" smooth="yes"/>
      <point x="384.333" y="510"/>
      <point x="353.667" y="479"/>
      <point x="341" y="426.667" type="curve" smooth="yes"/>
      <point x="319.333" y="340" type="line" smooth="yes"/>
      <point x="312.333" y="311"/>
      <point x="295.667" y="293.333"/>
      <point x="259.333" y="293.333" type="curve" smooth="yes"/>
      <point x="186.667" y="293.333" type="line"/>
      <point x="186.667" y="500" type="line"/>
      <point x="73.3333" y="500" type="line"/>
      <point x="73.3333" y="0" type="line"/>
      <point x="186.667" y="0" type="line"/>
      <point x="186.667" y="216.667" type="line"/>
      <point x="269.333" y="216.667" type="line" smooth="yes"/>
      <point x="303" y="216.667"/>
      <point x="322" y="199"/>
      <point x="329.333" y="170" type="curve" smooth="yes"/>
      <point x="354.333" y="73.3333" type="line" smooth="yes"/>
      <point x="368" y="21.6667"/>
      <point x="398.333" y="-10"/>
    </contour>
  </outline>
</glyph>
<glyph name="kabashkir-cy" format="2">
  <advance width="603"/>
  <unicode hex="04A1"/>
  <outline>
    <component base="ka-cy" xScale="1" xOffset="83.3333"/>
    <contour>
      <point x="156.667" y="423.333" type="line"/>
      <point x="270" y="500" type="line"/>
      <point x="10" y="500" type="line"/>
      <point x="10" y="423.333" type="line"/>
    </contour>
  </outline>
</glyph>
<glyph name="Esdescender-cy" format="2">
  <advance width="522"/>
  <unicode hex="04AA"/>
  <outline>
    <component base="Es-cy"/>
    <contour>
      <point x="362.667" y="-150" type="line"/>
      <point x="362.667" y="1.66667" type="line"/>
      <point x="257.667" y="0" type="line"/>
      <point x="274.333" y="-150" type="line"/>
    </contour>
  </outline>
</glyph>
<glyph name="ustrait-cy" format="2">
  <advance width="480"/>
  <unicode hex="04AF"/>
  <anchor x="238" y="0" name="center"/>
  <outline>
    <contour>
      <point x="263.333" y="-200" type="line"/>
      <point x="296.667" y="-166.667" type="line"/>
      <point x="296.667" y="0" type="line"/>
      <point x="466.667" y="500" type="line"/>
      <point x="353.333" y="500" type="line"/>
      <point x="253.333" y="192.667" type="line" smooth="yes"/>
      <point x="249" y="179"/>
      <point x="247" y="164"/>
      <point x="244.667" y="150.333" type="curve"/>
      <point x="242" y="127.667" type="line"/>
      <point x="238" y="127.667" type="line"/>
      <point x="235.333" y="150.333" type="line"/>
      <point x="233" y="164"/>
      <point x="231" y="179"/>
      <point x="226.667" y="192.667" type="curve" smooth="yes"/>
      <point x="126.667" y="500" type="line"/>
      <point x="13.3333" y="500" type="line"/>
      <point x="183.333" y="0" type="line"/>
      <point x="183.333" y="-200" type="line"/>
    </contour>
  </outline>
</glyph>
<glyph name="Chekhakassian-cy" format="2">
  <advance width="610"/>
  <unicode hex="04CB"/>
  <outline>
    <component base="Che-cy"/>
    <contour>
      <point x="431.667" y="-150" type="line"/>
      <point x="448.333" y="0" type="line"/>
      <point x="521.667" y="0" type="line"/>
      <point x="521.667" y="76.6667" type="line"/>
      <point x="343.333" y="76.6667" type="line"/>
      <point x="343.333" y="-150" type="line"/>
    </contour>
  </outline>
</glyph>
<glyph name="quotedblleft" format="2">
  <advance width="377"/>
  <unicode hex="201C"/>
  <outline>
    <contour>
      <point x="278.333" y="458.333" type="curve" smooth="yes"/>
      <point x="310.667" y="458.333"/>
      <point x="338.333" y="486.667"/>
      <point x="338.333" y="523.333" type="curve" smooth="yes"/>
      <point x="338.333" y="560"/>
      <point x="310.667" y="588.333"/>
      <point x="276.667" y="588.333" type="curve"/>
      <point x="276.667" y="612"/>
      <point x="290" y="632.333"/>
      <point x="305.333" y="648" type="curve"/>
      <point x="313.667" y="657"/>
      <point x="323.333" y="665.667"/>
      <point x="335" y="673.333" type="curve"/>
      <point x="305" y="710" type="line"/>
      <point x="286.667" y="699.333"/>
      <point x="270.667" y="685.333"/>
      <point x="256.667" y="668.333" type="curve"/>
      <point x="232" y="640"/>
      <point x="208.333" y="595.333"/>
      <point x="208.333" y="533.333" type="curve" smooth="yes"/>
      <point x="208.333" y="486.333"/>
      <point x="236.667" y="458.333"/>
    </contour>
    <contour>
      <point x="108.333" y="458.333" type="curve" smooth="yes"/>
      <point x="140.667" y="458.333"/>
      <point x="168.333" y="486.667"/>
      <point x="168.333" y="523.333" type="curve" smooth="yes"/>
      <point x="168.333" y="560"/>
      <point x="140.667" y="588.333"/>
      <point x="106.667" y="588.333" type="curve"/>
      <point x="106.667" y="612"/>
      <point x="120" y="632.333"/>
      <point x="135.333" y="648" type="curve"/>
      <point x="143.667" y="657"/>
      <point x="153.333" y="665.667"/>
      <point x="165" y="673.333" type="curve"/>
      <point x="135" y="710" type="line"/>
      <point x="116.667" y="699.333"/>
      <point x="100.667" y="685.333"/>
      <point x="86.6667" y="668.333" type="curve"/>
      <point x="62" y="640"/>
      <point x="38.3333" y="595.333"/>
      <point x="38.3333" y="533.333" type="curve" smooth="yes"/>
      <point x="38.3333" y="486.333"/>
      <point x="66.6667" y="458.333"/>
    </contour>
  </outline>
</glyph>
<glyph name="quotedblright" format="2">
  <advance width="377"/>
  <unicode hex="201D"/>
  <outline>
    <contour>
      <point x="241.667" y="458.333" type="line"/>
      <point x="259.667" y="469"/>
      <point x="275.667" y="483"/>
      <point x="290" y="500" type="curve" smooth="yes"/>
      <point x="314.333" y="528.333"/>
      <point x="338.333" y="571.333"/>
      <point x="338.333" y="635" type="curve" smooth="yes"/>
      <point x="338.333" y="682"/>
      <point x="310" y="710"/>
      <point x="268.333" y="710" type="curve" smooth="yes"/>
      <point x="236" y="710"/>
      <point x="208.333" y="681.667"/>
      <point x="208.333" y="645" type="curve" smooth="yes"/>
      <point x="208.333" y="608.333"/>
      <point x="236" y="580"/>
      <point x="270" y="580" type="curve"/>
      <point x="270" y="556.333"/>
      <point x="255.667" y="536"/>
      <point x="240.333" y="520.333" type="curve"/>
      <point x="232" y="511.333"/>
      <point x="222.333" y="502.667"/>
      <point x="211.667" y="495" type="curve"/>
    </contour>
    <contour>
      <point x="71.6667" y="458.333" type="line"/>
      <point x="89.6667" y="469"/>
      <point x="105.667" y="483"/>
      <point x="120" y="500" type="curve" smooth="yes"/>
      <point x="144.333" y="528.333"/>
      <point x="168.333" y="571.333"/>
      <point x="168.333" y="635" type="curve" smooth="yes"/>
      <point x="168.333" y="682"/>
      <point x="140" y="710"/>
      <point x="98.3333" y="710" type="curve" smooth="yes"/>
      <point x="66" y="710"/>
      <point x="38.3333" y="681.667"/>
      <point x="38.3333" y="645" type="curve" smooth="yes"/>
      <point x="38.3333" y="608.333"/>
      <point x="66" y="580"/>
      <point x="100" y="580" type="curve"/>
      <point x="100" y="556.333"/>
      <point x="85.6667" y="536"/>
      <point x="70.3333" y="520.333" type="curve"/>
      <point x="62" y="511.333"/>
      <point x="52.3333" y="502.667"/>
      <point x="41.6667" y="495" type="curve"/>
    </contour>
  </outline>
</glyph>
<glyph name="quotedblbase" format="2">
  <advance width="377"/>
  <unicode hex="201E"/>
  <outline>
    <contour>
      <point x="241.667" y="-131.667" type="line"/>
      <point x="259.667" y="-121"/>
      <point x="275.667" y="-107"/>
      <point x="290" y="-90" type="curve" smooth="yes"/>
      <point x="314.333" y="-61.6667"/>
      <point x="338.333" y="-18.6667"/>
      <point x="338.333" y="45" type="curve" smooth="yes"/>
      <point x="338.333" y="92"/>
      <point x="310" y="120"/>
      <point x="268.333" y="120" type="curve" smooth="yes"/>
      <point x="236" y="120"/>
      <point x="208.333" y="91.6667"/>
      <point x="208.333" y="55" type="curve" smooth="yes"/>
      <point x="208.333" y="18.3333"/>
      <point x="236" y="-10"/>
      <point x="270" y="-10" type="curve"/>
      <point x="270" y="-33.6667"/>
      <point x="255.667" y="-54"/>
      <point x="240.333" y="-69.6667" type="curve"/>
      <point x="232" y="-78.6667"/>
      <point x="222.333" y="-87.3333"/>
      <point x="211.667" y="-95" type="curve"/>
    </contour>
    <contour>
      <point x="71.6667" y="-131.667" type="line"/>
      <point x="89.6667" y="-121"/>
      <point x="105.667" y="-107"/>
      <point x="120" y="-90" type="curve" smooth="yes"/>
      <point x="144.333" y="-61.6667"/>
      <point x="168.333" y="-18.6667"/>
      <point x="168.333" y="45" type="curve" smooth="yes"/>
      <point x="168.333" y="92"/>
      <point x="140" y="120"/>
      <point x="98.3333" y="120" type="curve" smooth="yes"/>
      <point x="66" y="120"/>
      <point x="38.3333" y="91.6667"/>
      <point x="38.3333" y="55" type="curve" smooth="yes"/>
      <point x="38.3333" y="18.3333"/>
      <point x="66" y="-10"/>
      <point x="100" y="-10" type="curve"/>
      <point x="100" y="-33.6667"/>
      <point x="85.6667" y="-54"/>
      <point x="70.3333" y="-69.6667" type="curve"/>
      <point x="62" y="-78.6667"/>
      <point x="52.3333" y="-87.3333"/>
      <point x="41.6667" y="-95" type="curve"/>
    </contour>
  </outline>
</glyph>
<glyph name="dagger" format="2">
  <advance width="460"/>
  <unicode hex="2020"/>
  <outline>
    <contour>
      <point x="286.667" y="-200" type="line"/>
      <point x="286.667" y="403.333" type="line"/>
      <point x="440" y="403.333" type="line"/>
      <point x="440" y="480" type="line"/>
      <point x="286.667" y="480" type="line"/>
      <point x="286.667" y="700" type="line"/>
      <point x="173.333" y="700" type="line"/>
      <point x="173.333" y="480" type="line"/>
      <point x="20" y="480" type="line"/>
      <point x="20" y="403.333" type="line"/>
      <point x="173.333" y="403.333" type="line"/>
      <point x="173.333" y="-200" type="line"/>
    </contour>
  </outline>
</glyph>
<glyph name="bullet" format="2">
  <advance width="390"/>
  <unicode hex="2022"/>
  <outline>
    <contour>
      <point x="195" y="183.333" type="curve" smooth="yes"/>
      <point x="269" y="183.333"/>
      <point x="321.667" y="236"/>
      <point x="321.667" y="310" type="curve" smooth="yes"/>
      <point x="321.667" y="384"/>
      <point x="269" y="436.667"/>
      <point x="195" y="436.667" type="curve" smooth="yes"/>
      <point x="121" y="436.667"/>
      <point x="68.3333" y="384"/>
      <point x="68.3333" y="310" type="curve" smooth="yes"/>
      <point x="68.3333" y="236"/>
      <point x="121" y="183.333"/>
    </contour>
  </outline>
</glyph>
<glyph name="fraction" format="2">
  <advance width="443"/>
  <unicode hex="2044"/>
  <outline>
    <contour>
      <point x="23.3333" y="0" type="line"/>
      <point x="493.333" y="700" type="line"/>
      <point x="370" y="700" type="line"/>
      <point x="-100" y="0" type="line"/>
    </contour>
  </outline>
</glyph>
<glyph name="foursuperior" format="2">
  <advance width="383"/>
  <unicode hex="2074"/>
  <outline>
    <contour>
      <point x="300" y="360" type="line"/>
      <point x="300" y="426.667" type="line"/>
      <point x="348.333" y="426.667" type="line"/>
      <point x="348.333" y="493.333" type="line"/>
      <point x="300" y="493.333" type="line"/>
      <point x="300" y="700" type="line"/>
      <point x="201.667" y="700" type="line"/>
      <point x="31.6667" y="493.333" type="line"/>
      <point x="31.6667" y="426.667" type="line"/>
      <point x="200" y="426.667" type="line"/>
      <point x="200" y="360" type="line"/>
    </contour>
    <contour>
      <point x="183.667" y="574.667" type="line" smooth="yes"/>
      <point x="188" y="579.667"/>
      <point x="193" y="590.333"/>
      <point x="196.333" y="598.667" type="curve" smooth="yes"/>
      <point x="198" y="603"/>
      <point x="200.667" y="608.333"/>
      <point x="201.667" y="613.667" type="curve"/>
      <point x="205.667" y="613.667" type="line"/>
      <point x="202.667" y="599.333" type="line"/>
      <point x="200.667" y="591"/>
      <point x="200" y="582.667"/>
      <point x="200" y="575" type="curve" smooth="yes"/>
      <point x="200" y="493.333" type="line"/>
      <point x="116.667" y="493.333" type="line"/>
    </contour>
  </outline>
</glyph>
<glyph name="euro" format="2">
  <advance width="552"/>
  <unicode hex="20AC"/>
  <outline>
    <contour>
      <point x="350" y="-10" type="curve" smooth="yes"/>
      <point x="406.333" y="-10"/>
      <point x="450" y="2"/>
      <point x="481.333" y="17" type="curve" smooth="yes"/>
      <point x="499" y="25"/>
      <point x="515" y="34"/>
      <point x="528.333" y="45" type="curve"/>
      <point x="490" y="111.667" type="line"/>
      <point x="480" y="111.667" type="line"/>
      <point x="469.667" y="102.667"/>
      <point x="458.667" y="95.6667"/>
      <point x="446.667" y="88.6667" type="curve"/>
      <point x="425.667" y="77.6667"/>
      <point x="395.667" y="66.6667"/>
      <point x="360" y="66.6667" type="curve" smooth="yes"/>
      <point x="277.667" y="66.6667"/>
      <point x="219" y="113.333"/>
      <point x="201" y="256.667" type="curve"/>
      <point x="391.667" y="256.667" type="line"/>
      <point x="403.333" y="321.667" type="line"/>
      <point x="196.667" y="321.667" type="line"/>
      <point x="196.667" y="378.333" type="line"/>
      <point x="406" y="378.333" type="line"/>
      <point x="417.667" y="443.333" type="line"/>
      <point x="201" y="443.333" type="line"/>
      <point x="217" y="585.333"/>
      <point x="277.667" y="633.333"/>
      <point x="350" y="633.333" type="curve" smooth="yes"/>
      <point x="385.667" y="633.333"/>
      <point x="415.667" y="621.333"/>
      <point x="436.667" y="610.333" type="curve"/>
      <point x="448.667" y="603.333"/>
      <point x="459.667" y="596.333"/>
      <point x="470" y="588.333" type="curve"/>
      <point x="480" y="588.333" type="line"/>
      <point x="518.333" y="655" type="line"/>
      <point x="505" y="665"/>
      <point x="489" y="674"/>
      <point x="471.333" y="682" type="curve" smooth="yes"/>
      <point x="440" y="697"/>
      <point x="396.333" y="710"/>
      <point x="340" y="710" type="curve" smooth="yes"/>
      <point x="205" y="710"/>
      <point x="109.667" y="633.667"/>
      <point x="87.6667" y="443.333" type="curve"/>
      <point x="26.6667" y="443.333" type="line"/>
      <point x="15" y="378.333" type="line"/>
      <point x="83.3333" y="378.333" type="line"/>
      <point x="83.3333" y="321.667" type="line"/>
      <point x="21.6667" y="321.667" type="line"/>
      <point x="10" y="256.667" type="line"/>
      <point x="87.6667" y="256.667" type="line"/>
      <point x="109.667" y="65.6667"/>
      <point x="207.667" y="-10"/>
    </contour>
  </outline>
</glyph>
<glyph name="tugrik" format="2">
  <advance width="490"/>
  <unicode hex="20AE"/>
  <outline>
    <component base="T"/>
    <contour>
      <point x="436.333" y="411.667" type="line"/>
      <point x="436.333" y="476.667" type="line"/>
      <point x="54.6667" y="376.667" type="line"/>
      <point x="54.6667" y="311.667" type="line"/>
    </contour>
    <contour>
      <point x="436.333" y="290" type="line"/>
      <point x="436.333" y="355" type="line"/>
      <point x="54.6667" y="255" type="line"/>
      <point x="54.6667" y="190" type="line"/>
    </contour>
  </outline>
</glyph>
<glyph name="hryvnia" format="2">
  <advance width="528"/>
  <unicode hex="20B4"/>
  <outline>
    <contour>
      <point x="281.667" y="-10" type="curve" smooth="yes"/>
      <point x="365.667" y="-10"/>
      <point x="443.667" y="13.3333"/>
      <point x="496.333" y="45" type="curve"/>
      <point x="458" y="111.667" type="line"/>
      <point x="448" y="111.667" type="line"/>
      <point x="411.333" y="85.6667"/>
      <point x="351.667" y="65.3333"/>
      <point x="285.667" y="65.3333" type="curve" smooth="yes"/>
      <point x="216.667" y="65.3333"/>
      <point x="171.333" y="103.667"/>
      <point x="171.333" y="165.333" type="curve" smooth="yes"/>
      <point x="171.333" y="241"/>
      <point x="207.667" y="286.333"/>
      <point x="313" y="338.333" type="curve" smooth="yes"/>
      <point x="417" y="389.667"/>
      <point x="491.333" y="438"/>
      <point x="491.333" y="533.333" type="curve" smooth="yes"/>
      <point x="491.333" y="651.667"/>
      <point x="399" y="710"/>
      <point x="277.667" y="710" type="curve" smooth="yes"/>
      <point x="196.667" y="710"/>
      <point x="125.333" y="688.667"/>
      <point x="71.3333" y="655" type="curve"/>
      <point x="109.667" y="588.333" type="line"/>
      <point x="119.667" y="588.333" type="line"/>
      <point x="153.333" y="614.667"/>
      <point x="202" y="633.333"/>
      <point x="255.667" y="633.333" type="curve" smooth="yes"/>
      <point x="325.667" y="633.333"/>
      <point x="371.333" y="597.667"/>
      <point x="371.333" y="530" type="curve" smooth="yes"/>
      <point x="371.333" y="471.333"/>
      <point x="346" y="431"/>
      <point x="241.333" y="380.333" type="curve"/>
      <point x="117" y="318"/>
      <point x="48" y="266.333"/>
      <point x="48" y="160" type="curve" smooth="yes"/>
      <point x="48" y="51.6667"/>
      <point x="144" y="-10"/>
    </contour>
    <contour>
      <point x="513.333" y="250" type="line"/>
      <point x="513.333" y="321.667" type="line"/>
      <point x="15" y="321.667" type="line"/>
      <point x="15" y="250" type="line"/>
    </contour>
    <contour>
      <point x="513.333" y="371.667" type="line"/>
      <point x="513.333" y="443.333" type="line"/>
      <point x="15" y="443.333" type="line"/>
      <point x="15" y="371.667" type="line"/>
    </contour>
  </outline>
</glyph>
<glyph name="numero" format="2">
  <advance width="971"/>
  <unicode hex="2116"/>
  <outline>
    <contour>
      <point x="201.667" y="0" type="line"/>
      <point x="201.667" y="426.667" type="line" smooth="yes"/>
      <point x="201.667" y="441.667"/>
      <point x="200.333" y="460.333"/>
      <point x="199.333" y="477.333" type="curve" smooth="yes"/>
      <point x="197.333" y="505" type="line"/>
      <point x="201.333" y="505" type="line"/>
      <point x="203.8" y="496.442"/>
      <point x="208.24" y="485.121"/>
      <point x="210.667" y="477.333" type="curve"/>
      <point x="217" y="460.333"/>
      <point x="223" y="441.667"/>
      <point x="230" y="426.667" type="curve" smooth="yes"/>
      <point x="428.333" y="0" type="line"/>
      <point x="551.667" y="0" type="line"/>
      <point x="551.667" y="700" type="line"/>
      <point x="438.333" y="700" type="line"/>
      <point x="438.333" y="273.333" type="line" smooth="yes"/>
      <point x="438.333" y="258.333"/>
      <point x="439.333" y="238"/>
      <point x="440.333" y="222.667" type="curve" smooth="yes"/>
      <point x="442.667" y="195" type="line"/>
      <point x="438.667" y="195" type="line"/>
      <point x="436.24" y="202.788"/>
      <point x="431.8" y="214.109"/>
      <point x="429.333" y="222.667" type="curve"/>
      <point x="423" y="238"/>
      <point x="417" y="258.333"/>
      <point x="410" y="273.333" type="curve" smooth="yes"/>
      <point x="211.667" y="700" type="line"/>
      <point x="88.3333" y="700" type="line"/>
      <point x="88.3333" y="0" type="line"/>
    </contour>
    <contour>
      <point x="919" y="216.667" type="line"/>
      <point x="919" y="293.333" type="line"/>
      <point x="632.333" y="293.333" type="line"/>
      <point x="632.333" y="216.667" type="line"/>
    </contour>
    <contour>
      <point x="775.667" y="350" type="curve" smooth="yes"/>
      <point x="873" y="350"/>
      <point x="940.667" y="418"/>
      <point x="940.667" y="530" type="curve" smooth="yes"/>
      <point x="940.667" y="642"/>
      <point x="873" y="710"/>
      <point x="775.667" y="710" type="curve" smooth="yes"/>
      <point x="678.333" y="710"/>
      <point x="610.667" y="642"/>
      <point x="610.667" y="530" type="curve" smooth="yes"/>
      <point x="610.667" y="418"/>
      <point x="678.333" y="350"/>
    </contour>
    <contour>
      <point x="775.667" y="416.667" type="curve" smooth="yes"/>
      <point x="738.667" y="416.667"/>
      <point x="710.667" y="444.333"/>
      <point x="710.667" y="530" type="curve" smooth="yes"/>
      <point x="710.667" y="614.333"/>
      <point x="738.667" y="643.333"/>
      <point x="775.667" y="643.333" type="curve" smooth="yes"/>
      <point x="812" y="643.333"/>
      <point x="840.667" y="614.333"/>
      <point x="840.667" y="530" type="curve" smooth="yes"/>
      <point x="840.667" y="444.333"/>
      <point x="812" y="416.667"/>
    </contour>
  </outline>
</glyph>
<glyph name="apple" format="2">
  <advance width="1278"/>
  <unicode hex="F8FF"/>
  <outline>
    <contour>
      <point x="1261.67" y="420" type="line"/>
      <point x="1081.67" y="420" type="line"/>
      <point x="1171.67" y="255" type="line"/>
    </contour>
    <contour>
      <point x="181.667" y="260" type="line"/>
      <point x="181.667" y="425" type="line"/>
      <point x="16.6667" y="260" type="line"/>
    </contour>
    <contour>
      <point x="296.667" y="255" type="curve" smooth="yes"/>
      <point x="341.667" y="255"/>
      <point x="381.667" y="295"/>
      <point x="381.667" y="340" type="curve" smooth="yes"/>
      <point x="381.667" y="385"/>
      <point x="341.667" y="425"/>
      <point x="296.667" y="425" type="curve" smooth="yes"/>
      <point x="251.667" y="425"/>
      <point x="211.667" y="385"/>
      <point x="211.667" y="340" type="curve" smooth="yes"/>
      <point x="211.667" y="295"/>
      <point x="251.667" y="255"/>
    </contour>
    <contour>
      <point x="561.667" y="420" type="line"/>
      <point x="381.667" y="420" type="line"/>
      <point x="471.667" y="255" type="line"/>
    </contour>
    <contour>
      <point x="696.667" y="260" type="line"/>
      <point x="606.667" y="425" type="line"/>
      <point x="516.667" y="260" type="line"/>
    </contour>
    <contour>
      <point x="851.667" y="260" type="line"/>
      <point x="711.667" y="400" type="line"/>
      <point x="711.667" y="260" type="line"/>
    </contour>
    <contour>
      <point x="871.667" y="420" type="line"/>
      <point x="731.667" y="420" type="line"/>
      <point x="871.667" y="280" type="line"/>
    </contour>
    <contour>
      <point x="1047.67" y="260" type="line"/>
      <point x="907.667" y="400" type="line"/>
      <point x="907.667" y="260" type="line"/>
    </contour>
    <contour>
      <point x="1067.67" y="420" type="line"/>
      <point x="927.667" y="420" type="line"/>
      <point x="1067.67" y="280" type="line"/>
    </contour>
  </outline>
</glyph>
<glyph name="Decyr.loclBGR" format="2">
  <advance width="663"/>
  <outline>
    <contour>
      <point x="570" y="62.6667" type="line"/>
      <point x="391.333" y="700" type="line"/>
      <point x="279.333" y="700" type="line"/>
      <point x="99.6667" y="62.6667" type="line"/>
      <point x="195.333" y="62.6667" type="line"/>
      <point x="317" y="503.333" type="line" smooth="yes"/>
      <point x="323.333" y="526.667"/>
      <point x="327.333" y="551.667"/>
      <point x="330" y="575" type="curve"/>
      <point x="334" y="575" type="line"/>
      <point x="336.667" y="551.667"/>
      <point x="341" y="526.667"/>
      <point x="347" y="503.333" type="curve" smooth="yes"/>
      <point x="467.667" y="62.6667" type="line"/>
    </contour>
    <contour>
      <point x="40" y="76.6667" type="line"/>
      <point x="40" y="-150" type="line"/>
      <point x="133.333" y="-150" type="line"/>
      <point x="150" y="0" type="line"/>
      <point x="518.333" y="0" type="line"/>
      <point x="535" y="-150" type="line"/>
      <point x="623.333" y="-150" type="line"/>
      <point x="623.333" y="76.6667" type="line"/>
    </contour>
  </outline>
</glyph>
<glyph name="Elcyr.loclBGR" format="2">
  <advance width="543"/>
  <outline>
    <contour>
      <point x="327.667" y="700" type="line"/>
      <point x="215.667" y="700" type="line"/>
      <point x="19" y="0" type="line"/>
      <point x="115" y="0" type="line"/>
      <point x="253.333" y="503.333" type="line" smooth="yes"/>
      <point x="257.667" y="518.667"/>
      <point x="260.333" y="535.667"/>
      <point x="263.333" y="550.667" type="curve"/>
      <point x="266.333" y="575" type="line"/>
      <point x="270.333" y="575" type="line"/>
      <point x="274.333" y="550.333" type="line"/>
      <point x="277.333" y="535.333"/>
      <point x="279.333" y="518.667"/>
      <point x="283.333" y="503.333" type="curve" smooth="yes"/>
      <point x="421.667" y="0" type="line"/>
      <point x="524.333" y="0" type="line"/>
    </contour>
  </outline>
</glyph>
<glyph name="Zhecyr.loclBGR" format="2">
  <advance width="840"/>
  <outline>
    <contour>
      <point x="476.667" y="700" type="line" name="n00"/>
      <point x="363.333" y="700" type="line" name="n01"/>
      <point x="363.333" y="376.667" type="line"/>
      <point x="151.667" y="700" type="line"/>
      <point x="23.3333" y="700" type="line"/>
      <point x="246.667" y="361.667" type="line"/>
      <point x="11.6667" y="0" type="line" name="n06"/>
      <point x="141.667" y="0" type="line"/>
      <point x="363.333" y="343.333" type="line"/>
      <point x="363.333" y="0" type="line"/>
      <point x="476.667" y="0" type="line"/>
      <point x="476.667" y="343.333" type="line"/>
      <point x="698.333" y="0" type="line"/>
      <point x="828.333" y="0" type="line"/>
      <point x="593.333" y="361.667" type="line"/>
      <point x="816.667" y="700" type="line"/>
      <point x="688.333" y="700" type="line"/>
      <point x="476.667" y="376.667" type="line"/>
    </contour>
  </outline>
</glyph>
